<svg xmlns="http://www.w3.org/2000/svg" xmlns:xlink="http://www.w3.org/1999/xlink" width="939" height="1878" viewBox="0 0 939 1878">
  <defs>
    <clipPath id="clip-path">
      <rect id="Rectangle_76" data-name="Rectangle 76" width="939" height="1878" transform="translate(1483 9147)" fill="#fff" stroke="#707070" stroke-width="1" opacity="0.45"/>
    </clipPath>
  </defs>
  <g id="Mask_Group_22" data-name="Mask Group 22" transform="translate(-1483 -9147)" clip-path="url(#clip-path)">
    <g id="Group_121" data-name="Group 121" transform="translate(1111.827 -10)">
      <g id="Group_65" data-name="Group 65" transform="translate(-390.543 1727.193)">
        <path id="Path_38" data-name="Path 38" d="M936.783,0c517.371,0,936.783,419.412,936.783,936.783s-419.412,936.783-936.783,936.783S0,1454.154,0,936.783,419.412,0,936.783,0Z" transform="translate(-175.693 7431.93)" fill="#e9c89d"/>
        <path id="Path_36" data-name="Path 36" d="M521.94,117.2c-1.809-5.891,203.7-180.711,376.9-92.266,39.671,20.25,57.255-17.852,158.935,3.25s104.119,15.055,243.647,78.875c71.606,32.766,128.521,70.477,180.843,115.094,69.323,59.1,52.908,66.977,111.064,138.781s77.813,60.945,121.562,148.445c43.748,87.484,12.948,112.141,36.205,210.313s56.822,86.117,56.822,182.367-16.048,99.242-39.3,200.578-12.547,116.758-53.722,204.766-70.284,72.266-128.493,149.32-27.141,96.086-104.343,158.875-76.568,37.938-166.064,84.609-88.925,69.32-191.92,102.094c-103,32.758-109.307,2.25-220.313,2.25s-128-12.062-227.711-29.547-67.219-17.094-151.24-58.648-92.967-16.32-180.841-80.289-80.7-94.211-144.071-172.8c-63.368-78.578-65.883-59.219-109.4-141.547S79.611,1239.258,57.1,1143.68C34.586,1048.117,5.5,1042.406.437,939.438s35.021-94.945,54.675-197.344S44.988,619.43,79.054,529.82,148.113,454.2,209.392,376.227s33.784-93.445,114.777-158.258S523.75,123.094,521.94,117.2Z" transform="matrix(0.891, 0.454, -0.454, 0.891, 368.253, 7146.803)" fill="#d9a45e"/>
      </g>
      <path id="Path_78" data-name="Path 78" d="M840.55,7587.466c53.459-22.542,153.226-175.73,320.5-90.319,38.314,19.563,82.8-31.241,181-10.866s80.635,39.544,215.387,101.185c69.156,31.635,144.042,43.052,194.572,86.148,66.951,57.075,34.462,73.153,90.627,142.5S1934.417,7866.5,1976.668,7951s12.505,108.311,34.966,203.121,54.877,83.169,54.877,176.117-32.417,97.817-54.877,195.688,4.8,110.791-34.966,195.793-67.878,69.794-124.095,144.206-26.212,92.8-100.771,153.44-79,2.964-165.43,48.034-80.832,100.626-180.3,132.269S1305.129,9176,1197.923,9176s-124.375,40.55-220.678,23.667-36.2-46.507-117.342-86.647-122.371-12.116-207.236-73.891-56-97.386-117.2-173.279-85.571-50.8-127.6-130.317,10.7-91.347-11.043-183.646-71.041-86.1-75.926-185.545,48.961-87.273,67.942-186.171-24.916-122.885,7.984-209.421,71.66-57.648,130.841-132.938,27.662-105.653,105.883-168.238S787.09,7610.008,840.55,7587.466Z" transform="translate(-822.965 1753.619)" fill="#c9402f"/>
      <path id="Path_79" data-name="Path 79" d="M823.023,7583.565c51.657-21.792,148.062-169.811,309.7-87.276,37.022,18.906,80.007-30.184,174.9-10.5s77.918,38.214,208.128,97.78c66.825,30.567,139.187,41.6,188.014,83.232,64.695,55.161,33.3,70.692,87.573,137.694s88.692,48.69,129.518,130.347,12.084,104.661,33.788,196.276,53.027,80.366,53.027,170.172-32.637,94.919-54.34,189.507c-21.7,94.559,18.819,100.855-19.606,182.988s-57.814,47.856-112.135,119.772-45.974,115.043-118.02,173.633c-43.156,35.1-55.263,61.211-78.422,66.8-15,3.622-50.536-19.574-84.027-2.112-83.52,43.566-75.512,78.961-171.629,109.547-96.116,30.566-53.49,8.581-157.082,8.581s-164.231,7.726-257.288-8.581-41.962-37.06-120.372-75.839-111.26-19.61-193.265-79.29c-82.005-59.7-66.4-85.969-125.541-159.3S405.38,8753.3,364.765,8676.484c-40.614-76.838,36.874-79.144,15.865-168.343s-86.419-135.792-91.139-231.89,48.758-33.8,67.1-129.361,5.873-109.351,37.664-192.965,69.245-55.706,126.431-128.463S547.416,7723.383,623,7662.9,771.366,7605.339,823.023,7583.565Z" transform="translate(-7297.75 13503.973) rotate(-106)" fill="#f5b434"/>
      <g id="Group_66" data-name="Group 66" transform="translate(292.436 8075.743)">
        <path id="Path_47" data-name="Path 47" d="M117.619,1686.67s1.438-3.238,5.769-26.336c4.253-23.378,14.631-66.1,47.222-73.759,31.276-7.347,70.634,2.368,103.825,29.486,10.445,8.49,21.633,21.249,30.42,36.458,30.617,52.991,14.131,109.516-11.776,146.021s-89.5,0-89.5,0,2.245,4.508,3.512,3.164c7.787,6.974,61.485,57.5,45.946,93.4-17.075,39.449-61.529,64.179-124.824,68.3S22.823,1952.806-.14,1911.59s36.505-113.049,36.505-113.049-.8.238-13.189,5.362c-19.389,7.461-69.43,23.21-91.617,1.7-28.851-27.968-31.795-69.184-10.6-118.937s53.286-64.18,95.385-80.076c19.2-7.25,54.457-2.637,75.366,18.843C112.619,1646.868,117.619,1686.67,117.619,1686.67Z" transform="translate(68 -231.001)" fill="none" stroke="#ffd328" stroke-width="30"/>
        <path id="Path_48" data-name="Path 48" d="M186.078,107.268s4.213-5.45,8.2-26.534c3.912-21.339,18.061-71.582,48.036-78.569,28.765-6.708,64.963,2.161,95.49,26.915,9.606,7.751,19.9,19.4,27.978,33.279,28.159,48.373,13,99.971-10.831,133.293s-96.72-18.3-96.72-18.3,6.073,14.295,7.238,13.069c7.161,6.366,66.948,60.608,52.657,93.378-15.7,36.007-56.589,58.583-114.8,62.347s-96.933-9.676-118.053-47.3S147.625,172.27,147.625,172.27s-1.71.5-13.105,5.177c-17.832,6.812-91.663,44.287-112.068,24.655C-4.083,176.57-6.791,138.949,12.7,93.533s49.008-58.584,87.727-73.1c17.656-6.616,50.085-2.406,69.315,17.2C188.975,57.2,186.078,107.268,186.078,107.268Z" transform="matrix(1, 0.017, -0.017, 1, -1.022, 1367.852)" fill="none" stroke="#f5f676" stroke-width="20"/>
      </g>
      <g id="Group_67" data-name="Group 67" transform="translate(684.649 8455.606)">
        <path id="Path_47-2" data-name="Path 47" d="M117.619,1686.67s1.438-3.238,5.769-26.336c4.253-23.378,14.631-66.1,47.222-73.759,31.276-7.347,70.634,2.368,103.825,29.486,10.445,8.49,21.633,21.249,30.42,36.458,30.617,52.991,14.131,109.516-11.776,146.021s-89.5,0-89.5,0,2.245,4.508,3.512,3.164c7.787,6.974,61.485,57.5,45.946,93.4-17.075,39.449-61.529,64.179-124.824,68.3S22.823,1952.806-.14,1911.59s36.505-113.049,36.505-113.049-.8.238-13.189,5.362c-19.389,7.461-69.43,23.21-91.617,1.7-28.851-27.968-31.795-69.184-10.6-118.937s53.286-64.18,95.385-80.076c19.2-7.25,54.457-2.637,75.366,18.843C112.619,1646.868,117.619,1686.67,117.619,1686.67Z" transform="translate(68 -231.001)" fill="none" stroke="#ffd328" stroke-width="30"/>
        <path id="Path_48-2" data-name="Path 48" d="M186.078,107.268s4.213-5.45,8.2-26.534c3.912-21.339,18.061-71.582,48.036-78.569,28.765-6.708,64.963,2.161,95.49,26.915,9.606,7.751,19.9,19.4,27.978,33.279,28.159,48.373,13,99.971-10.831,133.293s-96.72-18.3-96.72-18.3,6.073,14.295,7.238,13.069c7.161,6.366,66.948,60.608,52.657,93.378-15.7,36.007-56.589,58.583-114.8,62.347s-96.933-9.676-118.053-47.3S147.625,172.27,147.625,172.27s-1.71.5-13.105,5.177c-17.832,6.812-91.663,44.287-112.068,24.655C-4.083,176.57-6.791,138.949,12.7,93.533s49.008-58.584,87.727-73.1c17.656-6.616,50.085-2.406,69.315,17.2C188.975,57.2,186.078,107.268,186.078,107.268Z" transform="matrix(1, 0.017, -0.017, 1, -1.022, 1367.852)" fill="none" stroke="#f5f676" stroke-width="20"/>
      </g>
      <g id="Group_68" data-name="Group 68" transform="translate(561.149 8980.606)">
        <path id="Path_47-3" data-name="Path 47" d="M117.619,1686.67s1.438-3.238,5.769-26.336c4.253-23.378,14.631-66.1,47.222-73.759,31.276-7.347,70.634,2.368,103.825,29.486,10.445,8.49,21.633,21.249,30.42,36.458,30.617,52.991,14.131,109.516-11.776,146.021s-89.5,0-89.5,0,2.245,4.508,3.512,3.164c7.787,6.974,61.485,57.5,45.946,93.4-17.075,39.449-61.529,64.179-124.824,68.3S22.823,1952.806-.14,1911.59s36.505-113.049,36.505-113.049-.8.238-13.189,5.362c-19.389,7.461-69.43,23.21-91.617,1.7-28.851-27.968-31.795-69.184-10.6-118.937s53.286-64.18,95.385-80.076c19.2-7.25,54.457-2.637,75.366,18.843C112.619,1646.868,117.619,1686.67,117.619,1686.67Z" transform="translate(68 -231.001)" fill="none" stroke="#ffd328" stroke-width="30"/>
        <path id="Path_48-3" data-name="Path 48" d="M186.078,107.268s4.213-5.45,8.2-26.534c3.912-21.339,18.061-71.582,48.036-78.569,28.765-6.708,64.963,2.161,95.49,26.915,9.606,7.751,19.9,19.4,27.978,33.279,28.159,48.373,13,99.971-10.831,133.293s-96.72-18.3-96.72-18.3,6.073,14.295,7.238,13.069c7.161,6.366,66.948,60.608,52.657,93.378-15.7,36.007-56.589,58.583-114.8,62.347s-96.933-9.676-118.053-47.3S147.625,172.27,147.625,172.27s-1.71.5-13.105,5.177c-17.832,6.812-91.663,44.287-112.068,24.655C-4.083,176.57-6.791,138.949,12.7,93.533s49.008-58.584,87.727-73.1c17.656-6.616,50.085-2.406,69.315,17.2C188.975,57.2,186.078,107.268,186.078,107.268Z" transform="matrix(1, 0.017, -0.017, 1, -1.022, 1367.852)" fill="none" stroke="#f5f676" stroke-width="20"/>
      </g>
      <g id="Group_69" data-name="Group 69" transform="translate(-467.564 5218.312)">
        <ellipse id="Ellipse_112" data-name="Ellipse 112" cx="67" cy="72.5" rx="67" ry="72.5" transform="translate(1208 4379)" fill="#629948"/>
        <circle id="Ellipse_113" data-name="Ellipse 113" cx="27.5" cy="27.5" r="27.5" transform="translate(1247 4390)"/>
      </g>
      <g id="Group_70" data-name="Group 70" transform="translate(-879.564 5870.312)">
        <ellipse id="Ellipse_108" data-name="Ellipse 108" cx="47" cy="57.5" rx="47" ry="57.5" transform="translate(1327 4379)" fill="#78993e"/>
        <circle id="Ellipse_109" data-name="Ellipse 109" cx="20" cy="20" r="20" transform="translate(1346 4446)"/>
      </g>
      <g id="Group_71" data-name="Group 71" transform="translate(-977.564 5528.312)">
        <ellipse id="Ellipse_110" data-name="Ellipse 110" cx="58.5" cy="47.5" rx="58.5" ry="47.5" transform="translate(1453 4359)" fill="#373332"/>
        <ellipse id="Ellipse_111" data-name="Ellipse 111" cx="20" cy="19.5" rx="20" ry="19.5" transform="translate(1461 4375)"/>
      </g>
      <g id="Group_72" data-name="Group 72" transform="translate(-614.52 5883.759)">
        <ellipse id="Ellipse_114" data-name="Ellipse 114" cx="55.5" cy="41.5" rx="55.5" ry="41.5" transform="translate(1551.955 4358.553)" fill="#504f4d"/>
        <ellipse id="Ellipse_115" data-name="Ellipse 115" cx="20" cy="19.5" rx="20" ry="19.5" transform="translate(1614.955 4390.553)"/>
      </g>
      <g id="Group_73" data-name="Group 73" transform="translate(-734.564 5719.312)">
        <ellipse id="Ellipse_108-2" data-name="Ellipse 108" cx="47" cy="57.5" rx="47" ry="57.5" transform="translate(1327 4379)" fill="#78993e"/>
        <circle id="Ellipse_109-2" data-name="Ellipse 109" cx="20" cy="20" r="20" transform="translate(1346 4446)"/>
      </g>
      <g id="Group_74" data-name="Group 74" transform="translate(-542.564 5528.312)">
        <ellipse id="Ellipse_110-2" data-name="Ellipse 110" cx="58.5" cy="47.5" rx="58.5" ry="47.5" transform="translate(1453 4359)" fill="#373332"/>
        <ellipse id="Ellipse_111-2" data-name="Ellipse 111" cx="20" cy="19.5" rx="20" ry="19.5" transform="translate(1461 4375)"/>
      </g>
      <g id="Group_75" data-name="Group 75" transform="translate(-760.564 6276.312)">
        <ellipse id="Ellipse_112-2" data-name="Ellipse 112" cx="67" cy="72.5" rx="67" ry="72.5" transform="translate(1208 4379)" fill="#629948"/>
        <circle id="Ellipse_113-2" data-name="Ellipse 113" cx="27.5" cy="27.5" r="27.5" transform="translate(1247 4390)"/>
      </g>
      <g id="Group_76" data-name="Group 76" transform="translate(-1010.52 4995.759)">
        <ellipse id="Ellipse_114-2" data-name="Ellipse 114" cx="55.5" cy="41.5" rx="55.5" ry="41.5" transform="translate(1551.955 4358.553)" fill="#504f4d"/>
        <ellipse id="Ellipse_115-2" data-name="Ellipse 115" cx="20" cy="19.5" rx="20" ry="19.5" transform="translate(1614.955 4390.553)"/>
      </g>
      <g id="Group_77" data-name="Group 77" transform="translate(686.436 9003.72)">
        <path id="Path_49" data-name="Path 49" d="M123.744,1672.547c.308-3.1,11.024-47.4,24.5-65.165s29.4-5.879,29.4-5.879,22.905,9.309,33.317,21.558,13.229,16.169,8.329,27.438-47.728,47.051-47.526,50.954c-.05.192,21.632-1.781,34.371,1.771s14.166,7.721,16.584,12.438,2.946,15.406-3.43,24.008-17.5,26.676-44.1,33.317-35.335,2.857-56.811-3.784-44.477-30.72-54.9-48.151-8.612-22.559-8.329-42.626,6.058-24.488,16.169-35.276,22.916-5.423,27.927-4.41c0,0,9.18,7.867,15.3,16.319A74.368,74.368,0,0,1,123.744,1672.547Z" transform="translate(85 -218)" fill="#e8c67e"/>
        <path id="Path_50" data-name="Path 50" d="M90.96,1646.547s-5.212-19.859-11.217-29.822-8.874-12.206-12.8-10.028-10.095,5.607-4.091,15.57S90.96,1646.547,90.96,1646.547Z" transform="translate(113.078 -175.444)" fill="#846e3d"/>
        <path id="Path_51" data-name="Path 51" d="M71.572,1617.523s19.6-1.915,32.2-1.452,17.353-.528,18.21,3.3-2.177,12.471-14.779,12.008S71.572,1617.523,71.572,1617.523Z" transform="translate(170.47 -123.986)" fill="#846e3d"/>
      </g>
      <g id="Group_78" data-name="Group 78" transform="translate(2218.679 10188.916) rotate(110)">
        <path id="Path_49-2" data-name="Path 49" d="M123.744,1672.547c.308-3.1,11.024-47.4,24.5-65.165s29.4-5.879,29.4-5.879,22.905,9.309,33.317,21.558,13.229,16.169,8.329,27.438-47.728,47.051-47.526,50.954c-.05.192,21.632-1.781,34.371,1.771s14.166,7.721,16.584,12.438,2.946,15.406-3.43,24.008-17.5,26.676-44.1,33.317-35.335,2.857-56.811-3.784-44.477-30.72-54.9-48.151-8.612-22.559-8.329-42.626,6.058-24.488,16.169-35.276,22.916-5.423,27.927-4.41c0,0,9.18,7.867,15.3,16.319A74.368,74.368,0,0,1,123.744,1672.547Z" transform="translate(85 -218)" fill="#e8c67e"/>
        <path id="Path_50-2" data-name="Path 50" d="M90.96,1646.547s-5.212-19.859-11.217-29.822-8.874-12.206-12.8-10.028-10.095,5.607-4.091,15.57S90.96,1646.547,90.96,1646.547Z" transform="translate(113.078 -175.444)" fill="#846e3d"/>
        <path id="Path_51-2" data-name="Path 51" d="M71.572,1617.523s19.6-1.915,32.2-1.452,17.353-.528,18.21,3.3-2.177,12.471-14.779,12.008S71.572,1617.523,71.572,1617.523Z" transform="translate(170.47 -123.986)" fill="#846e3d"/>
      </g>
      <g id="Group_79" data-name="Group 79" transform="translate(-706.607 9292.179) rotate(-74)">
        <path id="Path_49-3" data-name="Path 49" d="M123.744,1672.547c.308-3.1,11.024-47.4,24.5-65.165s29.4-5.879,29.4-5.879,22.905,9.309,33.317,21.558,13.229,16.169,8.329,27.438-47.728,47.051-47.526,50.954c-.05.192,21.632-1.781,34.371,1.771s14.166,7.721,16.584,12.438,2.946,15.406-3.43,24.008-17.5,26.676-44.1,33.317-35.335,2.857-56.811-3.784-44.477-30.72-54.9-48.151-8.612-22.559-8.329-42.626,6.058-24.488,16.169-35.276,22.916-5.423,27.927-4.41c0,0,9.18,7.867,15.3,16.319A74.368,74.368,0,0,1,123.744,1672.547Z" transform="translate(85 -218)" fill="#e8c67e"/>
        <path id="Path_50-3" data-name="Path 50" d="M90.96,1646.547s-5.212-19.859-11.217-29.822-8.874-12.206-12.8-10.028-10.095,5.607-4.091,15.57S90.96,1646.547,90.96,1646.547Z" transform="translate(113.078 -175.444)" fill="#846e3d"/>
        <path id="Path_51-3" data-name="Path 51" d="M71.572,1617.523s19.6-1.915,32.2-1.452,17.353-.528,18.21,3.3-2.177,12.471-14.779,12.008S71.572,1617.523,71.572,1617.523Z" transform="translate(170.47 -123.986)" fill="#846e3d"/>
      </g>
      <g id="Group_80" data-name="Group 80" transform="translate(151.813 7906.01)">
        <path id="Path_49-4" data-name="Path 49" d="M123.744,1672.547c.308-3.1,11.024-47.4,24.5-65.165s29.4-5.879,29.4-5.879,22.905,9.309,33.317,21.558,13.229,16.169,8.329,27.438-47.728,47.051-47.526,50.954c-.05.192,21.632-1.781,34.371,1.771s14.166,7.721,16.584,12.438,2.946,15.406-3.43,24.008-17.5,26.676-44.1,33.317-35.335,2.857-56.811-3.784-44.477-30.72-54.9-48.151-8.612-22.559-8.329-42.626,6.058-24.488,16.169-35.276,22.916-5.423,27.927-4.41c0,0,9.18,7.867,15.3,16.319A74.368,74.368,0,0,1,123.744,1672.547Z" transform="translate(85 -218)" fill="#e8c67e"/>
        <path id="Path_50-4" data-name="Path 50" d="M90.96,1646.547s-5.212-19.859-11.217-29.822-8.874-12.206-12.8-10.028-10.095,5.607-4.091,15.57S90.96,1646.547,90.96,1646.547Z" transform="translate(113.078 -175.444)" fill="#846e3d"/>
        <path id="Path_51-4" data-name="Path 51" d="M71.572,1617.523s19.6-1.915,32.2-1.452,17.353-.528,18.21,3.3-2.177,12.471-14.779,12.008S71.572,1617.523,71.572,1617.523Z" transform="translate(170.47 -123.986)" fill="#846e3d"/>
      </g>
      <g id="Group_81" data-name="Group 81" transform="translate(-1066.385 9883.614) rotate(-73)">
        <path id="Path_49-5" data-name="Path 49" d="M123.744,1672.547c.308-3.1,11.024-47.4,24.5-65.165s29.4-5.879,29.4-5.879,22.905,9.309,33.317,21.558,13.229,16.169,8.329,27.438-47.728,47.051-47.526,50.954c-.05.192,21.632-1.781,34.371,1.771s14.166,7.721,16.584,12.438,2.946,15.406-3.43,24.008-17.5,26.676-44.1,33.317-35.335,2.857-56.811-3.784-44.477-30.72-54.9-48.151-8.612-22.559-8.329-42.626,6.058-24.488,16.169-35.276,22.916-5.423,27.927-4.41c0,0,9.18,7.867,15.3,16.319A74.368,74.368,0,0,1,123.744,1672.547Z" transform="translate(85 -218)" fill="#e8c67e"/>
        <path id="Path_50-5" data-name="Path 50" d="M90.96,1646.547s-5.212-19.859-11.217-29.822-8.874-12.206-12.8-10.028-10.095,5.607-4.091,15.57S90.96,1646.547,90.96,1646.547Z" transform="translate(113.078 -175.444)" fill="#846e3d"/>
        <path id="Path_51-5" data-name="Path 51" d="M71.572,1617.523s19.6-1.915,32.2-1.452,17.353-.528,18.21,3.3-2.177,12.471-14.779,12.008S71.572,1617.523,71.572,1617.523Z" transform="translate(170.47 -123.986)" fill="#846e3d"/>
      </g>
      <g id="Group_82" data-name="Group 82" transform="translate(186.436 10139.446)">
        <g id="Ellipse_116" data-name="Ellipse 116" transform="translate(0 -0.134)" fill="none" stroke="#6a518a" stroke-width="10">
          <circle cx="194.5" cy="194.5" r="194.5" stroke="none"/>
          <circle cx="194.5" cy="194.5" r="189.5" fill="none"/>
        </g>
        <g id="Path_52" data-name="Path 52" transform="translate(6.824 6.705)" fill="none">
          <path d="M187.668,0C291.314,0,375.336,84.022,375.336,187.668S291.314,375.336,187.668,375.336,0,291.314,0,187.668,84.022,0,187.668,0Z" stroke="none"/>
          <path d="M 187.6678161621094 29.99996948242188 C 100.7295227050781 29.99996948242188 29.99996948242188 100.7294921875 29.99996948242188 187.6678009033203 C 29.99996948242188 274.6061096191406 100.7295227050781 345.3355712890625 187.6678161621094 345.3355712890625 C 274.6061401367188 345.3355712890625 345.3355712890625 274.6061096191406 345.3355712890625 187.6678009033203 C 345.3355712890625 100.7294921875 274.6061401367188 29.99996948242188 187.6678161621094 29.99996948242188 M 187.6678161621094 -3.0517578125e-05 C 291.3139038085938 -3.0517578125e-05 375.3355712890625 84.021728515625 375.3355712890625 187.6678009033203 C 375.3355712890625 291.3138122558594 291.3139038085938 375.3355712890625 187.6678161621094 375.3355712890625 C 84.021728515625 375.3355712890625 -3.0517578125e-05 291.3138122558594 -3.0517578125e-05 187.6678009033203 C -3.0517578125e-05 84.021728515625 84.021728515625 -3.0517578125e-05 187.6678161621094 -3.0517578125e-05 Z" stroke="none" fill="#f3e9f0"/>
        </g>
      </g>
      <g id="Group_83" data-name="Group 83" transform="translate(753.436 9602.446)">
        <g id="Ellipse_116-2" data-name="Ellipse 116" transform="translate(0 -0.134)" fill="none" stroke="#6a518a" stroke-width="10">
          <circle cx="194.5" cy="194.5" r="194.5" stroke="none"/>
          <circle cx="194.5" cy="194.5" r="189.5" fill="none"/>
        </g>
        <g id="Path_52-2" data-name="Path 52" transform="translate(6.824 6.705)" fill="none">
          <path d="M187.668,0C291.314,0,375.336,84.022,375.336,187.668S291.314,375.336,187.668,375.336,0,291.314,0,187.668,84.022,0,187.668,0Z" stroke="none"/>
          <path d="M 187.6678161621094 29.99996948242188 C 100.7295227050781 29.99996948242188 29.99996948242188 100.7294921875 29.99996948242188 187.6678009033203 C 29.99996948242188 274.6061096191406 100.7295227050781 345.3355712890625 187.6678161621094 345.3355712890625 C 274.6061401367188 345.3355712890625 345.3355712890625 274.6061096191406 345.3355712890625 187.6678009033203 C 345.3355712890625 100.7294921875 274.6061401367188 29.99996948242188 187.6678161621094 29.99996948242188 M 187.6678161621094 -3.0517578125e-05 C 291.3139038085938 -3.0517578125e-05 375.3355712890625 84.021728515625 375.3355712890625 187.6678009033203 C 375.3355712890625 291.3138122558594 291.3139038085938 375.3355712890625 187.6678161621094 375.3355712890625 C 84.021728515625 375.3355712890625 -3.0517578125e-05 291.3138122558594 -3.0517578125e-05 187.6678009033203 C -3.0517578125e-05 84.021728515625 84.021728515625 -3.0517578125e-05 187.6678161621094 -3.0517578125e-05 Z" stroke="none" fill="#f3e9f0"/>
        </g>
      </g>
      <g id="Group_84" data-name="Group 84" transform="translate(309.436 9601.446)">
        <g id="Ellipse_116-3" data-name="Ellipse 116" transform="translate(0 -0.134)" fill="none" stroke="#6a518a" stroke-width="10">
          <circle cx="138.5" cy="138.5" r="138.5" stroke="none"/>
          <circle cx="138.5" cy="138.5" r="133.5" fill="none"/>
        </g>
        <g id="Path_52-3" data-name="Path 52" transform="translate(4.859 4.736)" fill="none">
          <path d="M133.635,0A133.635,133.635,0,1,1,0,133.635,133.635,133.635,0,0,1,133.635,0Z" stroke="none"/>
          <path d="M 133.6349182128906 29.99996948242188 C 76.49041748046875 29.99996948242188 29.99998474121094 76.49040222167969 29.99998474121094 133.6349029541016 C 29.99998474121094 190.7793426513672 76.49041748046875 237.269775390625 133.6349182128906 237.269775390625 C 190.7794189453125 237.269775390625 237.2698516845703 190.7793426513672 237.2698516845703 133.6349029541016 C 237.2698516845703 76.49040222167969 190.7794189453125 29.99996948242188 133.6349182128906 29.99996948242188 M 133.6349182128906 -3.0517578125e-05 C 207.4394226074219 -3.0517578125e-05 267.2698669433594 59.83039855957031 267.2698669433594 133.6349029541016 C 267.2698669433594 207.4394073486328 207.4394226074219 267.269775390625 133.6349182128906 267.269775390625 C 59.83041381835938 267.269775390625 -3.0517578125e-05 207.4394073486328 -3.0517578125e-05 133.6349029541016 C -3.0517578125e-05 59.83039855957031 59.83041381835938 -3.0517578125e-05 133.6349182128906 -3.0517578125e-05 Z" stroke="none" fill="#f3e9f0"/>
        </g>
      </g>
      <g id="Group_85" data-name="Group 85" transform="translate(681.436 10227.946)">
        <g id="Ellipse_116-4" data-name="Ellipse 116" transform="translate(0 0.366)" fill="none" stroke="#6a518a" stroke-width="10">
          <ellipse cx="122.5" cy="122" rx="122.5" ry="122" stroke="none"/>
          <ellipse cx="122.5" cy="122" rx="117.5" ry="117" fill="none"/>
        </g>
        <g id="Path_52-4" data-name="Path 52" transform="translate(4.289 4.165)" fill="none">
          <path d="M117.956,0A117.956,117.956,0,1,1,0,117.956,117.956,117.956,0,0,1,117.956,0Z" stroke="none"/>
          <path d="M 117.9557495117188 29.99998474121094 C 69.45675659179688 29.99998474121094 29.99998474121094 69.45674133300781 29.99998474121094 117.9557418823242 C 29.99998474121094 166.4547424316406 69.45675659179688 205.9114990234375 117.9557495117188 205.9114990234375 C 166.4547424316406 205.9114990234375 205.9115142822266 166.4547424316406 205.9115142822266 117.9557418823242 C 205.9115142822266 69.45674133300781 166.4547424316406 29.99998474121094 117.9557495117188 29.99998474121094 M 117.9557495117188 -1.52587890625e-05 C 183.1009216308594 -1.52587890625e-05 235.9115142822266 52.81056213378906 235.9115142822266 117.9557418823242 C 235.9115142822266 183.1008605957031 183.1009216308594 235.9114990234375 117.9557495117188 235.9114990234375 C 52.81057739257813 235.9114990234375 -1.52587890625e-05 183.1008605957031 -1.52587890625e-05 117.9557418823242 C -1.52587890625e-05 52.81056213378906 52.81057739257813 -1.52587890625e-05 117.9557495117188 -1.52587890625e-05 Z" stroke="none" fill="#f3e9f0"/>
        </g>
      </g>
      <g id="Group_86" data-name="Group 86" transform="translate(541.436 10562.946)">
        <g id="Ellipse_116-5" data-name="Ellipse 116" transform="translate(0 -0.634)" fill="none" stroke="#6a518a" stroke-width="10">
          <circle cx="122.5" cy="122.5" r="122.5" stroke="none"/>
          <circle cx="122.5" cy="122.5" r="117.5" fill="none"/>
        </g>
        <g id="Path_52-5" data-name="Path 52" transform="translate(4.289 4.165)" fill="none">
          <path d="M117.956,0A117.956,117.956,0,1,1,0,117.956,117.956,117.956,0,0,1,117.956,0Z" stroke="none"/>
          <path d="M 117.9557495117188 29.99998474121094 C 69.45675659179688 29.99998474121094 29.99998474121094 69.45674133300781 29.99998474121094 117.9557418823242 C 29.99998474121094 166.4547424316406 69.45675659179688 205.9114990234375 117.9557495117188 205.9114990234375 C 166.4547424316406 205.9114990234375 205.9115142822266 166.4547424316406 205.9115142822266 117.9557418823242 C 205.9115142822266 69.45674133300781 166.4547424316406 29.99998474121094 117.9557495117188 29.99998474121094 M 117.9557495117188 -1.52587890625e-05 C 183.1009216308594 -1.52587890625e-05 235.9115142822266 52.81056213378906 235.9115142822266 117.9557418823242 C 235.9115142822266 183.1008605957031 183.1009216308594 235.9114990234375 117.9557495117188 235.9114990234375 C 52.81057739257813 235.9114990234375 -1.52587890625e-05 183.1008605957031 -1.52587890625e-05 117.9557418823242 C -1.52587890625e-05 52.81056213378906 52.81057739257813 -1.52587890625e-05 117.9557495117188 -1.52587890625e-05 Z" stroke="none" fill="#f3e9f0"/>
        </g>
      </g>
      <g id="Group_87" data-name="Group 87" transform="translate(570.436 9336.446)">
        <g id="Ellipse_116-6" data-name="Ellipse 116" transform="translate(0 -0.134)" fill="none" stroke="#6a518a" stroke-width="10">
          <circle cx="144.5" cy="144.5" r="144.5" stroke="none"/>
          <circle cx="144.5" cy="144.5" r="139.5" fill="none"/>
        </g>
        <g id="Path_52-6" data-name="Path 52" transform="translate(5.07 4.947)" fill="none">
          <path d="M139.424,0A139.424,139.424,0,1,1,0,139.424,139.424,139.424,0,0,1,139.424,0Z" stroke="none"/>
          <path d="M 139.4241638183594 30.00001525878906 C 79.08743286132813 30.00001525878906 29.99996948242188 79.08747863769531 29.99996948242188 139.4241485595703 C 29.99996948242188 199.7608184814453 79.08743286132813 248.8482818603516 139.4241638183594 248.8482818603516 C 199.7608337402344 248.8482818603516 248.8482971191406 199.7608184814453 248.8482971191406 139.4241485595703 C 248.8482971191406 79.08747863769531 199.7608337402344 30.00001525878906 139.4241638183594 30.00001525878906 M 139.4241638183594 0 C 216.4259643554688 0 278.8482971191406 62.42228698730469 278.8482971191406 139.4241485595703 C 278.8482971191406 216.4259490966797 216.4259643554688 278.8482971191406 139.4241638183594 278.8482971191406 C 62.42230224609375 278.8482971191406 -3.0517578125e-05 216.4259490966797 -3.0517578125e-05 139.4241485595703 C -3.0517578125e-05 62.42228698730469 62.42230224609375 0 139.4241638183594 0 Z" stroke="none" fill="#f3e9f0"/>
        </g>
      </g>
      <g id="Group_88" data-name="Group 88" transform="translate(839.9 10005.706)">
        <g id="Group_26" data-name="Group 26" transform="translate(0 0)">
          <path id="Path_47-4" data-name="Path 47" d="M101.358,1678.588s1.327-2.986,5.323-24.3c3.924-21.571,13.5-61,43.574-68.059,28.86-6.78,63.975,3.881,94.6,28.9,9.638,7.834,21.163,17.911,29.271,31.944,28.252,48.9,13.039,101.055-10.866,134.74s-82.582,0-82.582,0,2.072,4.16,3.241,2.92c7.185,6.435,56.734,53.057,42.4,86.182-15.756,36.4-56.775,59.22-115.181,63.023s-97.252-9.778-118.44-47.81,33.685-104.316,33.685-104.316-.737.221-12.17,4.948c-17.891,6.885-64.066,21.416-84.538,1.572-26.622-25.807-29.338-63.839-9.78-109.748s49.169-59.219,88.015-73.888c17.714-6.69,50.249-2.434,69.543,17.387C96.745,1641.862,101.358,1678.588,101.358,1678.588Z" transform="translate(92.851 -1584.228)" fill="none" stroke="#cc2522" stroke-width="30"/>
          <path id="Path_48-4" data-name="Path 48" d="M171.7,98.98s3.888-5.029,7.563-24.484C182.875,54.8,195.931,8.445,223.59,2c26.543-6.19,59.944,1.994,88.113,24.836A114.155,114.155,0,0,1,337.52,57.54c25.984,44.637,11.993,92.247-9.994,123s-89.247-16.888-89.247-16.888,5.6,13.191,6.679,12.061c6.608,5.874,61.776,55.926,48.589,86.163-14.491,33.225-52.217,54.057-105.934,57.53s-89.444-8.929-108.932-43.645,57.539-116.8,57.539-116.8-1.578.46-12.093,4.776c-16.455,6.286-84.581,40.866-103.41,22.751-24.485-23.558-26.983-58.273-8.995-100.18s45.222-54.058,80.95-67.448c16.292-6.106,46.215-2.221,63.96,15.87C174.375,52.781,171.7,98.98,171.7,98.98Z" transform="matrix(1, 0.017, -0.017, 1, 21.988, 13.329)" fill="none" stroke="#db2023" stroke-width="20"/>
        </g>
      </g>
      <g id="Group_89" data-name="Group 89" transform="matrix(0.819, 0.574, -0.574, 0.819, 622.5, 9523.627)">
        <g id="Group_26-2" data-name="Group 26" transform="translate(0 0)">
          <path id="Path_47-5" data-name="Path 47" d="M50.6,1653.927s.98-2.206,3.932-17.949c2.9-15.933,9.972-45.055,32.186-50.272,21.317-5.008,47.255,2.867,69.878,21.35,7.119,5.787,15.632,13.23,21.621,23.6,20.868,36.118,9.631,74.644-8.026,99.525s-61,0-61,0,1.53,3.073,2.394,2.157c5.307,4.753,41.907,39.19,31.316,63.657-11.638,26.888-41.937,43.742-85.077,46.552s-71.834-7.223-87.485-35.314,24.881-77.052,24.881-77.052-.545.163-8.989,3.655c-13.215,5.086-47.322,15.819-62.444,1.161-19.664-19.062-21.671-47.154-7.224-81.065s36.318-43.742,65.012-54.577c13.084-4.941,37.116-1.8,51.367,12.843C47.193,1626.8,50.6,1653.927,50.6,1653.927Z" transform="translate(92.851 -1584.228)" fill="none" stroke="#cc2522" stroke-width="30"/>
          <path id="Path_48-5" data-name="Path 48" d="M126.827,73.111s2.872-3.715,5.587-18.085c2.666-14.545,12.31-48.788,32.74-53.551C184.759-3.1,209.431,2.947,230.237,19.82A84.32,84.32,0,0,1,249.307,42.5c19.193,32.97,8.858,68.137-7.382,90.85S176,120.877,176,120.877s4.139,9.743,4.934,8.908c4.881,4.339,45.63,41.309,35.89,63.644-10.7,24.542-38.57,39.929-78.247,42.494s-66.067-6.6-80.462-32.238,42.5-86.27,42.5-86.27-1.166.34-8.932,3.528c-12.154,4.643-62.475,30.185-76.383,16.8-18.085-17.4-19.931-43.043-6.644-74s33.4-39.93,59.793-49.82c12.034-4.51,34.137-1.64,47.244,11.722C128.8,38.986,126.827,73.111,126.827,73.111Z" transform="matrix(1, 0.017, -0.017, 1, 16.241, 9.845)" fill="none" stroke="#db2023" stroke-width="20"/>
        </g>
      </g>
      <g id="Group_90" data-name="Group 90" transform="translate(512.41 10297.742)">
        <g id="Group_26-3" data-name="Group 26" transform="translate(0 0)">
          <path id="Path_47-6" data-name="Path 47" d="M46.223,1651.911s.95-2.139,3.812-17.4c2.81-15.447,9.668-43.68,31.2-48.738,20.667-4.855,46.673,1.563,68.606,19.484a89.357,89.357,0,0,1,20.1,24.09c20.231,35.015,9.338,72.366-7.781,96.488s-59.138,0-59.138,0,1.484,2.979,2.321,2.091c5.145,4.608,40.628,37.995,30.361,61.715-11.283,26.067-40.657,42.407-82.481,45.131s-69.642-7-84.816-34.237,24.122-74.7,24.122-74.7-.528.159-8.715,3.544c-12.812,4.93-45.878,15.336-60.538,1.125-19.064-18.481-21.009-45.715-7-78.591S-48.514,1609.5-20.7,1599c12.685-4.79,35.984-1.743,49.8,12.451C42.919,1625.611,46.223,1651.911,46.223,1651.911Z" transform="translate(92.851 -1584.205)" fill="none" stroke="#6baf45" stroke-width="30"/>
          <path id="Path_48-6" data-name="Path 48" d="M122.957,70.88s2.784-3.6,5.416-17.533c2.585-14.1,11.934-47.3,31.741-51.917,19.007-4.432,42.926,1.428,63.1,17.785A81.747,81.747,0,0,1,241.7,41.2c18.607,31.964,8.588,66.058-7.157,88.078s-63.91-12.094-63.91-12.094,4.013,9.446,4.783,8.637c4.732,4.206,44.238,40.049,34.795,61.7-10.377,23.793-37.393,38.71-75.86,41.2S70.3,222.33,56.344,197.47s41.2-83.638,41.2-83.638-1.13.329-8.66,3.42c-11.783,4.5-60.569,29.264-74.053,16.292C-2.7,116.674-4.487,91.815,8.394,61.8S40.778,23.093,66.363,13.5c11.667-4.373,33.1-1.59,45.8,11.365C124.871,37.8,122.957,70.88,122.957,70.88Z" transform="matrix(1, 0.017, -0.017, 1, 15.746, 9.679)" fill="none" stroke="#89c63d" stroke-width="20"/>
        </g>
      </g>
      <g id="Group_91" data-name="Group 91" transform="translate(466.691 9919.312)">
        <g id="Group_26-4" data-name="Group 26" transform="translate(0 0)">
          <path id="Path_47-7" data-name="Path 47" d="M46.223,1651.911s.95-2.139,3.812-17.4c2.81-15.447,9.668-43.68,31.2-48.738,20.667-4.855,46.673,1.563,68.606,19.484a89.357,89.357,0,0,1,20.1,24.09c20.231,35.015,9.338,72.366-7.781,96.488s-59.138,0-59.138,0,1.484,2.979,2.321,2.091c5.145,4.608,40.628,37.995,30.361,61.715-11.283,26.067-40.657,42.407-82.481,45.131s-69.642-7-84.816-34.237,24.122-74.7,24.122-74.7-.528.159-8.715,3.544c-12.812,4.93-45.878,15.336-60.538,1.125-19.064-18.481-21.009-45.715-7-78.591S-48.514,1609.5-20.7,1599c12.685-4.79,35.984-1.743,49.8,12.451C42.919,1625.611,46.223,1651.911,46.223,1651.911Z" transform="translate(92.851 -1584.205)" fill="none" stroke="#6baf45" stroke-width="30"/>
          <path id="Path_48-7" data-name="Path 48" d="M122.957,70.88s2.784-3.6,5.416-17.533c2.585-14.1,11.934-47.3,31.741-51.917,19.007-4.432,42.926,1.428,63.1,17.785A81.747,81.747,0,0,1,241.7,41.2c18.607,31.964,8.588,66.058-7.157,88.078s-63.91-12.094-63.91-12.094,4.013,9.446,4.783,8.637c4.732,4.206,44.238,40.049,34.795,61.7-10.377,23.793-37.393,38.71-75.86,41.2S70.3,222.33,56.344,197.47s41.2-83.638,41.2-83.638-1.13.329-8.66,3.42c-11.783,4.5-60.569,29.264-74.053,16.292C-2.7,116.674-4.487,91.815,8.394,61.8S40.778,23.093,66.363,13.5c11.667-4.373,33.1-1.59,45.8,11.365C124.871,37.8,122.957,70.88,122.957,70.88Z" transform="matrix(1, 0.017, -0.017, 1, 15.746, 9.679)" fill="none" stroke="#89c63d" stroke-width="20"/>
        </g>
      </g>
      <g id="Group_92" data-name="Group 92" transform="matrix(0.819, 0.574, -0.574, 0.819, 270.197, 9309.187)">
        <g id="Group_26-5" data-name="Group 26" transform="translate(0 0)">
          <path id="Path_47-8" data-name="Path 47" d="M46.223,1651.911s.95-2.139,3.812-17.4c2.81-15.447,9.668-43.68,31.2-48.738,20.667-4.855,46.673,1.563,68.606,19.484a89.357,89.357,0,0,1,20.1,24.09c20.231,35.015,9.338,72.366-7.781,96.488s-59.138,0-59.138,0,1.484,2.979,2.321,2.091c5.145,4.608,40.628,37.995,30.361,61.715-11.283,26.067-40.657,42.407-82.481,45.131s-69.642-7-84.816-34.237,24.122-74.7,24.122-74.7-.528.159-8.715,3.544c-12.812,4.93-45.878,15.336-60.538,1.125-19.064-18.481-21.009-45.715-7-78.591S-48.514,1609.5-20.7,1599c12.685-4.79,35.984-1.743,49.8,12.451C42.919,1625.611,46.223,1651.911,46.223,1651.911Z" transform="translate(92.851 -1584.205)" fill="none" stroke="#6baf45" stroke-width="30"/>
          <path id="Path_48-8" data-name="Path 48" d="M122.957,70.88s2.784-3.6,5.416-17.533c2.585-14.1,11.934-47.3,31.741-51.917,19.007-4.432,42.926,1.428,63.1,17.785A81.747,81.747,0,0,1,241.7,41.2c18.607,31.964,8.588,66.058-7.157,88.078s-63.91-12.094-63.91-12.094,4.013,9.446,4.783,8.637c4.732,4.206,44.238,40.049,34.795,61.7-10.377,23.793-37.393,38.71-75.86,41.2S70.3,222.33,56.344,197.47s41.2-83.638,41.2-83.638-1.13.329-8.66,3.42c-11.783,4.5-60.569,29.264-74.053,16.292C-2.7,116.674-4.487,91.815,8.394,61.8S40.778,23.093,66.363,13.5c11.667-4.373,33.1-1.59,45.8,11.365C124.871,37.8,122.957,70.88,122.957,70.88Z" transform="matrix(1, 0.017, -0.017, 1, 15.746, 9.679)" fill="none" stroke="#89c63d" stroke-width="20"/>
        </g>
      </g>
      <g id="Group_93" data-name="Group 93" transform="matrix(-0.996, -0.087, 0.087, -0.996, 255.61, 12092.944)">
        <path id="Path_47-9" data-name="Path 47" d="M117.619,1686.67s1.438-3.238,5.769-26.336c4.253-23.378,14.631-66.1,47.222-73.759,31.276-7.347,70.634,2.368,103.825,29.486,10.445,8.49,21.633,21.249,30.42,36.458,30.617,52.991,14.131,109.516-11.776,146.021s-89.5,0-89.5,0,2.245,4.508,3.512,3.164c7.787,6.974,61.485,57.5,45.946,93.4-17.075,39.449-61.529,64.179-124.824,68.3S22.823,1952.806-.14,1911.59s36.505-113.049,36.505-113.049-.8.238-13.189,5.362c-19.389,7.461-69.43,23.21-91.617,1.7-28.851-27.968-31.795-69.184-10.6-118.937s53.286-64.18,95.385-80.076c19.2-7.25,54.457-2.637,75.366,18.843C112.619,1646.868,117.619,1686.67,117.619,1686.67Z" transform="translate(68 -231.001)" fill="none" stroke="#ffd328" stroke-width="30"/>
        <path id="Path_48-9" data-name="Path 48" d="M186.078,107.268s4.213-5.45,8.2-26.534c3.912-21.339,18.061-71.582,48.036-78.569,28.765-6.708,64.963,2.161,95.49,26.915,9.606,7.751,19.9,19.4,27.978,33.279,28.159,48.373,13,99.971-10.831,133.293s-96.72-18.3-96.72-18.3,6.073,14.295,7.238,13.069c7.161,6.366,66.948,60.608,52.657,93.378-15.7,36.007-56.589,58.583-114.8,62.347s-96.933-9.676-118.053-47.3S147.625,172.27,147.625,172.27s-1.71.5-13.105,5.177c-17.832,6.812-91.663,44.287-112.068,24.655C-4.083,176.57-6.791,138.949,12.7,93.533s49.008-58.584,87.727-73.1c17.656-6.616,50.085-2.406,69.315,17.2C188.975,57.2,186.078,107.268,186.078,107.268Z" transform="matrix(1, 0.017, -0.017, 1, -1.022, 1367.852)" fill="none" stroke="#f5f676" stroke-width="20"/>
      </g>
      <g id="Group_94" data-name="Group 94" transform="matrix(-0.996, -0.087, 0.087, -0.996, -102.004, 11680.343)">
        <path id="Path_47-10" data-name="Path 47" d="M117.619,1686.67s1.438-3.238,5.769-26.336c4.253-23.378,14.631-66.1,47.222-73.759,31.276-7.347,70.634,2.368,103.825,29.486,10.445,8.49,21.633,21.249,30.42,36.458,30.617,52.991,14.131,109.516-11.776,146.021s-89.5,0-89.5,0,2.245,4.508,3.512,3.164c7.787,6.974,61.485,57.5,45.946,93.4-17.075,39.449-61.529,64.179-124.824,68.3S22.823,1952.806-.14,1911.59s36.505-113.049,36.505-113.049-.8.238-13.189,5.362c-19.389,7.461-69.43,23.21-91.617,1.7-28.851-27.968-31.795-69.184-10.6-118.937s53.286-64.18,95.385-80.076c19.2-7.25,54.457-2.637,75.366,18.843C112.619,1646.868,117.619,1686.67,117.619,1686.67Z" transform="translate(68 -231.001)" fill="none" stroke="#ffd328" stroke-width="30"/>
        <path id="Path_48-10" data-name="Path 48" d="M186.078,107.268s4.213-5.45,8.2-26.534c3.912-21.339,18.061-71.582,48.036-78.569,28.765-6.708,64.963,2.161,95.49,26.915,9.606,7.751,19.9,19.4,27.978,33.279,28.159,48.373,13,99.971-10.831,133.293s-96.72-18.3-96.72-18.3,6.073,14.295,7.238,13.069c7.161,6.366,66.948,60.608,52.657,93.378-15.7,36.007-56.589,58.583-114.8,62.347s-96.933-9.676-118.053-47.3S147.625,172.27,147.625,172.27s-1.71.5-13.105,5.177c-17.832,6.812-91.663,44.287-112.068,24.655C-4.083,176.57-6.791,138.949,12.7,93.533s49.008-58.584,87.727-73.1c17.656-6.616,50.085-2.406,69.315,17.2C188.975,57.2,186.078,107.268,186.078,107.268Z" transform="matrix(1, 0.017, -0.017, 1, -1.022, 1367.852)" fill="none" stroke="#f5f676" stroke-width="20"/>
      </g>
      <g id="Group_95" data-name="Group 95" transform="matrix(-0.996, -0.087, 0.087, -0.996, 66.782, 11168.104)">
        <path id="Path_47-11" data-name="Path 47" d="M117.619,1686.67s1.438-3.238,5.769-26.336c4.253-23.378,14.631-66.1,47.222-73.759,31.276-7.347,70.634,2.368,103.825,29.486,10.445,8.49,21.633,21.249,30.42,36.458,30.617,52.991,14.131,109.516-11.776,146.021s-89.5,0-89.5,0,2.245,4.508,3.512,3.164c7.787,6.974,61.485,57.5,45.946,93.4-17.075,39.449-61.529,64.179-124.824,68.3S22.823,1952.806-.14,1911.59s36.505-113.049,36.505-113.049-.8.238-13.189,5.362c-19.389,7.461-69.43,23.21-91.617,1.7-28.851-27.968-31.795-69.184-10.6-118.937s53.286-64.18,95.385-80.076c19.2-7.25,54.457-2.637,75.366,18.843C112.619,1646.868,117.619,1686.67,117.619,1686.67Z" transform="translate(68 -231.001)" fill="none" stroke="#ffd328" stroke-width="30"/>
        <path id="Path_48-11" data-name="Path 48" d="M186.078,107.268s4.213-5.45,8.2-26.534c3.912-21.339,18.061-71.582,48.036-78.569,28.765-6.708,64.963,2.161,95.49,26.915,9.606,7.751,19.9,19.4,27.978,33.279,28.159,48.373,13,99.971-10.831,133.293s-96.72-18.3-96.72-18.3,6.073,14.295,7.238,13.069c7.161,6.366,66.948,60.608,52.657,93.378-15.7,36.007-56.589,58.583-114.8,62.347s-96.933-9.676-118.053-47.3S147.625,172.27,147.625,172.27s-1.71.5-13.105,5.177c-17.832,6.812-91.663,44.287-112.068,24.655C-4.083,176.57-6.791,138.949,12.7,93.533s49.008-58.584,87.727-73.1c17.656-6.616,50.085-2.406,69.315,17.2C188.975,57.2,186.078,107.268,186.078,107.268Z" transform="matrix(1, 0.017, -0.017, 1, -1.022, 1367.852)" fill="none" stroke="#f5f676" stroke-width="20"/>
      </g>
      <g id="Group_96" data-name="Group 96" transform="matrix(-0.996, -0.087, 0.087, -0.996, 763.676, 15005.74)">
        <ellipse id="Ellipse_112-3" data-name="Ellipse 112" cx="67" cy="72.5" rx="67" ry="72.5" transform="translate(1208 4379)" fill="#629948"/>
        <circle id="Ellipse_113-3" data-name="Ellipse 113" cx="27.5" cy="27.5" r="27.5" transform="translate(1247 4390)"/>
      </g>
      <g id="Group_97" data-name="Group 97" transform="matrix(-0.996, -0.087, 0.087, -0.996, 1230.934, 14392.131)">
        <ellipse id="Ellipse_108-3" data-name="Ellipse 108" cx="47" cy="57.5" rx="47" ry="57.5" transform="translate(1327 4379)" fill="#78993e"/>
        <circle id="Ellipse_109-3" data-name="Ellipse 109" cx="20" cy="20" r="20" transform="translate(1346 4446)"/>
      </g>
      <g id="Group_98" data-name="Group 98" transform="matrix(-0.996, -0.087, 0.087, -0.996, 1298.754, 14741.369)">
        <ellipse id="Ellipse_110-3" data-name="Ellipse 110" cx="58.5" cy="47.5" rx="58.5" ry="47.5" transform="translate(1453 4359)" fill="#373332"/>
        <ellipse id="Ellipse_111-3" data-name="Ellipse 111" cx="20" cy="19.5" rx="20" ry="19.5" transform="translate(1461 4375)"/>
      </g>
      <g id="Group_99" data-name="Group 99" transform="matrix(-0.996, -0.087, 0.087, -0.996, 968.07, 14355.635)">
        <ellipse id="Ellipse_114-3" data-name="Ellipse 114" cx="55.5" cy="41.5" rx="55.5" ry="41.5" transform="translate(1551.955 4358.553)" fill="#504f4d"/>
        <ellipse id="Ellipse_115-3" data-name="Ellipse 115" cx="20" cy="19.5" rx="20" ry="19.5" transform="translate(1614.955 4390.553)"/>
      </g>
      <g id="Group_100" data-name="Group 100" transform="matrix(-0.996, -0.087, 0.087, -0.996, 1073.325, 14529.918)">
        <ellipse id="Ellipse_108-4" data-name="Ellipse 108" cx="47" cy="57.5" rx="47" ry="57.5" transform="translate(1327 4379)" fill="#78993e"/>
        <circle id="Ellipse_109-4" data-name="Ellipse 109" cx="20" cy="20" r="20" transform="translate(1346 4446)"/>
      </g>
      <g id="Group_101" data-name="Group 101" transform="matrix(-0.996, -0.087, 0.087, -0.996, 865.409, 14703.457)">
        <ellipse id="Ellipse_110-4" data-name="Ellipse 110" cx="58.5" cy="47.5" rx="58.5" ry="47.5" transform="translate(1453 4359)" fill="#373332"/>
        <ellipse id="Ellipse_111-4" data-name="Ellipse 111" cx="20" cy="19.5" rx="20" ry="19.5" transform="translate(1461 4375)"/>
      </g>
      <g id="Group_102" data-name="Group 102" transform="matrix(-0.996, -0.087, 0.087, -0.996, 1147.772, 13977.303)">
        <ellipse id="Ellipse_112-4" data-name="Ellipse 112" cx="67" cy="72.5" rx="67" ry="72.5" transform="translate(1208 4379)" fill="#629948"/>
        <circle id="Ellipse_113-4" data-name="Ellipse 113" cx="27.5" cy="27.5" r="27.5" transform="translate(1247 4390)"/>
      </g>
      <g id="Group_103" data-name="Group 103" transform="matrix(-0.996, -0.087, 0.087, -0.996, 1285.168, 15274.768)">
        <ellipse id="Ellipse_114-4" data-name="Ellipse 114" cx="55.5" cy="41.5" rx="55.5" ry="41.5" transform="translate(1551.955 4358.553)" fill="#504f4d"/>
        <ellipse id="Ellipse_115-4" data-name="Ellipse 115" cx="20" cy="19.5" rx="20" ry="19.5" transform="translate(1614.955 4390.553)"/>
      </g>
      <g id="Group_104" data-name="Group 104" transform="matrix(-0.996, -0.087, 0.087, -0.996, -56.012, 11134.16)">
        <path id="Path_49-6" data-name="Path 49" d="M123.744,1672.547c.308-3.1,11.024-47.4,24.5-65.165s29.4-5.879,29.4-5.879,22.905,9.309,33.317,21.558,13.229,16.169,8.329,27.438-47.728,47.051-47.526,50.954c-.05.192,21.632-1.781,34.371,1.771s14.166,7.721,16.584,12.438,2.946,15.406-3.43,24.008-17.5,26.676-44.1,33.317-35.335,2.857-56.811-3.784-44.477-30.72-54.9-48.151-8.612-22.559-8.329-42.626,6.058-24.488,16.169-35.276,22.916-5.423,27.927-4.41c0,0,9.18,7.867,15.3,16.319A74.368,74.368,0,0,1,123.744,1672.547Z" transform="translate(85 -218)" fill="#e8c67e"/>
        <path id="Path_50-6" data-name="Path 50" d="M90.96,1646.547s-5.212-19.859-11.217-29.822-8.874-12.206-12.8-10.028-10.095,5.607-4.091,15.57S90.96,1646.547,90.96,1646.547Z" transform="translate(113.078 -175.444)" fill="#846e3d"/>
        <path id="Path_51-6" data-name="Path 51" d="M71.572,1617.523s19.6-1.915,32.2-1.452,17.353-.528,18.21,3.3-2.177,12.471-14.779,12.008S71.572,1617.523,71.572,1617.523Z" transform="translate(170.47 -123.986)" fill="#846e3d"/>
      </g>
      <g id="Group_105" data-name="Group 105" transform="translate(-1479.129 9819.93) rotate(-65)">
        <path id="Path_49-7" data-name="Path 49" d="M123.744,1672.547c.308-3.1,11.024-47.4,24.5-65.165s29.4-5.879,29.4-5.879,22.905,9.309,33.317,21.558,13.229,16.169,8.329,27.438-47.728,47.051-47.526,50.954c-.05.192,21.632-1.781,34.371,1.771s14.166,7.721,16.584,12.438,2.946,15.406-3.43,24.008-17.5,26.676-44.1,33.317-35.335,2.857-56.811-3.784-44.477-30.72-54.9-48.151-8.612-22.559-8.329-42.626,6.058-24.488,16.169-35.276,22.916-5.423,27.927-4.41c0,0,9.18,7.867,15.3,16.319A74.368,74.368,0,0,1,123.744,1672.547Z" transform="translate(85 -218)" fill="#e8c67e"/>
        <path id="Path_50-7" data-name="Path 50" d="M90.96,1646.547s-5.212-19.859-11.217-29.822-8.874-12.206-12.8-10.028-10.095,5.607-4.091,15.57S90.96,1646.547,90.96,1646.547Z" transform="translate(113.078 -175.444)" fill="#846e3d"/>
        <path id="Path_51-7" data-name="Path 51" d="M71.572,1617.523s19.6-1.915,32.2-1.452,17.353-.528,18.21,3.3-2.177,12.471-14.779,12.008S71.572,1617.523,71.572,1617.523Z" transform="translate(170.47 -123.986)" fill="#846e3d"/>
      </g>
      <g id="Group_106" data-name="Group 106" transform="translate(1356.87 10968.21) rotate(111)">
        <path id="Path_49-8" data-name="Path 49" d="M123.744,1672.547c.308-3.1,11.024-47.4,24.5-65.165s29.4-5.879,29.4-5.879,22.905,9.309,33.317,21.558,13.229,16.169,8.329,27.438-47.728,47.051-47.526,50.954c-.05.192,21.632-1.781,34.371,1.771s14.166,7.721,16.584,12.438,2.946,15.406-3.43,24.008-17.5,26.676-44.1,33.317-35.335,2.857-56.811-3.784-44.477-30.72-54.9-48.151-8.612-22.559-8.329-42.626,6.058-24.488,16.169-35.276,22.916-5.423,27.927-4.41c0,0,9.18,7.867,15.3,16.319A74.368,74.368,0,0,1,123.744,1672.547Z" transform="translate(85 -218)" fill="#e8c67e"/>
        <path id="Path_50-8" data-name="Path 50" d="M90.96,1646.547s-5.212-19.859-11.217-29.822-8.874-12.206-12.8-10.028-10.095,5.607-4.091,15.57S90.96,1646.547,90.96,1646.547Z" transform="translate(113.078 -175.444)" fill="#846e3d"/>
        <path id="Path_51-8" data-name="Path 51" d="M71.572,1617.523s19.6-1.915,32.2-1.452,17.353-.528,18.21,3.3-2.177,12.471-14.779,12.008S71.572,1617.523,71.572,1617.523Z" transform="translate(170.47 -123.986)" fill="#846e3d"/>
      </g>
      <g id="Group_107" data-name="Group 107" transform="matrix(-0.996, -0.087, 0.087, -0.996, 380.905, 12274.288)">
        <path id="Path_49-9" data-name="Path 49" d="M123.744,1672.547c.308-3.1,11.024-47.4,24.5-65.165s29.4-5.879,29.4-5.879,22.905,9.309,33.317,21.558,13.229,16.169,8.329,27.438-47.728,47.051-47.526,50.954c-.05.192,21.632-1.781,34.371,1.771s14.166,7.721,16.584,12.438,2.946,15.406-3.43,24.008-17.5,26.676-44.1,33.317-35.335,2.857-56.811-3.784-44.477-30.72-54.9-48.151-8.612-22.559-8.329-42.626,6.058-24.488,16.169-35.276,22.916-5.423,27.927-4.41c0,0,9.18,7.867,15.3,16.319A74.368,74.368,0,0,1,123.744,1672.547Z" transform="translate(85 -218)" fill="#e8c67e"/>
        <path id="Path_50-9" data-name="Path 50" d="M90.96,1646.547s-5.212-19.859-11.217-29.822-8.874-12.206-12.8-10.028-10.095,5.607-4.091,15.57S90.96,1646.547,90.96,1646.547Z" transform="translate(113.078 -175.444)" fill="#846e3d"/>
        <path id="Path_51-9" data-name="Path 51" d="M71.572,1617.523s19.6-1.915,32.2-1.452,17.353-.528,18.21,3.3-2.177,12.471-14.779,12.008S71.572,1617.523,71.572,1617.523Z" transform="translate(170.47 -123.986)" fill="#846e3d"/>
      </g>
      <g id="Group_108" data-name="Group 108" transform="matrix(-0.375, 0.927, -0.927, -0.375, 1766.826, 10410.382)">
        <path id="Path_49-10" data-name="Path 49" d="M123.744,1672.547c.308-3.1,11.024-47.4,24.5-65.165s29.4-5.879,29.4-5.879,22.905,9.309,33.317,21.558,13.229,16.169,8.329,27.438-47.728,47.051-47.526,50.954c-.05.192,21.632-1.781,34.371,1.771s14.166,7.721,16.584,12.438,2.946,15.406-3.43,24.008-17.5,26.676-44.1,33.317-35.335,2.857-56.811-3.784-44.477-30.72-54.9-48.151-8.612-22.559-8.329-42.626,6.058-24.488,16.169-35.276,22.916-5.423,27.927-4.41c0,0,9.18,7.867,15.3,16.319A74.368,74.368,0,0,1,123.744,1672.547Z" transform="translate(85 -218)" fill="#e8c67e"/>
        <path id="Path_50-10" data-name="Path 50" d="M90.96,1646.547s-5.212-19.859-11.217-29.822-8.874-12.206-12.8-10.028-10.095,5.607-4.091,15.57S90.96,1646.547,90.96,1646.547Z" transform="translate(113.078 -175.444)" fill="#846e3d"/>
        <path id="Path_51-10" data-name="Path 51" d="M71.572,1617.523s19.6-1.915,32.2-1.452,17.353-.528,18.21,3.3-2.177,12.471-14.779,12.008S71.572,1617.523,71.572,1617.523Z" transform="translate(170.47 -123.986)" fill="#846e3d"/>
      </g>
      <g id="Group_109" data-name="Group 109" transform="matrix(-0.996, -0.087, 0.087, -0.996, 541.07, 10046.333)">
        <g id="Ellipse_116-7" data-name="Ellipse 116" transform="translate(0 -0.134)" fill="none" stroke="#6a518a" stroke-width="10">
          <circle cx="194.5" cy="194.5" r="194.5" stroke="none"/>
          <circle cx="194.5" cy="194.5" r="189.5" fill="none"/>
        </g>
        <g id="Path_52-7" data-name="Path 52" transform="translate(6.824 6.705)" fill="none">
          <path d="M187.668,0C291.314,0,375.336,84.022,375.336,187.668S291.314,375.336,187.668,375.336,0,291.314,0,187.668,84.022,0,187.668,0Z" stroke="none"/>
          <path d="M 187.6678161621094 29.99996948242188 C 100.7295227050781 29.99996948242188 29.99996948242188 100.7294921875 29.99996948242188 187.6678009033203 C 29.99996948242188 274.6061096191406 100.7295227050781 345.3355712890625 187.6678161621094 345.3355712890625 C 274.6061401367188 345.3355712890625 345.3355712890625 274.6061096191406 345.3355712890625 187.6678009033203 C 345.3355712890625 100.7294921875 274.6061401367188 29.99996948242188 187.6678161621094 29.99996948242188 M 187.6678161621094 -3.0517578125e-05 C 291.3139038085938 -3.0517578125e-05 375.3355712890625 84.021728515625 375.3355712890625 187.6678009033203 C 375.3355712890625 291.3138122558594 291.3139038085938 375.3355712890625 187.6678161621094 375.3355712890625 C 84.021728515625 375.3355712890625 -3.0517578125e-05 291.3138122558594 -3.0517578125e-05 187.6678009033203 C -3.0517578125e-05 84.021728515625 84.021728515625 -3.0517578125e-05 187.6678161621094 -3.0517578125e-05 Z" stroke="none" fill="#f3e9f0"/>
        </g>
      </g>
      <g id="Group_110" data-name="Group 110" transform="matrix(-0.996, -0.087, 0.087, -0.996, -70.575, 10531.872)">
        <g id="Ellipse_116-8" data-name="Ellipse 116" transform="translate(0 -0.134)" fill="none" stroke="#6a518a" stroke-width="10">
          <circle cx="194.5" cy="194.5" r="194.5" stroke="none"/>
          <circle cx="194.5" cy="194.5" r="189.5" fill="none"/>
        </g>
        <g id="Path_52-8" data-name="Path 52" transform="translate(6.824 6.705)" fill="none">
          <path d="M187.668,0C291.314,0,375.336,84.022,375.336,187.668S291.314,375.336,187.668,375.336,0,291.314,0,187.668,84.022,0,187.668,0Z" stroke="none"/>
          <path d="M 187.6678161621094 29.99996948242188 C 100.7295227050781 29.99996948242188 29.99996948242188 100.7294921875 29.99996948242188 187.6678009033203 C 29.99996948242188 274.6061096191406 100.7295227050781 345.3355712890625 187.6678161621094 345.3355712890625 C 274.6061401367188 345.3355712890625 345.3355712890625 274.6061096191406 345.3355712890625 187.6678009033203 C 345.3355712890625 100.7294921875 274.6061401367188 29.99996948242188 187.6678161621094 29.99996948242188 M 187.6678161621094 -3.0517578125e-05 C 291.3139038085938 -3.0517578125e-05 375.3355712890625 84.021728515625 375.3355712890625 187.6678009033203 C 375.3355712890625 291.3138122558594 291.3139038085938 375.3355712890625 187.6678161621094 375.3355712890625 C 84.021728515625 375.3355712890625 -3.0517578125e-05 291.3138122558594 -3.0517578125e-05 187.6678009033203 C -3.0517578125e-05 84.021728515625 84.021728515625 -3.0517578125e-05 187.6678161621094 -3.0517578125e-05 Z" stroke="none" fill="#f3e9f0"/>
        </g>
      </g>
      <g id="Group_111" data-name="Group 111" transform="matrix(-0.996, -0.087, 0.087, -0.996, 371.648, 10571.565)">
        <g id="Ellipse_116-9" data-name="Ellipse 116" transform="translate(0 -0.134)" fill="none" stroke="#6a518a" stroke-width="10">
          <circle cx="138.5" cy="138.5" r="138.5" stroke="none"/>
          <circle cx="138.5" cy="138.5" r="133.5" fill="none"/>
        </g>
        <g id="Path_52-9" data-name="Path 52" transform="translate(4.859 4.736)" fill="none">
          <path d="M133.635,0A133.635,133.635,0,1,1,0,133.635,133.635,133.635,0,0,1,133.635,0Z" stroke="none"/>
          <path d="M 133.6349182128906 29.99996948242188 C 76.49041748046875 29.99996948242188 29.99998474121094 76.49040222167969 29.99998474121094 133.6349029541016 C 29.99998474121094 190.7793426513672 76.49041748046875 237.269775390625 133.6349182128906 237.269775390625 C 190.7794189453125 237.269775390625 237.2698516845703 190.7793426513672 237.2698516845703 133.6349029541016 C 237.2698516845703 76.49040222167969 190.7794189453125 29.99996948242188 133.6349182128906 29.99996948242188 M 133.6349182128906 -3.0517578125e-05 C 207.4394226074219 -3.0517578125e-05 267.2698669433594 59.83039855957031 267.2698669433594 133.6349029541016 C 267.2698669433594 207.4394073486328 207.4394226074219 267.269775390625 133.6349182128906 267.269775390625 C 59.83041381835938 267.269775390625 -3.0517578125e-05 207.4394073486328 -3.0517578125e-05 133.6349029541016 C -3.0517578125e-05 59.83039855957031 59.83041381835938 -3.0517578125e-05 133.6349182128906 -3.0517578125e-05 Z" stroke="none" fill="#f3e9f0"/>
        </g>
      </g>
      <g id="Group_112" data-name="Group 112" transform="matrix(-0.996, -0.087, 0.087, -0.996, 55.667, 9915.027)">
        <g id="Ellipse_116-10" data-name="Ellipse 116" transform="translate(0 0.366)" fill="none" stroke="#6a518a" stroke-width="10">
          <ellipse cx="122.5" cy="122" rx="122.5" ry="122" stroke="none"/>
          <ellipse cx="122.5" cy="122" rx="117.5" ry="117" fill="none"/>
        </g>
        <g id="Path_52-10" data-name="Path 52" transform="translate(4.289 4.165)" fill="none">
          <path d="M117.956,0A117.956,117.956,0,1,1,0,117.956,117.956,117.956,0,0,1,117.956,0Z" stroke="none"/>
          <path d="M 117.9557495117188 29.99998474121094 C 69.45675659179688 29.99998474121094 29.99998474121094 69.45674133300781 29.99998474121094 117.9557418823242 C 29.99998474121094 166.4547424316406 69.45675659179688 205.9114990234375 117.9557495117188 205.9114990234375 C 166.4547424316406 205.9114990234375 205.9115142822266 166.4547424316406 205.9115142822266 117.9557418823242 C 205.9115142822266 69.45674133300781 166.4547424316406 29.99998474121094 117.9557495117188 29.99998474121094 M 117.9557495117188 -1.52587890625e-05 C 183.1009216308594 -1.52587890625e-05 235.9115142822266 52.81056213378906 235.9115142822266 117.9557418823242 C 235.9115142822266 183.1008605957031 183.1009216308594 235.9114990234375 117.9557495117188 235.9114990234375 C 52.81057739257813 235.9114990234375 -1.52587890625e-05 183.1008605957031 -1.52587890625e-05 117.9557418823242 C -1.52587890625e-05 52.81056213378906 52.81057739257813 -1.52587890625e-05 117.9557495117188 -1.52587890625e-05 Z" stroke="none" fill="#f3e9f0"/>
        </g>
      </g>
      <g id="Group_113" data-name="Group 113" transform="matrix(-0.996, -0.087, 0.087, -0.996, 224.331, 9593.504)">
        <g id="Ellipse_116-11" data-name="Ellipse 116" transform="translate(0 -0.634)" fill="none" stroke="#6a518a" stroke-width="10">
          <circle cx="122.5" cy="122.5" r="122.5" stroke="none"/>
          <circle cx="122.5" cy="122.5" r="117.5" fill="none"/>
        </g>
        <g id="Path_52-11" data-name="Path 52" transform="translate(4.289 4.165)" fill="none">
          <path d="M117.956,0A117.956,117.956,0,1,1,0,117.956,117.956,117.956,0,0,1,117.956,0Z" stroke="none"/>
          <path d="M 117.9557495117188 29.99998474121094 C 69.45675659179688 29.99998474121094 29.99998474121094 69.45674133300781 29.99998474121094 117.9557418823242 C 29.99998474121094 166.4547424316406 69.45675659179688 205.9114990234375 117.9557495117188 205.9114990234375 C 166.4547424316406 205.9114990234375 205.9115142822266 166.4547424316406 205.9115142822266 117.9557418823242 C 205.9115142822266 69.45674133300781 166.4547424316406 29.99998474121094 117.9557495117188 29.99998474121094 M 117.9557495117188 -1.52587890625e-05 C 183.1009216308594 -1.52587890625e-05 235.9115142822266 52.81056213378906 235.9115142822266 117.9557418823242 C 235.9115142822266 183.1008605957031 183.1009216308594 235.9114990234375 117.9557495117188 235.9114990234375 C 52.81057739257813 235.9114990234375 -1.52587890625e-05 183.1008605957031 -1.52587890625e-05 117.9557418823242 C -1.52587890625e-05 52.81056213378906 52.81057739257813 -1.52587890625e-05 117.9557495117188 -1.52587890625e-05 Z" stroke="none" fill="#f3e9f0"/>
        </g>
      </g>
      <g id="Group_114" data-name="Group 114" transform="matrix(-0.996, -0.087, 0.087, -0.996, 88.545, 10812.81)">
        <g id="Ellipse_116-12" data-name="Ellipse 116" transform="translate(0 -0.134)" fill="none" stroke="#6a518a" stroke-width="10">
          <circle cx="144.5" cy="144.5" r="144.5" stroke="none"/>
          <circle cx="144.5" cy="144.5" r="139.5" fill="none"/>
        </g>
        <g id="Path_52-12" data-name="Path 52" transform="translate(5.07 4.947)" fill="none">
          <path d="M139.424,0A139.424,139.424,0,1,1,0,139.424,139.424,139.424,0,0,1,139.424,0Z" stroke="none"/>
          <path d="M 139.4241638183594 30.00001525878906 C 79.08743286132813 30.00001525878906 29.99996948242188 79.08747863769531 29.99996948242188 139.4241485595703 C 29.99996948242188 199.7608184814453 79.08743286132813 248.8482818603516 139.4241638183594 248.8482818603516 C 199.7608337402344 248.8482818603516 248.8482971191406 199.7608184814453 248.8482971191406 139.4241485595703 C 248.8482971191406 79.08747863769531 199.7608337402344 30.00001525878906 139.4241638183594 30.00001525878906 M 139.4241638183594 0 C 216.4259643554688 0 278.8482971191406 62.42228698730469 278.8482971191406 139.4241485595703 C 278.8482971191406 216.4259490966797 216.4259643554688 278.8482971191406 139.4241638183594 278.8482971191406 C 62.42230224609375 278.8482971191406 -3.0517578125e-05 216.4259490966797 -3.0517578125e-05 139.4241485595703 C -3.0517578125e-05 62.42228698730469 62.42230224609375 0 139.4241638183594 0 Z" stroke="none" fill="#f3e9f0"/>
        </g>
      </g>
      <g id="Group_115" data-name="Group 115" transform="matrix(-0.996, -0.087, 0.087, -0.996, -121.564, 10122.611)">
        <g id="Group_26-6" data-name="Group 26" transform="translate(0 0)">
          <path id="Path_47-12" data-name="Path 47" d="M101.358,1678.588s1.327-2.986,5.323-24.3c3.924-21.571,13.5-61,43.574-68.059,28.86-6.78,63.975,3.881,94.6,28.9,9.638,7.834,21.163,17.911,29.271,31.944,28.252,48.9,13.039,101.055-10.866,134.74s-82.582,0-82.582,0,2.072,4.16,3.241,2.92c7.185,6.435,56.734,53.057,42.4,86.182-15.756,36.4-56.775,59.22-115.181,63.023s-97.252-9.778-118.44-47.81,33.685-104.316,33.685-104.316-.737.221-12.17,4.948c-17.891,6.885-64.066,21.416-84.538,1.572-26.622-25.807-29.338-63.839-9.78-109.748s49.169-59.219,88.015-73.888c17.714-6.69,50.249-2.434,69.543,17.387C96.745,1641.862,101.358,1678.588,101.358,1678.588Z" transform="translate(92.851 -1584.228)" fill="none" stroke="#cc2522" stroke-width="30"/>
          <path id="Path_48-12" data-name="Path 48" d="M171.7,98.98s3.888-5.029,7.563-24.484C182.875,54.8,195.931,8.445,223.59,2c26.543-6.19,59.944,1.994,88.113,24.836A114.155,114.155,0,0,1,337.52,57.54c25.984,44.637,11.993,92.247-9.994,123s-89.247-16.888-89.247-16.888,5.6,13.191,6.679,12.061c6.608,5.874,61.776,55.926,48.589,86.163-14.491,33.225-52.217,54.057-105.934,57.53s-89.444-8.929-108.932-43.645,57.539-116.8,57.539-116.8-1.578.46-12.093,4.776c-16.455,6.286-84.581,40.866-103.41,22.751-24.485-23.558-26.983-58.273-8.995-100.18s45.222-54.058,80.95-67.448c16.292-6.106,46.215-2.221,63.96,15.87C174.375,52.781,171.7,98.98,171.7,98.98Z" transform="matrix(1, 0.017, -0.017, 1, 21.988, 13.329)" fill="none" stroke="#db2023" stroke-width="20"/>
        </g>
      </g>
      <g id="Group_116" data-name="Group 116" transform="translate(52.993 10621.804) rotate(-140)">
        <g id="Group_26-7" data-name="Group 26" transform="translate(0 0)">
          <path id="Path_47-13" data-name="Path 47" d="M50.6,1653.927s.98-2.206,3.932-17.949c2.9-15.933,9.972-45.055,32.186-50.272,21.317-5.008,47.255,2.867,69.878,21.35,7.119,5.787,15.632,13.23,21.621,23.6,20.868,36.118,9.631,74.644-8.026,99.525s-61,0-61,0,1.53,3.073,2.394,2.157c5.307,4.753,41.907,39.19,31.316,63.657-11.638,26.888-41.937,43.742-85.077,46.552s-71.834-7.223-87.485-35.314,24.881-77.052,24.881-77.052-.545.163-8.989,3.655c-13.215,5.086-47.322,15.819-62.444,1.161-19.664-19.062-21.671-47.154-7.224-81.065s36.318-43.742,65.012-54.577c13.084-4.941,37.116-1.8,51.367,12.843C47.193,1626.8,50.6,1653.927,50.6,1653.927Z" transform="translate(92.851 -1584.228)" fill="none" stroke="#cc2522" stroke-width="30"/>
          <path id="Path_48-13" data-name="Path 48" d="M126.827,73.111s2.872-3.715,5.587-18.085c2.666-14.545,12.31-48.788,32.74-53.551C184.759-3.1,209.431,2.947,230.237,19.82A84.32,84.32,0,0,1,249.307,42.5c19.193,32.97,8.858,68.137-7.382,90.85S176,120.877,176,120.877s4.139,9.743,4.934,8.908c4.881,4.339,45.63,41.309,35.89,63.644-10.7,24.542-38.57,39.929-78.247,42.494s-66.067-6.6-80.462-32.238,42.5-86.27,42.5-86.27-1.166.34-8.932,3.528c-12.154,4.643-62.475,30.185-76.383,16.8-18.085-17.4-19.931-43.043-6.644-74s33.4-39.93,59.793-49.82c12.034-4.51,34.137-1.64,47.244,11.722C128.8,38.986,126.827,73.111,126.827,73.111Z" transform="matrix(1, 0.017, -0.017, 1, 16.241, 9.845)" fill="none" stroke="#db2023" stroke-width="20"/>
        </g>
      </g>
      <g id="Group_117" data-name="Group 117" transform="matrix(-0.996, -0.087, 0.087, -0.996, 230.132, 9860.229)">
        <g id="Group_26-8" data-name="Group 26" transform="translate(0 0)">
          <path id="Path_47-14" data-name="Path 47" d="M46.223,1651.911s.95-2.139,3.812-17.4c2.81-15.447,9.668-43.68,31.2-48.738,20.667-4.855,46.673,1.563,68.606,19.484a89.357,89.357,0,0,1,20.1,24.09c20.231,35.015,9.338,72.366-7.781,96.488s-59.138,0-59.138,0,1.484,2.979,2.321,2.091c5.145,4.608,40.628,37.995,30.361,61.715-11.283,26.067-40.657,42.407-82.481,45.131s-69.642-7-84.816-34.237,24.122-74.7,24.122-74.7-.528.159-8.715,3.544c-12.812,4.93-45.878,15.336-60.538,1.125-19.064-18.481-21.009-45.715-7-78.591S-48.514,1609.5-20.7,1599c12.685-4.79,35.984-1.743,49.8,12.451C42.919,1625.611,46.223,1651.911,46.223,1651.911Z" transform="translate(92.851 -1584.205)" fill="none" stroke="#6baf45" stroke-width="30"/>
          <path id="Path_48-14" data-name="Path 48" d="M122.957,70.88s2.784-3.6,5.416-17.533c2.585-14.1,11.934-47.3,31.741-51.917,19.007-4.432,42.926,1.428,63.1,17.785A81.747,81.747,0,0,1,241.7,41.2c18.607,31.964,8.588,66.058-7.157,88.078s-63.91-12.094-63.91-12.094,4.013,9.446,4.783,8.637c4.732,4.206,44.238,40.049,34.795,61.7-10.377,23.793-37.393,38.71-75.86,41.2S70.3,222.33,56.344,197.47s41.2-83.638,41.2-83.638-1.13.329-8.66,3.42c-11.783,4.5-60.569,29.264-74.053,16.292C-2.7,116.674-4.487,91.815,8.394,61.8S40.778,23.093,66.363,13.5c11.667-4.373,33.1-1.59,45.8,11.365C124.871,37.8,122.957,70.88,122.957,70.88Z" transform="matrix(1, 0.017, -0.017, 1, 15.746, 9.679)" fill="none" stroke="#89c63d" stroke-width="20"/>
        </g>
      </g>
      <g id="Group_118" data-name="Group 118" transform="matrix(-0.996, -0.087, 0.087, -0.996, 242.695, 10241.204)">
        <g id="Group_26-9" data-name="Group 26" transform="translate(0 0)">
          <path id="Path_47-15" data-name="Path 47" d="M46.223,1651.911s.95-2.139,3.812-17.4c2.81-15.447,9.668-43.68,31.2-48.738,20.667-4.855,46.673,1.563,68.606,19.484a89.357,89.357,0,0,1,20.1,24.09c20.231,35.015,9.338,72.366-7.781,96.488s-59.138,0-59.138,0,1.484,2.979,2.321,2.091c5.145,4.608,40.628,37.995,30.361,61.715-11.283,26.067-40.657,42.407-82.481,45.131s-69.642-7-84.816-34.237,24.122-74.7,24.122-74.7-.528.159-8.715,3.544c-12.812,4.93-45.878,15.336-60.538,1.125-19.064-18.481-21.009-45.715-7-78.591S-48.514,1609.5-20.7,1599c12.685-4.79,35.984-1.743,49.8,12.451C42.919,1625.611,46.223,1651.911,46.223,1651.911Z" transform="translate(92.851 -1584.205)" fill="none" stroke="#6baf45" stroke-width="30"/>
          <path id="Path_48-15" data-name="Path 48" d="M122.957,70.88s2.784-3.6,5.416-17.533c2.585-14.1,11.934-47.3,31.741-51.917,19.007-4.432,42.926,1.428,63.1,17.785A81.747,81.747,0,0,1,241.7,41.2c18.607,31.964,8.588,66.058-7.157,88.078s-63.91-12.094-63.91-12.094,4.013,9.446,4.783,8.637c4.732,4.206,44.238,40.049,34.795,61.7-10.377,23.793-37.393,38.71-75.86,41.2S70.3,222.33,56.344,197.47s41.2-83.638,41.2-83.638-1.13.329-8.66,3.42c-11.783,4.5-60.569,29.264-74.053,16.292C-2.7,116.674-4.487,91.815,8.394,61.8S40.778,23.093,66.363,13.5c11.667-4.373,33.1-1.59,45.8,11.365C124.871,37.8,122.957,70.88,122.957,70.88Z" transform="matrix(1, 0.017, -0.017, 1, 15.746, 9.679)" fill="none" stroke="#89c63d" stroke-width="20"/>
        </g>
      </g>
      <g id="Group_119" data-name="Group 119" transform="translate(385.265 10866.133) rotate(-140)">
        <g id="Group_26-10" data-name="Group 26" transform="translate(0 0)">
          <path id="Path_47-16" data-name="Path 47" d="M46.223,1651.911s.95-2.139,3.812-17.4c2.81-15.447,9.668-43.68,31.2-48.738,20.667-4.855,46.673,1.563,68.606,19.484a89.357,89.357,0,0,1,20.1,24.09c20.231,35.015,9.338,72.366-7.781,96.488s-59.138,0-59.138,0,1.484,2.979,2.321,2.091c5.145,4.608,40.628,37.995,30.361,61.715-11.283,26.067-40.657,42.407-82.481,45.131s-69.642-7-84.816-34.237,24.122-74.7,24.122-74.7-.528.159-8.715,3.544c-12.812,4.93-45.878,15.336-60.538,1.125-19.064-18.481-21.009-45.715-7-78.591S-48.514,1609.5-20.7,1599c12.685-4.79,35.984-1.743,49.8,12.451C42.919,1625.611,46.223,1651.911,46.223,1651.911Z" transform="translate(92.851 -1584.205)" fill="none" stroke="#6baf45" stroke-width="30"/>
          <path id="Path_48-16" data-name="Path 48" d="M122.957,70.88s2.784-3.6,5.416-17.533c2.585-14.1,11.934-47.3,31.741-51.917,19.007-4.432,42.926,1.428,63.1,17.785A81.747,81.747,0,0,1,241.7,41.2c18.607,31.964,8.588,66.058-7.157,88.078s-63.91-12.094-63.91-12.094,4.013,9.446,4.783,8.637c4.732,4.206,44.238,40.049,34.795,61.7-10.377,23.793-37.393,38.71-75.86,41.2S70.3,222.33,56.344,197.47s41.2-83.638,41.2-83.638-1.13.329-8.66,3.42c-11.783,4.5-60.569,29.264-74.053,16.292C-2.7,116.674-4.487,91.815,8.394,61.8S40.778,23.093,66.363,13.5c11.667-4.373,33.1-1.59,45.8,11.365C124.871,37.8,122.957,70.88,122.957,70.88Z" transform="matrix(1, 0.017, -0.017, 1, 15.746, 9.679)" fill="none" stroke="#89c63d" stroke-width="20"/>
        </g>
      </g>
    </g>
  </g>
</svg>
