<svg xmlns="http://www.w3.org/2000/svg" width="102.77" height="79.912" viewBox="0 0 102.77 79.912">
  <g id="Group_307" data-name="Group 307" transform="translate(2.716 2.523)">
    <path id="Path_46" data-name="Path 46" d="M148.18,3018.589,58.2,3043.417l2.994,27.47,94.561-9.157v-49.481a73.934,73.934,0,0,0-20.779-11.622c-11.666-4.006-25.885-4.4-25.885-4.4L86.9,3012.249s3.631,1.848,4.931,4.4c1.05,2.054-.247,4.829-1.937,6.163a11.855,11.855,0,0,1-8.628,2.289,31.566,31.566,0,0,1-7.748-2.289l-13.735,10.213" transform="translate(-58.198 -2996.225)" fill="none" stroke="#fff" stroke-width="5"/>
    <g id="Ellipse_96" data-name="Ellipse 96" transform="translate(39.802 41.775)" fill="none" stroke="#fff" stroke-width="5">
      <circle cx="12" cy="12" r="12" stroke="none"/>
      <circle cx="12" cy="12" r="9.5" fill="none"/>
    </g>
    <g id="Ellipse_97" data-name="Ellipse 97" transform="translate(14.802 48.775)" fill="none" stroke="#fff" stroke-width="5">
      <circle cx="7.5" cy="7.5" r="7.5" stroke="none"/>
      <circle cx="7.5" cy="7.5" r="5" fill="none"/>
    </g>
    <g id="Ellipse_98" data-name="Ellipse 98" transform="translate(70.802 35.775)" fill="none" stroke="#fff" stroke-width="5">
      <circle cx="7" cy="7" r="7" stroke="none"/>
      <circle cx="7" cy="7" r="4.5" fill="none"/>
    </g>
    <g id="Ellipse_99" data-name="Ellipse 99" transform="translate(54.802 8.775)" fill="none" stroke="#fff" stroke-width="5">
      <ellipse cx="8.5" cy="6.5" rx="8.5" ry="6.5" stroke="none"/>
      <ellipse cx="8.5" cy="6.5" rx="6" ry="4" fill="none"/>
    </g>
  </g>
</svg>
