<svg xmlns="http://www.w3.org/2000/svg" xmlns:xlink="http://www.w3.org/1999/xlink" width="346" height="346" viewBox="0 0 346 346">
  <defs>
    <clipPath id="clip-path">
      <rect id="Rectangle_116" data-name="Rectangle 116" width="346" height="346" transform="translate(8149 5285)" fill="#fff" stroke="#707070" stroke-width="1"/>
    </clipPath>
    <clipPath id="clip-path-2">
      <path id="Path_286" data-name="Path 286" d="M3905.281,8100.42a29.657,29.657,0,0,0-10.752-10.432c-7.24-4.016-18.208-5.631-18.208-5.631L3873.4,8113.8a11.7,11.7,0,0,1,5.922.829,10.263,10.263,0,0,1,3.812,4.282Z" transform="translate(-3873.4 -8084.357)" fill="none"/>
    </clipPath>
    <clipPath id="clip-path-6">
      <path id="Path_286-5" data-name="Path 286" d="M3911.3,8103.453a35.263,35.263,0,0,0-12.783-12.4c-8.607-4.773-21.646-6.693-21.646-6.693l-3.472,35.007s4.147-.535,7.041.984,4.532,5.091,4.532,5.091Z" transform="translate(-3873.4 -8084.358)" fill="none"/>
    </clipPath>
    <clipPath id="clip-path-8">
      <path id="Path_286-7" data-name="Path 286" d="M3915.228,8105.432a38.911,38.911,0,0,0-14.107-13.686c-9.5-5.269-23.888-7.388-23.888-7.388l-3.833,38.634s4.577-.59,7.771,1.087,5,5.618,5,5.618Z" transform="translate(-3873.4 -8084.358)" fill="none"/>
    </clipPath>
    <clipPath id="clip-path-10">
      <path id="Path_286-9" data-name="Path 286" d="M3924.957,8110.333a47.959,47.959,0,0,0-17.388-16.869c-11.709-6.494-29.445-9.105-29.445-9.105l-4.724,47.62s5.642-.727,9.577,1.34,6.165,6.926,6.165,6.926Z" transform="translate(-3873.4 -8084.358)" fill="none"/>
    </clipPath>
  </defs>
  <g id="Mask_Group_24" data-name="Mask Group 24" transform="translate(-8149 -5285)" clip-path="url(#clip-path)">
    <g id="Group_310" data-name="Group 310" transform="translate(5814.926 -1682.323)">
      <g id="Group_200" data-name="Group 200" transform="translate(2739.935 -230.481)">
        <circle id="Ellipse_58" data-name="Ellipse 58" cx="171.989" cy="171.989" r="171.989" transform="translate(-405.24 7199.151)" fill="#e9c89d" opacity="0.6"/>
        <path id="Path_36" data-name="Path 36" d="M95.826,21.517c-.332-1.081,37.4-33.177,69.2-16.939,7.284,3.718,10.512-3.277,29.18.6s19.116,2.763,44.732,14.482a138.661,138.661,0,0,1,33.2,21.131c12.727,10.851,9.714,12.3,20.391,25.479s14.286,11.19,22.318,27.254,2.377,20.589,6.647,38.614,10.432,15.81,10.432,33.48-2.946,18.221-7.216,36.826-2.3,21.436-9.863,37.594-12.9,13.268-23.591,27.414-4.983,17.641-19.157,29.169-14.058,6.964-30.489,15.534-16.326,12.727-35.236,18.742-20.068.413-40.448.413-23.5-2.214-41.807-5.425-12.341-3.138-27.767-10.767-17.068-3-33.2-14.741-14.816-17.3-26.451-31.726S24.6,257.775,16.613,242.66s-2-15.139-6.13-32.686S1.009,191.38.08,172.477s6.43-17.432,10.038-36.232-1.859-22.52,4.4-38.972,12.679-13.884,23.929-28.2,6.2-17.156,21.073-29.055S96.158,22.6,95.826,21.517Z" transform="matrix(0.891, 0.454, -0.454, 0.891, -305.375, 7146.804)" fill="#d9a45e"/>
      </g>
      <path id="Path_105" data-name="Path 105" d="M415.607,7492.673c9.769-4.12,28-32.114,58.569-16.505,7,3.574,15.131-5.709,33.076-1.985s14.736,7.227,39.361,18.49c12.638,5.782,26.323,7.868,35.557,15.743,12.235,10.43,6.3,13.368,16.561,26.042s16.773,9.207,24.494,24.649,2.285,19.792,6.39,37.117,10.028,15.2,10.028,32.187-5.924,17.875-10.028,35.76.877,20.247-6.39,35.778-12.4,12.755-22.677,26.354-4.79,16.958-18.415,28.04-14.436.542-30.231,8.779-14.772,18.389-32.949,24.172-18.446-4.326-38.037-4.326-22.729,7.411-40.327,4.326-6.615-8.5-21.443-15.835-22.362-2.215-37.871-13.5-10.233-17.8-21.417-31.666-15.638-9.283-23.319-23.813,1.955-16.693-2.018-33.56-12.982-15.735-13.875-33.907,8.947-15.95,12.416-34.022-4.553-22.455,1.459-38.27,13.1-10.534,23.91-24.294,5.055-19.307,19.35-30.743S405.838,7496.792,415.607,7492.673Z" transform="translate(2026.575 -493.958)" fill="#c9402f"/>
      <path id="Path_106" data-name="Path 106" d="M413.34,7492.167c9.536-4.022,27.333-31.349,57.172-16.112,6.835,3.489,14.77-5.572,32.287-1.939s14.384,7.054,38.422,18.051c12.336,5.642,25.695,7.68,34.708,15.363,11.943,10.184,6.147,13.052,16.166,25.421s16.373,8.988,23.91,24.062,2.231,19.321,6.237,36.233,9.789,14.836,9.789,31.415-5.783,17.45-9.789,34.912.856,19.76-6.237,34.923-12.108,12.449-22.137,25.726-4.676,16.554-17.976,27.37-14.092.529-29.51,8.568-14.419,17.951-32.163,23.6-18.006-4.223-37.13-4.223-22.187,7.234-39.365,4.223-6.457-8.3-20.932-15.457-21.829-2.163-36.968-13.18-9.989-17.373-20.906-30.913-15.264-9.062-22.762-23.245,1.908-16.293-1.97-32.759-12.673-15.36-13.544-33.1,8.734-15.567,12.12-33.208-4.445-21.923,1.424-37.358,12.783-10.282,23.34-23.714,4.934-18.845,18.888-30.011S403.8,7496.186,413.34,7492.167Z" transform="translate(-4693.071 9696.324) rotate(-106)" fill="#f5b434"/>
      <path id="Path_107" data-name="Path 107" d="M13.586,1819.972l10.1-3.927,3.206,9.859-12.9,6.332Z" transform="translate(2454.818 5204.525)" fill="#e26a90"/>
      <path id="Path_108" data-name="Path 108" d="M38.432,1804.743l-1.924,11.221,17.874.721-.8-10.9Z" transform="translate(2471.774 5221.257)" fill="#e26a90"/>
      <path id="Path_109" data-name="Path 109" d="M10.219,1834.96l-8.5,19.477,9.778,3.286,5.851-19.8Z" transform="translate(2401.271 5286.109)" fill="#e26a90"/>
      <path id="Path_110" data-name="Path 110" d="M34.425,1825.743l5.05-5.45,8.656,6.893-6.492,7.935Z" transform="translate(2464.572 5251.077)" fill="#e26a90"/>
      <path id="Path_111" data-name="Path 111" d="M18.876,1851.311c.8-.561,10.42-15.87,10.42-15.87l10.339,6.091L25.688,1857.8Z" transform="translate(2451.961 5259.462)" fill="#e26a90"/>
      <path id="Path_112" data-name="Path 112" d="M58.39,1815.5l11.542.641v15.309l-11.542,1.523Z" transform="translate(2501.919 5221.257)" fill="#e26a90"/>
      <path id="Path_113" data-name="Path 113" d="M80.672,1827.706l-11.141,9.758,7.214,8.656,12.664-11.7Z" transform="translate(2533.64 5267.521)" fill="#e26a90"/>
      <path id="Path_114" data-name="Path 114" d="M37.07,1848.846l9.378-2.4.4,15.309H39.074Z" transform="translate(2465.795 5301.746)" fill="#e26a90"/>
      <path id="Path_115" data-name="Path 115" d="M56.547,1854.777l-12.1,12.824,8.736,6.172L64.8,1863.754Z" transform="translate(2488.688 5322.896)" fill="#e26a90"/>
      <path id="Path_116" data-name="Path 116" d="M51.016,1831.293c-.321,0-5.13,5.611-5.13,5.611l15.229,15.389,6.492-7.855Z" transform="translate(2493.049 5276.771)" fill="#e26a90"/>
      <path id="Path_117" data-name="Path 117" d="M1.723,1857.723l-5.13,4.989,15.469,15.79s8.977-6.653,8.656-7.214S1.723,1857.723,1.723,1857.723Z" transform="translate(2401.271 5331.676)" fill="#e26a90"/>
      <path id="Path_118" data-name="Path 118" d="M23.043,1866.56l.561,10.259,11.3-1.443v-8.1Z" transform="translate(2444.521 5332.965)" fill="#e26a90"/>
      <path id="Path_119" data-name="Path 119" d="M18.876,1882.991l1.443,10.74,15.149.4,1.363-11.141Z" transform="translate(2440.67 5364.251)" fill="#e26a90"/>
      <path id="Path_120" data-name="Path 120" d="M39.635,1881.468l7.214-8.576,11.862,12.263-9.217,6.973Z" transform="translate(2478.534 5364.251)" fill="#e26a90"/>
      <path id="Path_121" data-name="Path 121" d="M67.607,1851.331l11.3-.882v16.912l-11.3-1.443Z" transform="translate(2533.64 5311.434)" fill="#e26a90"/>
      <path id="Path_122" data-name="Path 122" d="M13.586,1819.972l10.1-3.927,3.206,9.859-12.9,6.332Z" transform="translate(3860.168 5772.952) rotate(47)" fill="#e26a90"/>
      <path id="Path_123" data-name="Path 123" d="M38.432,1804.743l-1.924,11.221,17.874.721-.8-10.9Z" transform="translate(3888.958 5803.826) rotate(47)" fill="#e26a90"/>
      <path id="Path_124" data-name="Path 124" d="M10.219,1834.96l-8.5,19.477,9.778,3.286,5.851-19.8Z" transform="translate(3786.269 5782.935) rotate(47)" fill="#e26a90"/>
      <path id="Path_125" data-name="Path 125" d="M34.425,1825.743l5.05-5.45,8.656,6.893-6.492,7.935Z" transform="translate(3862.237 5818.896) rotate(47)" fill="#e26a90"/>
      <path id="Path_126" data-name="Path 126" d="M18.876,1851.311c.8-.561,10.42-15.87,10.42-15.87l10.339,6.091L25.688,1857.8Z" transform="translate(3811.811 5797.995) rotate(47)" fill="#e26a90"/>
      <path id="Path_127" data-name="Path 127" d="M58.39,1815.5l11.542.641v15.309l-11.542,1.523Z" transform="translate(3909.516 5825.872) rotate(47)" fill="#e26a90"/>
      <path id="Path_128" data-name="Path 128" d="M80.672,1827.706l-11.141,9.758,7.214,8.656,12.664-11.7Z" transform="translate(3897.314 5880.625) rotate(47)" fill="#e26a90"/>
      <path id="Path_129" data-name="Path 129" d="M37.07,1848.846l9.378-2.4.4,15.309H39.074Z" transform="translate(3797.3 5857.696) rotate(47)" fill="#e26a90"/>
      <path id="Path_130" data-name="Path 130" d="M56.547,1854.777l-12.1,12.824,8.736,6.172L64.8,1863.754Z" transform="translate(3826.159 5885.514) rotate(47)" fill="#e26a90"/>
      <path id="Path_131" data-name="Path 131" d="M51.016,1831.293c-.321,0-5.13,5.611-5.13,5.611l15.229,15.389,6.492-7.855Z" transform="translate(3862.867 5857.246) rotate(47)" fill="#e26a90"/>
      <path id="Path_132" data-name="Path 132" d="M1.723,1857.723l-5.13,4.989,15.469,15.79s8.977-6.653,8.656-7.214S1.723,1857.723,1.723,1857.723Z" transform="translate(3760.119 5827.569) rotate(47)" fill="#e26a90"/>
      <path id="Path_133" data-name="Path 133" d="M23.043,1866.56l.561,10.259,11.3-1.443v-8.1Z" transform="translate(3788.673 5860.079) rotate(47)" fill="#e26a90"/>
      <path id="Path_134" data-name="Path 134" d="M18.876,1882.991l1.443,10.74,15.149.4,1.363-11.141Z" transform="translate(3763.166 5878.6) rotate(47)" fill="#e26a90"/>
      <path id="Path_135" data-name="Path 135" d="M39.635,1881.468l7.214-8.576,11.862,12.263-9.217,6.973Z" transform="translate(3788.989 5906.292) rotate(47)" fill="#e26a90"/>
      <path id="Path_136" data-name="Path 136" d="M67.607,1851.331l11.3-.882v16.912l-11.3-1.443Z" transform="translate(3865.199 5910.572) rotate(47)" fill="#e26a90"/>
      <path id="Path_137" data-name="Path 137" d="M0,2.829,7.274,0,9.583,7.1.289,11.661Z" transform="matrix(0.891, 0.454, -0.454, 0.891, 2507.584, 7050.665)" fill="#e26a90"/>
      <path id="Path_138" data-name="Path 138" d="M1.385,0,0,8.082,12.873,8.6,12.3.75Z" transform="matrix(0.891, 0.454, -0.454, 0.891, 2553.08, 7064.711)" fill="#e26a90"/>
      <path id="Path_139" data-name="Path 139" d="M6.119,0,0,14.028l7.043,2.367L11.257,2.136Z" transform="matrix(0.891, 0.454, -0.454, 0.891, 2444.654, 7074.282)" fill="#e26a90"/>
      <path id="Path_140" data-name="Path 140" d="M0,3.925,3.637,0,9.871,4.965,5.2,10.679Z" transform="matrix(0.891, 0.454, -0.454, 0.891, 2532.286, 7090.79)" fill="#e26a90"/>
      <path id="Path_141" data-name="Path 141" d="M0,11.43C.577,11.026,7.5,0,7.5,0l7.447,4.387L4.907,16.106Z" transform="matrix(0.891, 0.454, -0.454, 0.891, 2491.336, 7111.004)" fill="#e26a90"/>
      <path id="Path_142" data-name="Path 142" d="M0,0,8.313.462V11.488L0,12.584Z" transform="matrix(0.891, 0.454, -0.454, 0.891, 2582.948, 7088.627)" fill="#e26a90"/>
      <path id="Path_143" data-name="Path 143" d="M8.024,0,0,7.028l5.2,6.234,9.121-8.428Z" transform="matrix(0.891, 0.454, -0.454, 0.891, 2591.336, 7140.163)" fill="#e26a90"/>
      <path id="Path_144" data-name="Path 144" d="M0,1.732,6.754,0l.289,11.026h-5.6Z" transform="matrix(0.891, 0.454, -0.454, 0.891, 2499.458, 7136.901)" fill="#e26a90"/>
      <path id="Path_145" data-name="Path 145" d="M8.717,0,0,9.236l6.292,4.445,8.37-7.216Z" transform="matrix(0.891, 0.454, -0.454, 0.891, 2519.432, 7170.169)" fill="#e26a90"/>
      <path id="Path_146" data-name="Path 146" d="M3.695,0C3.464,0,0,4.041,0,4.041L10.968,15.125l4.676-5.657Z" transform="matrix(0.891, 0.454, -0.454, 0.891, 2545.917, 7127.396)" fill="#e26a90"/>
      <path id="Path_147" data-name="Path 147" d="M3.695,0,0,3.594,11.141,14.966s6.465-4.791,6.235-5.2S3.695,0,3.695,0Z" transform="matrix(0.891, 0.454, -0.454, 0.891, 2428.793, 7133.465)" fill="#e26a90"/>
      <path id="Path_148" data-name="Path 148" d="M0,0,.4,7.389,8.544,6.35V.519Z" transform="matrix(0.891, 0.454, -0.454, 0.891, 2470.21, 7162.753)" fill="#e26a90"/>
      <path id="Path_149" data-name="Path 149" d="M0,0,1.039,7.735l10.91.289L12.931,0Z" transform="matrix(0.891, 0.454, -0.454, 0.891, 2449.462, 7190.752)" fill="#e26a90"/>
      <path id="Path_150" data-name="Path 150" d="M0,6.177,5.2,0l8.544,8.832L7.1,13.855Z" transform="matrix(0.891, 0.454, -0.454, 0.891, 2490.385, 7203.439)" fill="#e26a90"/>
      <path id="Path_151" data-name="Path 151" d="M0,.635,8.14,0V12.18L0,11.141Z" transform="matrix(0.891, 0.454, -0.454, 0.891, 2568.307, 7182.308)" fill="#e26a90"/>
      <path id="Path_152" data-name="Path 152" d="M0,2.829,7.274,0,9.583,7.1.289,11.661Z" transform="translate(2575.739 7072.561) rotate(74)" fill="#e26a90"/>
      <path id="Path_153" data-name="Path 153" d="M1.385,0,0,8.082l12.873.52L12.3.75Z" transform="translate(2596.494 7115.413) rotate(74)" fill="#e26a90"/>
      <path id="Path_154" data-name="Path 154" d="M6.119,0,0,14.028l7.043,2.367L11.257,2.136Z" transform="translate(2509.773 7061.393) rotate(74)" fill="#e26a90"/>
      <path id="Path_155" data-name="Path 155" d="M0,3.926,3.637,0,9.871,4.965,5.2,10.68Z" transform="translate(2563.24 7117.991) rotate(74)" fill="#e26a90"/>
      <path id="Path_156" data-name="Path 156" d="M0,11.43C.577,11.026,7.5,0,7.5,0l7.447,4.387L4.907,16.106Z" transform="translate(2520.528 7101.829) rotate(74)" fill="#e26a90"/>
      <path id="Path_157" data-name="Path 157" d="M0,0,8.313.462V11.488L0,12.584Z" transform="translate(2599.373 7153.568) rotate(74)" fill="#e26a90"/>
      <path id="Path_158" data-name="Path 158" d="M8.024,0,0,7.028l5.2,6.234,9.121-8.428Z" transform="translate(2567.403 7194.851) rotate(74)" fill="#e26a90"/>
      <path id="Path_159" data-name="Path 159" d="M0,1.732,6.754,0l.289,11.026h-5.6Z" transform="translate(2526.721 7130.354) rotate(74)" fill="#e26a90"/>
      <path id="Path_160" data-name="Path 160" d="M8.717,0,0,9.236l6.292,4.445,8.37-7.216Z" transform="translate(2496.419 7162.727) rotate(74)" fill="#e26a90"/>
      <path id="Path_161" data-name="Path 161" d="M3.695,0C3.464,0,0,4.041,0,4.041L10.968,15.125l4.676-5.657Z" transform="translate(2545.764 7152.927) rotate(74)" fill="#e26a90"/>
      <path id="Path_162" data-name="Path 162" d="M3.695,0,0,3.593,11.141,14.966s6.465-4.791,6.235-5.2S3.695,0,3.695,0Z" transform="translate(2428.349 7068.799) rotate(74)" fill="#e26a90"/>
      <path id="Path_163" data-name="Path 163" d="M0,0,.4,7.389,8.544,6.35V.519Z" transform="translate(2468.274 7121.671) rotate(74)" fill="#e26a90"/>
      <path id="Path_164" data-name="Path 164" d="M0,0,1.039,7.735l10.91.289L12.931,0Z" transform="translate(2443.321 7109.271) rotate(74)" fill="#e26a90"/>
      <path id="Path_165" data-name="Path 165" d="M0,6.177,5.2,0l8.544,8.832L7.1,13.855Z" transform="translate(2452.276 7164.174) rotate(74)" fill="#e26a90"/>
      <path id="Path_166" data-name="Path 166" d="M0,.635,8.14,0v12.18L0,11.141Z" transform="translate(2520.874 7206.751) rotate(74)" fill="#e26a90"/>
      <g id="Group_273" data-name="Group 273" transform="matrix(-0.242, -0.97, 0.97, -0.242, 2399.554, 7211.099)">
        <g id="Mask_Group_19" data-name="Mask Group 19" clip-path="url(#clip-path-2)">
          <ellipse id="Ellipse_295" data-name="Ellipse 295" cx="30.92" cy="30.92" rx="30.92" ry="30.92" transform="translate(-26.578 1.081)" fill="#fcf8b1"/>
        </g>
        <line id="Line_118" data-name="Line 118" x1="3.947" y2="15.789" transform="translate(4.671 1.41)" fill="none" stroke="#f7f180" stroke-width="1"/>
        <line id="Line_119" data-name="Line 119" x1="3.289" y2="9.21" transform="translate(11.25 2.725)" fill="none" stroke="#f7f180" stroke-width="1"/>
        <line id="Line_120" data-name="Line 120" x1="9.868" y2="9.868" transform="translate(17.17 11.278)" fill="none" stroke="#f7f180" stroke-width="1"/>
        <line id="Line_121" data-name="Line 121" x1="3.289" y2="2.632" transform="translate(26.381 14.567)" fill="none" stroke="#f7f180" stroke-width="1"/>
        <line id="Line_122" data-name="Line 122" y1="6.579" x2="3.289" transform="translate(2.039 23.12)" fill="none" stroke="#f7f180" stroke-width="1"/>
        <line id="Line_123" data-name="Line 123" y1="13.815" x2="9.21" transform="translate(5.329 15.883)" fill="none" stroke="#f7f180" stroke-width="1"/>
        <line id="Line_124" data-name="Line 124" y1="11.842" x2="12.5" transform="translate(8.618 21.146)" fill="none" stroke="#f7f180" stroke-width="1"/>
      </g>
      <g id="Group_274" data-name="Group 274" transform="matrix(0.799, -0.602, 0.602, 0.799, 2477.893, 7181.832)">
        <g id="Mask_Group_19-2" data-name="Mask Group 19" clip-path="url(#clip-path-2)">
          <ellipse id="Ellipse_295-2" data-name="Ellipse 295" cx="30.92" cy="30.92" rx="30.92" ry="30.92" transform="translate(-26.578 1.081)" fill="#fcf8b1"/>
        </g>
        <line id="Line_118-2" data-name="Line 118" x1="3.947" y2="15.789" transform="translate(4.671 1.41)" fill="none" stroke="#f7f180" stroke-width="1"/>
        <line id="Line_119-2" data-name="Line 119" x1="3.289" y2="9.21" transform="translate(11.25 2.725)" fill="none" stroke="#f7f180" stroke-width="1"/>
        <line id="Line_120-2" data-name="Line 120" x1="9.868" y2="9.868" transform="translate(17.17 11.278)" fill="none" stroke="#f7f180" stroke-width="1"/>
        <line id="Line_121-2" data-name="Line 121" x1="3.289" y2="2.632" transform="translate(26.381 14.567)" fill="none" stroke="#f7f180" stroke-width="1"/>
        <line id="Line_122-2" data-name="Line 122" y1="6.579" x2="3.289" transform="translate(2.039 23.12)" fill="none" stroke="#f7f180" stroke-width="1"/>
        <line id="Line_123-2" data-name="Line 123" y1="13.815" x2="9.21" transform="translate(5.329 15.883)" fill="none" stroke="#f7f180" stroke-width="1"/>
        <line id="Line_124-2" data-name="Line 124" y1="11.842" x2="12.5" transform="translate(8.618 21.146)" fill="none" stroke="#f7f180" stroke-width="1"/>
      </g>
      <g id="Group_275" data-name="Group 275" transform="matrix(0.799, -0.602, 0.602, 0.799, 2587.276, 7106.687)">
        <g id="Mask_Group_19-3" data-name="Mask Group 19" clip-path="url(#clip-path-2)">
          <ellipse id="Ellipse_295-3" data-name="Ellipse 295" cx="30.92" cy="30.92" rx="30.92" ry="30.92" transform="translate(-26.578 1.081)" fill="#fcf8b1"/>
        </g>
        <line id="Line_118-3" data-name="Line 118" x1="3.947" y2="15.789" transform="translate(4.671 1.41)" fill="none" stroke="#f7f180" stroke-width="1"/>
        <line id="Line_119-3" data-name="Line 119" x1="3.289" y2="9.21" transform="translate(11.25 2.725)" fill="none" stroke="#f7f180" stroke-width="1"/>
        <line id="Line_120-3" data-name="Line 120" x1="9.868" y2="9.868" transform="translate(17.17 11.278)" fill="none" stroke="#f7f180" stroke-width="1"/>
        <line id="Line_121-3" data-name="Line 121" x1="3.289" y2="2.632" transform="translate(26.381 14.567)" fill="none" stroke="#f7f180" stroke-width="1"/>
        <line id="Line_122-3" data-name="Line 122" y1="6.579" x2="3.289" transform="translate(2.039 23.12)" fill="none" stroke="#f7f180" stroke-width="1"/>
        <line id="Line_123-3" data-name="Line 123" y1="13.815" x2="9.21" transform="translate(5.329 15.883)" fill="none" stroke="#f7f180" stroke-width="1"/>
        <line id="Line_124-3" data-name="Line 124" y1="11.842" x2="12.5" transform="translate(8.618 21.146)" fill="none" stroke="#f7f180" stroke-width="1"/>
      </g>
      <g id="Group_276" data-name="Group 276" transform="matrix(0.799, -0.602, 0.602, 0.799, 2375.237, 7123.974)">
        <g id="Mask_Group_19-4" data-name="Mask Group 19" clip-path="url(#clip-path-2)">
          <ellipse id="Ellipse_295-4" data-name="Ellipse 295" cx="30.92" cy="30.92" rx="30.92" ry="30.92" transform="translate(-26.578 1.081)" fill="#fcf8b1"/>
        </g>
        <line id="Line_118-4" data-name="Line 118" x1="3.947" y2="15.789" transform="translate(4.671 1.41)" fill="none" stroke="#f7f180" stroke-width="1"/>
        <line id="Line_119-4" data-name="Line 119" x1="3.289" y2="9.21" transform="translate(11.25 2.725)" fill="none" stroke="#f7f180" stroke-width="1"/>
        <line id="Line_120-4" data-name="Line 120" x1="9.868" y2="9.868" transform="translate(17.17 11.278)" fill="none" stroke="#f7f180" stroke-width="1"/>
        <line id="Line_121-4" data-name="Line 121" x1="3.289" y2="2.632" transform="translate(26.381 14.567)" fill="none" stroke="#f7f180" stroke-width="1"/>
        <line id="Line_122-4" data-name="Line 122" y1="6.579" x2="3.289" transform="translate(2.039 23.12)" fill="none" stroke="#f7f180" stroke-width="1"/>
        <line id="Line_123-4" data-name="Line 123" y1="13.815" x2="9.21" transform="translate(5.329 15.883)" fill="none" stroke="#f7f180" stroke-width="1"/>
        <line id="Line_124-4" data-name="Line 124" y1="11.842" x2="12.5" transform="translate(8.618 21.146)" fill="none" stroke="#f7f180" stroke-width="1"/>
      </g>
      <g id="Group_277" data-name="Group 277" transform="matrix(-0.695, 0.719, -0.719, -0.695, 2487.224, 7251.462)">
        <g id="Mask_Group_19-5" data-name="Mask Group 19" clip-path="url(#clip-path-6)">
          <ellipse id="Ellipse_295-5" data-name="Ellipse 295" cx="36.758" cy="36.758" rx="36.758" ry="36.758" transform="translate(-31.596 1.285)" fill="#fcf8b1"/>
        </g>
        <line id="Line_118-5" data-name="Line 118" x1="4.693" y2="18.77" transform="translate(5.553 1.676)" fill="none" stroke="#f7f180" stroke-width="1"/>
        <line id="Line_119-5" data-name="Line 119" x1="3.91" y2="10.949" transform="translate(13.373 3.24)" fill="none" stroke="#f7f180" stroke-width="1"/>
        <line id="Line_120-5" data-name="Line 120" x1="11.731" y2="11.731" transform="translate(20.412 13.407)" fill="none" stroke="#f7f180" stroke-width="1"/>
        <line id="Line_121-5" data-name="Line 121" x1="3.91" y2="3.128" transform="translate(31.361 17.317)" fill="none" stroke="#f7f180" stroke-width="1"/>
        <line id="Line_122-5" data-name="Line 122" y1="7.821" x2="3.91" transform="translate(2.424 27.485)" fill="none" stroke="#f7f180" stroke-width="1"/>
        <line id="Line_123-5" data-name="Line 123" y1="16.424" x2="10.949" transform="translate(6.335 18.881)" fill="none" stroke="#f7f180" stroke-width="1"/>
        <line id="Line_124-5" data-name="Line 124" y1="14.077" x2="14.86" transform="translate(10.245 25.138)" fill="none" stroke="#f7f180" stroke-width="1"/>
      </g>
      <g id="Group_278" data-name="Group 278" transform="matrix(-0.695, 0.719, -0.719, -0.695, 2553.963, 7116.836)">
        <g id="Mask_Group_19-6" data-name="Mask Group 19" clip-path="url(#clip-path-6)">
          <ellipse id="Ellipse_295-6" data-name="Ellipse 295" cx="36.758" cy="36.758" rx="36.758" ry="36.758" transform="translate(-31.596 1.285)" fill="#fcf8b1"/>
        </g>
        <line id="Line_118-6" data-name="Line 118" x1="4.693" y2="18.77" transform="translate(5.553 1.676)" fill="none" stroke="#f7f180" stroke-width="1"/>
        <line id="Line_119-6" data-name="Line 119" x1="3.91" y2="10.949" transform="translate(13.373 3.24)" fill="none" stroke="#f7f180" stroke-width="1"/>
        <line id="Line_120-6" data-name="Line 120" x1="11.731" y2="11.731" transform="translate(20.412 13.407)" fill="none" stroke="#f7f180" stroke-width="1"/>
        <line id="Line_121-6" data-name="Line 121" x1="3.91" y2="3.128" transform="translate(31.361 17.317)" fill="none" stroke="#f7f180" stroke-width="1"/>
        <line id="Line_122-6" data-name="Line 122" y1="7.821" x2="3.91" transform="translate(2.424 27.485)" fill="none" stroke="#f7f180" stroke-width="1"/>
        <line id="Line_123-6" data-name="Line 123" y1="16.424" x2="10.949" transform="translate(6.335 18.881)" fill="none" stroke="#f7f180" stroke-width="1"/>
        <line id="Line_124-6" data-name="Line 124" y1="14.077" x2="14.86" transform="translate(10.245 25.138)" fill="none" stroke="#f7f180" stroke-width="1"/>
      </g>
      <g id="Group_279" data-name="Group 279" transform="translate(2438.877 7124.89)">
        <g id="Mask_Group_19-7" data-name="Mask Group 19" clip-path="url(#clip-path-8)">
          <ellipse id="Ellipse_295-7" data-name="Ellipse 295" cx="40.567" cy="40.567" rx="40.567" ry="40.567" transform="translate(-34.87 1.418)" fill="#fcf8b1"/>
        </g>
        <line id="Line_118-7" data-name="Line 118" x1="5.179" y2="20.715" transform="translate(6.128 1.849)" fill="none" stroke="#f7f180" stroke-width="1"/>
        <line id="Line_119-7" data-name="Line 119" x1="4.316" y2="12.084" transform="translate(14.759 3.576)" fill="none" stroke="#f7f180" stroke-width="1"/>
        <line id="Line_120-7" data-name="Line 120" x1="12.947" y2="12.947" transform="translate(22.527 14.796)" fill="none" stroke="#f7f180" stroke-width="1"/>
        <line id="Line_121-7" data-name="Line 121" x1="4.316" y2="3.452" transform="translate(34.611 19.112)" fill="none" stroke="#f7f180" stroke-width="1"/>
        <line id="Line_122-7" data-name="Line 122" y1="8.631" x2="4.316" transform="translate(2.676 30.333)" fill="none" stroke="#f7f180" stroke-width="1"/>
        <line id="Line_123-7" data-name="Line 123" y1="18.126" x2="12.084" transform="translate(6.991 20.838)" fill="none" stroke="#f7f180" stroke-width="1"/>
        <line id="Line_124-7" data-name="Line 124" y1="15.536" x2="16.399" transform="translate(11.307 27.743)" fill="none" stroke="#f7f180" stroke-width="1"/>
      </g>
      <g id="Group_280" data-name="Group 280" transform="matrix(0.391, 0.921, -0.921, 0.391, 2620.448, 7138.64)">
        <g id="Mask_Group_19-8" data-name="Mask Group 19" transform="translate(0)" clip-path="url(#clip-path-6)">
          <ellipse id="Ellipse_295-8" data-name="Ellipse 295" cx="36.758" cy="36.758" rx="36.758" ry="36.758" transform="translate(-31.596 1.285)" fill="#fcf8b1"/>
        </g>
        <line id="Line_118-8" data-name="Line 118" x1="4.693" y2="18.77" transform="translate(5.553 1.676)" fill="none" stroke="#f7f180" stroke-width="1"/>
        <line id="Line_119-8" data-name="Line 119" x1="3.91" y2="10.949" transform="translate(13.373 3.24)" fill="none" stroke="#f7f180" stroke-width="1"/>
        <line id="Line_120-8" data-name="Line 120" x1="11.731" y2="11.731" transform="translate(20.412 13.407)" fill="none" stroke="#f7f180" stroke-width="1"/>
        <line id="Line_121-8" data-name="Line 121" x1="3.91" y2="3.128" transform="translate(31.361 17.317)" fill="none" stroke="#f7f180" stroke-width="1"/>
        <line id="Line_122-8" data-name="Line 122" y1="7.821" x2="3.91" transform="translate(2.424 27.485)" fill="none" stroke="#f7f180" stroke-width="1"/>
        <line id="Line_123-8" data-name="Line 123" y1="16.424" x2="10.949" transform="translate(6.335 18.881)" fill="none" stroke="#f7f180" stroke-width="1"/>
        <line id="Line_124-8" data-name="Line 124" y1="14.077" x2="14.86" transform="translate(10.245 25.138)" fill="none" stroke="#f7f180" stroke-width="1"/>
      </g>
      <g id="Group_281" data-name="Group 281" transform="translate(2518.524 7207.334)">
        <g id="Mask_Group_19-9" data-name="Mask Group 19" clip-path="url(#clip-path-10)">
          <ellipse id="Ellipse_295-9" data-name="Ellipse 295" cx="50.003" cy="50.003" rx="50.003" ry="50.003" transform="translate(-42.982 1.748)" fill="#fcf8b1"/>
        </g>
        <line id="Line_118-9" data-name="Line 118" x1="6.383" y2="25.533" transform="translate(7.554 2.28)" fill="none" stroke="#f7f180" stroke-width="1"/>
        <line id="Line_119-9" data-name="Line 119" x1="5.319" y2="14.895" transform="translate(18.192 4.407)" fill="none" stroke="#f7f180" stroke-width="1"/>
        <line id="Line_120-9" data-name="Line 120" x1="15.958" y2="15.958" transform="translate(27.767 18.238)" fill="none" stroke="#f7f180" stroke-width="1"/>
        <line id="Line_121-9" data-name="Line 121" x1="5.319" y2="4.256" transform="translate(42.662 23.557)" fill="none" stroke="#f7f180" stroke-width="1"/>
        <line id="Line_122-9" data-name="Line 122" y1="10.639" x2="5.319" transform="translate(3.298 37.388)" fill="none" stroke="#f7f180" stroke-width="1"/>
        <line id="Line_123-9" data-name="Line 123" y1="22.342" x2="14.895" transform="translate(8.617 25.685)" fill="none" stroke="#f7f180" stroke-width="1"/>
        <line id="Line_124-9" data-name="Line 124" y1="19.15" x2="20.214" transform="translate(13.937 34.196)" fill="none" stroke="#f7f180" stroke-width="1"/>
      </g>
      <g id="Group_282" data-name="Group 282" transform="translate(2553.602 7026.69)">
        <g id="Mask_Group_19-10" data-name="Mask Group 19" clip-path="url(#clip-path-10)">
          <ellipse id="Ellipse_295-10" data-name="Ellipse 295" cx="50.003" cy="50.003" rx="50.003" ry="50.003" transform="translate(-42.982 1.748)" fill="#fcf8b1"/>
        </g>
        <line id="Line_118-10" data-name="Line 118" x1="6.383" y2="25.533" transform="translate(7.554 2.28)" fill="none" stroke="#f7f180" stroke-width="1"/>
        <line id="Line_119-10" data-name="Line 119" x1="5.319" y2="14.895" transform="translate(18.192 4.407)" fill="none" stroke="#f7f180" stroke-width="1"/>
        <line id="Line_120-10" data-name="Line 120" x1="15.958" y2="15.958" transform="translate(27.767 18.238)" fill="none" stroke="#f7f180" stroke-width="1"/>
        <line id="Line_121-10" data-name="Line 121" x1="5.319" y2="4.256" transform="translate(42.662 23.557)" fill="none" stroke="#f7f180" stroke-width="1"/>
        <line id="Line_122-10" data-name="Line 122" y1="10.639" x2="5.319" transform="translate(3.298 37.388)" fill="none" stroke="#f7f180" stroke-width="1"/>
        <line id="Line_123-10" data-name="Line 123" y1="22.342" x2="14.895" transform="translate(8.617 25.685)" fill="none" stroke="#f7f180" stroke-width="1"/>
        <line id="Line_124-10" data-name="Line 124" y1="19.15" x2="20.214" transform="translate(13.937 34.196)" fill="none" stroke="#f7f180" stroke-width="1"/>
      </g>
      <g id="Group_283" data-name="Group 283" transform="translate(2464.692 7087.906) rotate(171)">
        <g id="Mask_Group_19-11" data-name="Mask Group 19" clip-path="url(#clip-path-10)">
          <ellipse id="Ellipse_295-11" data-name="Ellipse 295" cx="50.003" cy="50.003" rx="50.003" ry="50.003" transform="translate(-42.982 1.748)" fill="#fcf8b1"/>
        </g>
        <line id="Line_118-11" data-name="Line 118" x1="6.383" y2="25.533" transform="translate(7.554 2.28)" fill="none" stroke="#f7f180" stroke-width="1"/>
        <line id="Line_119-11" data-name="Line 119" x1="5.319" y2="14.895" transform="translate(18.192 4.407)" fill="none" stroke="#f7f180" stroke-width="1"/>
        <line id="Line_120-11" data-name="Line 120" x1="15.958" y2="15.958" transform="translate(27.767 18.238)" fill="none" stroke="#f7f180" stroke-width="1"/>
        <line id="Line_121-11" data-name="Line 121" x1="5.319" y2="4.256" transform="translate(42.662 23.557)" fill="none" stroke="#f7f180" stroke-width="1"/>
        <line id="Line_122-11" data-name="Line 122" y1="10.639" x2="5.319" transform="translate(3.298 37.388)" fill="none" stroke="#f7f180" stroke-width="1"/>
        <line id="Line_123-11" data-name="Line 123" y1="22.342" x2="14.895" transform="translate(8.617 25.685)" fill="none" stroke="#f7f180" stroke-width="1"/>
        <line id="Line_124-11" data-name="Line 124" y1="19.15" x2="20.214" transform="translate(13.937 34.196)" fill="none" stroke="#f7f180" stroke-width="1"/>
      </g>
      <g id="Group_284" data-name="Group 284" transform="translate(2487.14 7083.307) rotate(-99)">
        <g id="Mask_Group_19-12" data-name="Mask Group 19" clip-path="url(#clip-path-10)">
          <ellipse id="Ellipse_295-12" data-name="Ellipse 295" cx="50.003" cy="50.003" rx="50.003" ry="50.003" transform="translate(-42.982 1.748)" fill="#fcf8b1"/>
        </g>
        <line id="Line_118-12" data-name="Line 118" x1="6.383" y2="25.533" transform="translate(7.554 2.28)" fill="none" stroke="#f7f180" stroke-width="1"/>
        <line id="Line_119-12" data-name="Line 119" x1="5.319" y2="14.895" transform="translate(18.192 4.407)" fill="none" stroke="#f7f180" stroke-width="1"/>
        <line id="Line_120-12" data-name="Line 120" x1="15.958" y2="15.958" transform="translate(27.767 18.238)" fill="none" stroke="#f7f180" stroke-width="1"/>
        <line id="Line_121-12" data-name="Line 121" x1="5.319" y2="4.256" transform="translate(42.662 23.557)" fill="none" stroke="#f7f180" stroke-width="1"/>
        <line id="Line_122-12" data-name="Line 122" y1="10.639" x2="5.319" transform="translate(3.298 37.388)" fill="none" stroke="#f7f180" stroke-width="1"/>
        <line id="Line_123-12" data-name="Line 123" y1="22.342" x2="14.895" transform="translate(8.617 25.685)" fill="none" stroke="#f7f180" stroke-width="1"/>
        <line id="Line_124-12" data-name="Line 124" y1="19.15" x2="20.214" transform="translate(13.937 34.196)" fill="none" stroke="#f7f180" stroke-width="1"/>
      </g>
      <g id="Group_285" data-name="Group 285" transform="translate(2582.284 7170.934) rotate(105)">
        <g id="Mask_Group_19-13" data-name="Mask Group 19" transform="translate(0)" clip-path="url(#clip-path-6)">
          <ellipse id="Ellipse_295-13" data-name="Ellipse 295" cx="36.758" cy="36.758" rx="36.758" ry="36.758" transform="translate(-31.596 1.285)" fill="#fcf8b1"/>
        </g>
        <line id="Line_118-13" data-name="Line 118" x1="4.693" y2="18.77" transform="translate(5.553 1.676)" fill="none" stroke="#f7f180" stroke-width="1"/>
        <line id="Line_119-13" data-name="Line 119" x1="3.91" y2="10.949" transform="translate(13.373 3.24)" fill="none" stroke="#f7f180" stroke-width="1"/>
        <line id="Line_120-13" data-name="Line 120" x1="11.731" y2="11.731" transform="translate(20.412 13.407)" fill="none" stroke="#f7f180" stroke-width="1"/>
        <line id="Line_121-13" data-name="Line 121" x1="3.91" y2="3.128" transform="translate(31.361 17.317)" fill="none" stroke="#f7f180" stroke-width="1"/>
        <line id="Line_122-13" data-name="Line 122" y1="7.821" x2="3.91" transform="translate(2.424 27.485)" fill="none" stroke="#f7f180" stroke-width="1"/>
        <line id="Line_123-13" data-name="Line 123" y1="16.424" x2="10.949" transform="translate(6.335 18.881)" fill="none" stroke="#f7f180" stroke-width="1"/>
        <line id="Line_124-13" data-name="Line 124" y1="14.077" x2="14.86" transform="translate(10.245 25.138)" fill="none" stroke="#f7f180" stroke-width="1"/>
      </g>
      <path id="Path_287" data-name="Path 287" d="M0,.635,8.14,0v12.18L0,11.141Z" transform="translate(2505.193 7244.407) rotate(74)" fill="#e26a90"/>
      <path id="Path_288" data-name="Path 288" d="M8.024,0,0,7.028l5.2,6.234,9.121-8.428Z" transform="translate(2592.628 7213.548) rotate(74)" fill="#e26a90"/>
      <g id="Group_286" data-name="Group 286" transform="matrix(0.799, -0.602, 0.602, 0.799, 2468.734, 7001.065)">
        <g id="Mask_Group_19-14" data-name="Mask Group 19" clip-path="url(#clip-path-2)">
          <ellipse id="Ellipse_295-14" data-name="Ellipse 295" cx="30.92" cy="30.92" rx="30.92" ry="30.92" transform="translate(-26.578 1.081)" fill="#fcf8b1"/>
        </g>
        <line id="Line_118-14" data-name="Line 118" x1="3.947" y2="15.789" transform="translate(4.671 1.41)" fill="none" stroke="#f7f180" stroke-width="1"/>
        <line id="Line_119-14" data-name="Line 119" x1="3.289" y2="9.21" transform="translate(11.25 2.725)" fill="none" stroke="#f7f180" stroke-width="1"/>
        <line id="Line_120-14" data-name="Line 120" x1="9.868" y2="9.868" transform="translate(17.17 11.278)" fill="none" stroke="#f7f180" stroke-width="1"/>
        <line id="Line_121-14" data-name="Line 121" x1="3.289" y2="2.632" transform="translate(26.381 14.567)" fill="none" stroke="#f7f180" stroke-width="1"/>
        <line id="Line_122-14" data-name="Line 122" y1="6.579" x2="3.289" transform="translate(2.039 23.12)" fill="none" stroke="#f7f180" stroke-width="1"/>
        <line id="Line_123-14" data-name="Line 123" y1="13.815" x2="9.21" transform="translate(5.329 15.883)" fill="none" stroke="#f7f180" stroke-width="1"/>
        <line id="Line_124-14" data-name="Line 124" y1="11.842" x2="12.5" transform="translate(8.618 21.146)" fill="none" stroke="#f7f180" stroke-width="1"/>
      </g>
      <path id="Path_289" data-name="Path 289" d="M1.723,1857.723l-5.13,4.989,15.469,15.79s8.977-6.653,8.656-7.214S1.723,1857.723,1.723,1857.723Z" transform="translate(3774.037 5759.169) rotate(47)" fill="#e26a90"/>
      <path id="Path_290" data-name="Path 290" d="M13.586,1819.972l10.1-3.927,3.206,9.859-12.9,6.332Z" transform="translate(3943.724 5818.867) rotate(47)" fill="#e26a90"/>
    </g>
  </g>
</svg>
