<svg xmlns="http://www.w3.org/2000/svg" xmlns:xlink="http://www.w3.org/1999/xlink" width="346" height="346" viewBox="0 0 346 346">
  <defs>
    <clipPath id="clip-path">
      <rect id="Rectangle_114" data-name="Rectangle 114" width="346" height="346" transform="translate(8638 5286)" fill="#fff" stroke="#707070" stroke-width="1"/>
    </clipPath>
  </defs>
  <g id="Mask_Group_23" data-name="Mask Group 23" transform="translate(-8638 -5286)" clip-path="url(#clip-path)">
    <g id="Group_311" data-name="Group 311" transform="translate(5898.81 -1689.975)">
      <g id="Group_201" data-name="Group 201" transform="translate(3146.935 -222.829)">
        <circle id="Ellipse_58" data-name="Ellipse 58" cx="171.989" cy="171.989" r="171.989" transform="translate(-405.24 7199.151)" fill="#e9c89d" opacity="0.6"/>
        <path id="Path_36" data-name="Path 36" d="M95.826,21.517c-.332-1.081,37.4-33.177,69.2-16.939,7.284,3.718,10.512-3.277,29.18.6s19.116,2.763,44.732,14.482a138.661,138.661,0,0,1,33.2,21.131c12.727,10.851,9.714,12.3,20.391,25.479s14.286,11.19,22.318,27.254,2.377,20.589,6.647,38.614,10.432,15.81,10.432,33.48-2.946,18.221-7.216,36.826-2.3,21.436-9.863,37.594-12.9,13.268-23.591,27.414-4.983,17.641-19.157,29.169-14.058,6.964-30.489,15.534-16.326,12.727-35.236,18.742-20.068.413-40.448.413-23.5-2.214-41.807-5.425-12.341-3.138-27.767-10.767-17.068-3-33.2-14.741-14.816-17.3-26.451-31.726S24.6,257.775,16.613,242.66s-2-15.139-6.13-32.686S1.009,191.38.08,172.477s6.43-17.432,10.038-36.232-1.859-22.52,4.4-38.972,12.679-13.884,23.929-28.2,6.2-17.156,21.073-29.055S96.158,22.6,95.826,21.517Z" transform="matrix(0.891, 0.454, -0.454, 0.891, -305.375, 7146.804)" fill="#d9a45e"/>
      </g>
      <path id="Path_167" data-name="Path 167" d="M415.607,7492.673c9.769-4.12,28-32.114,58.569-16.505,7,3.574,15.131-5.709,33.076-1.985s14.736,7.227,39.361,18.49c12.638,5.782,26.323,7.868,35.557,15.743,12.235,10.43,6.3,13.368,16.561,26.042s16.773,9.207,24.494,24.649,2.285,19.792,6.39,37.117,10.028,15.2,10.028,32.187-5.924,17.875-10.028,35.76.877,20.247-6.39,35.778-12.4,12.755-22.677,26.354-4.79,16.958-18.415,28.04-14.436.542-30.231,8.779-14.772,18.389-32.949,24.172-18.446-4.326-38.037-4.326-22.729,7.411-40.327,4.326-6.615-8.5-21.443-15.835-22.362-2.215-37.871-13.5-10.233-17.8-21.417-31.666-15.638-9.283-23.319-23.813,1.955-16.693-2.018-33.56-12.982-15.735-13.875-33.907,8.947-15.95,12.416-34.022-4.553-22.455,1.459-38.27,13.1-10.534,23.91-24.294,5.055-19.307,19.35-30.743S405.838,7496.792,415.607,7492.673Z" transform="translate(2433.575 -486.306)" fill="#c9402f"/>
      <path id="Path_168" data-name="Path 168" d="M413.34,7492.167c9.536-4.022,27.333-31.349,57.172-16.112,6.835,3.489,14.77-5.572,32.287-1.939s14.384,7.054,38.422,18.051c12.336,5.642,25.695,7.68,34.708,15.363,11.943,10.184,6.147,13.052,16.166,25.421s16.373,8.988,23.91,24.062,2.231,19.321,6.237,36.233,9.789,14.836,9.789,31.415-5.783,17.45-9.789,34.912.856,19.76-6.237,34.923-12.108,12.449-22.137,25.726-4.676,16.554-17.976,27.37-14.092.529-29.51,8.568-14.419,17.951-32.163,23.6-18.006-4.223-37.13-4.223-22.187,7.234-39.365,4.223-6.457-8.3-20.932-15.457-21.829-2.163-36.968-13.18-9.989-17.373-20.906-30.913-15.264-9.062-22.762-23.245,1.908-16.293-1.97-32.759-12.673-15.36-13.544-33.1,8.734-15.567,12.12-33.208-4.445-21.923,1.424-37.358,12.783-10.282,23.34-23.714,4.934-18.845,18.888-30.011S403.8,7496.186,413.34,7492.167Z" transform="translate(-4286.071 9703.977) rotate(-106)" fill="#f5b434"/>
      <g id="Group_203" data-name="Group 203" transform="matrix(0.588, 0.809, -0.809, 0.588, 3953.933, 6274.347)">
        <g id="Group_26" data-name="Group 26" transform="translate(-17 -3)">
          <path id="Path_47" data-name="Path 47" d="M-68.642,1595.991a22.461,22.461,0,0,0,.664-3.029c.489-2.689,1.683-7.6,5.432-8.484,3.6-.845,8.125.272,11.943,3.392a15.555,15.555,0,0,1,3.5,4.194c3.522,6.1,1.625,12.6-1.355,16.8s-10.295,0-10.295,0,.258.519.4.364c.9.8,7.072,6.614,5.285,10.743-1.964,4.538-7.077,7.382-14.358,7.856s-12.123-1.219-14.765-5.96,4.2-13,4.2-13-.092.027-1.517.617c-2.23.858-7.986,2.67-10.538.2-3.319-3.217-3.657-7.958-1.219-13.681s6.129-7.382,10.972-9.211a8.97,8.97,0,0,1,8.669,2.167C-69.217,1591.413-68.642,1595.991-68.642,1595.991Z" transform="translate(68 -231)" fill="none" stroke="#6baf45" stroke-width="3"/>
          <path id="Path_48" data-name="Path 48" d="M-71.447,1596.543a8.282,8.282,0,0,0,.943-3.052c.45-2.455,2.077-8.234,5.525-9.038,3.309-.772,7.473.249,10.984,3.1a14.23,14.23,0,0,1,3.218,3.828c3.239,5.564,1.495,11.5-1.246,15.332s-11.125-2.105-11.125-2.105.7,1.644.833,1.5c.824.732,7.7,6.972,6.057,10.741-1.806,4.142-6.509,6.739-13.205,7.172s-11.15-1.113-13.579-5.441,7.173-14.56,7.173-14.56-.2.057-1.507.6c-2.051.784-10.544,5.094-12.891,2.836-3.052-2.937-3.364-7.264-1.121-12.488s5.637-6.739,10.091-8.408a8.3,8.3,0,0,1,7.973,1.978C-71.114,1590.784-71.447,1596.543-71.447,1596.543Z" transform="matrix(1, 0.017, -0.017, 1, 98.375, -227.453)" fill="none" stroke="#89c63d" stroke-width="2"/>
        </g>
      </g>
      <g id="Group_204" data-name="Group 204" transform="translate(3075.249 5788.58)">
        <ellipse id="Ellipse_100" data-name="Ellipse 100" cx="12" cy="15.5" rx="12" ry="15.5" transform="translate(-116 1359)" fill="#78993e"/>
        <circle id="Ellipse_101" data-name="Ellipse 101" cx="5" cy="5" r="5" transform="translate(-109 1378)"/>
      </g>
      <g id="Group_205" data-name="Group 205" transform="translate(3007.249 5829.08)">
        <ellipse id="Ellipse_102" data-name="Ellipse 102" cx="14" cy="12" rx="14" ry="12" transform="translate(-84 1361)" fill="#373332"/>
        <circle id="Ellipse_103" data-name="Ellipse 103" cx="5" cy="5" r="5" transform="translate(-82 1368)"/>
      </g>
      <g id="Group_206" data-name="Group 206" transform="translate(3125.647 5870.08)">
        <ellipse id="Ellipse_104" data-name="Ellipse 104" cx="12" cy="13.5" rx="12" ry="13.5" transform="translate(-146 1366)" fill="#629948"/>
        <circle id="Ellipse_105" data-name="Ellipse 105" cx="5" cy="5" r="5" transform="translate(-139 1368)"/>
      </g>
      <g id="Group_207" data-name="Group 207" transform="translate(3078.736 5827.08)">
        <ellipse id="Ellipse_106" data-name="Ellipse 106" cx="14" cy="12.5" rx="14" ry="12.5" transform="translate(-63 1360)" fill="#504f4d"/>
        <circle id="Ellipse_107" data-name="Ellipse 107" cx="5" cy="5" r="5" transform="translate(-49 1373)"/>
      </g>
      <g id="Group_208" data-name="Group 208" transform="translate(2861.274 5632.894)">
        <g id="Ellipse_116" data-name="Ellipse 116" transform="translate(8 1421)" fill="none" stroke="#6a518a" stroke-width="1">
          <circle cx="28.5" cy="28.5" r="28.5" stroke="none"/>
          <circle cx="28.5" cy="28.5" r="28" fill="none"/>
        </g>
        <g id="Path_52" data-name="Path 52" transform="translate(9 1422)" fill="none">
          <path d="M27.5,0A27.5,27.5,0,1,1,0,27.5,27.5,27.5,0,0,1,27.5,0Z" stroke="none"/>
          <path d="M 27.5 5 C 24.46031761169434 5 21.51421356201172 5.594200134277344 18.7435188293457 6.766105651855469 C 16.06483459472656 7.899093627929688 13.6580696105957 9.522129058837891 11.59010696411133 11.59010696411133 C 9.522129058837891 13.6580696105957 7.899093627929688 16.06483459472656 6.766105651855469 18.7435188293457 C 5.594200134277344 21.51421356201172 5 24.46031761169434 5 27.5 C 5 30.53968238830566 5.594200134277344 33.48578643798828 6.766105651855469 36.25648498535156 C 7.899093627929688 38.93516540527344 9.522129058837891 41.3419303894043 11.59010696411133 43.40989303588867 C 13.6580696105957 45.47787094116211 16.06483459472656 47.10090637207031 18.7435188293457 48.23389434814453 C 21.51421356201172 49.40579986572266 24.46031761169434 50 27.5 50 C 30.53968238830566 50 33.48578643798828 49.40579986572266 36.25648498535156 48.23389434814453 C 38.93516540527344 47.10090637207031 41.3419303894043 45.47787094116211 43.40989303588867 43.40989303588867 C 45.47787094116211 41.3419303894043 47.10090637207031 38.93516540527344 48.23389434814453 36.25648498535156 C 49.40579986572266 33.48578643798828 50 30.53968238830566 50 27.5 C 50 24.46031761169434 49.40579986572266 21.51421356201172 48.23389434814453 18.7435188293457 C 47.10090637207031 16.06483459472656 45.47787094116211 13.6580696105957 43.40989303588867 11.59010696411133 C 41.3419303894043 9.522129058837891 38.93516540527344 7.899093627929688 36.25648498535156 6.766105651855469 C 33.48578643798828 5.594200134277344 30.53968238830566 5 27.5 5 M 27.5 0 C 42.68782424926758 0 55 12.31217575073242 55 27.5 C 55 42.68782424926758 42.68782424926758 55 27.5 55 C 12.31217575073242 55 0 42.68782424926758 0 27.5 C 0 12.31217575073242 12.31217575073242 0 27.5 0 Z" stroke="none" fill="#f3e9f0"/>
        </g>
      </g>
      <g id="Group_209" data-name="Group 209" transform="matrix(-0.996, 0.087, -0.087, -0.996, 3102.364, 8474.637)">
        <g id="Group_26-2" data-name="Group 26" transform="translate(-17 -3)">
          <path id="Path_47-2" data-name="Path 47" d="M-68.642,1595.991a22.461,22.461,0,0,0,.664-3.029c.489-2.689,1.683-7.6,5.432-8.484,3.6-.845,8.125.272,11.943,3.392a15.555,15.555,0,0,1,3.5,4.194c3.522,6.1,1.625,12.6-1.355,16.8s-10.295,0-10.295,0,.258.519.4.364c.9.8,7.072,6.614,5.285,10.743-1.964,4.538-7.077,7.382-14.358,7.856s-12.123-1.219-14.765-5.96,4.2-13,4.2-13-.092.027-1.517.617c-2.23.858-7.986,2.67-10.538.2-3.319-3.217-3.657-7.958-1.219-13.681s6.129-7.382,10.972-9.211a8.97,8.97,0,0,1,8.669,2.167C-69.217,1591.413-68.642,1595.991-68.642,1595.991Z" transform="translate(68 -231)" fill="none" stroke="#6baf45" stroke-width="3"/>
          <path id="Path_48-2" data-name="Path 48" d="M-71.447,1596.543a8.282,8.282,0,0,0,.943-3.052c.45-2.455,2.077-8.234,5.525-9.038,3.309-.772,7.473.249,10.984,3.1a14.23,14.23,0,0,1,3.218,3.828c3.239,5.564,1.495,11.5-1.246,15.332s-11.125-2.105-11.125-2.105.7,1.644.833,1.5c.824.732,7.7,6.972,6.057,10.741-1.806,4.142-6.509,6.739-13.205,7.172s-11.15-1.113-13.579-5.441,7.173-14.56,7.173-14.56-.2.057-1.507.6c-2.051.784-10.544,5.094-12.891,2.836-3.052-2.937-3.364-7.264-1.121-12.488s5.637-6.739,10.091-8.408a8.3,8.3,0,0,1,7.973,1.978C-71.114,1590.784-71.447,1596.543-71.447,1596.543Z" transform="matrix(1, 0.017, -0.017, 1, 98.375, -227.453)" fill="none" stroke="#89c63d" stroke-width="2"/>
        </g>
      </g>
      <g id="Group_210" data-name="Group 210" transform="translate(4010.661 7956.434) rotate(121)">
        <ellipse id="Ellipse_100-2" data-name="Ellipse 100" cx="12" cy="15.5" rx="12" ry="15.5" transform="translate(-116 1359)" fill="#78993e"/>
        <circle id="Ellipse_101-2" data-name="Ellipse 101" cx="5" cy="5" r="5" transform="translate(-109 1378)"/>
      </g>
      <g id="Group_211" data-name="Group 211" transform="translate(4010.969 7877.287) rotate(121)">
        <ellipse id="Ellipse_102-2" data-name="Ellipse 102" cx="14" cy="12" rx="14" ry="12" transform="translate(-84 1361)" fill="#373332"/>
        <circle id="Ellipse_103-2" data-name="Ellipse 103" cx="5" cy="5" r="5" transform="translate(-82 1368)"/>
      </g>
      <g id="Group_212" data-name="Group 212" transform="translate(3914.845 7957.658) rotate(121)">
        <ellipse id="Ellipse_104-2" data-name="Ellipse 104" cx="12" cy="13.5" rx="12" ry="13.5" transform="translate(-146 1366)" fill="#629948"/>
        <circle id="Ellipse_105-2" data-name="Ellipse 105" cx="5" cy="5" r="5" transform="translate(-139 1368)"/>
      </g>
      <g id="Group_213" data-name="Group 213" transform="translate(3975.864 7939.594) rotate(121)">
        <ellipse id="Ellipse_106-2" data-name="Ellipse 106" cx="14" cy="12.5" rx="14" ry="12.5" transform="translate(-63 1360)" fill="#504f4d"/>
        <circle id="Ellipse_107-2" data-name="Ellipse 107" cx="5" cy="5" r="5" transform="translate(-49 1373)"/>
      </g>
      <g id="Group_214" data-name="Group 214" transform="translate(4195.106 7877.49) rotate(121)">
        <g id="Ellipse_116-2" data-name="Ellipse 116" transform="translate(8 1421)" fill="none" stroke="#6a518a" stroke-width="1">
          <circle cx="28.5" cy="28.5" r="28.5" stroke="none"/>
          <circle cx="28.5" cy="28.5" r="28" fill="none"/>
        </g>
        <g id="Path_52-2" data-name="Path 52" transform="translate(9 1422)" fill="none">
          <path d="M27.5,0A27.5,27.5,0,1,1,0,27.5,27.5,27.5,0,0,1,27.5,0Z" stroke="none"/>
          <path d="M 27.5 5 C 24.46031761169434 5 21.51421356201172 5.594200134277344 18.7435188293457 6.766105651855469 C 16.06483459472656 7.899093627929688 13.6580696105957 9.522129058837891 11.59010696411133 11.59010696411133 C 9.522129058837891 13.6580696105957 7.899093627929688 16.06483459472656 6.766105651855469 18.7435188293457 C 5.594200134277344 21.51421356201172 5 24.46031761169434 5 27.5 C 5 30.53968238830566 5.594200134277344 33.48578643798828 6.766105651855469 36.25648498535156 C 7.899093627929688 38.93516540527344 9.522129058837891 41.3419303894043 11.59010696411133 43.40989303588867 C 13.6580696105957 45.47787094116211 16.06483459472656 47.10090637207031 18.7435188293457 48.23389434814453 C 21.51421356201172 49.40579986572266 24.46031761169434 50 27.5 50 C 30.53968238830566 50 33.48578643798828 49.40579986572266 36.25648498535156 48.23389434814453 C 38.93516540527344 47.10090637207031 41.3419303894043 45.47787094116211 43.40989303588867 43.40989303588867 C 45.47787094116211 41.3419303894043 47.10090637207031 38.93516540527344 48.23389434814453 36.25648498535156 C 49.40579986572266 33.48578643798828 50 30.53968238830566 50 27.5 C 50 24.46031761169434 49.40579986572266 21.51421356201172 48.23389434814453 18.7435188293457 C 47.10090637207031 16.06483459472656 45.47787094116211 13.6580696105957 43.40989303588867 11.59010696411133 C 41.3419303894043 9.522129058837891 38.93516540527344 7.899093627929688 36.25648498535156 6.766105651855469 C 33.48578643798828 5.594200134277344 30.53968238830566 5 27.5 5 M 27.5 0 C 42.68782424926758 0 55 12.31217575073242 55 27.5 C 55 42.68782424926758 42.68782424926758 55 27.5 55 C 12.31217575073242 55 0 42.68782424926758 0 27.5 C 0 12.31217575073242 12.31217575073242 0 27.5 0 Z" stroke="none" fill="#f3e9f0"/>
        </g>
      </g>
      <g id="Group_215" data-name="Group 215" transform="matrix(-0.766, 0.643, -0.643, -0.766, 3835.941, 8125.473)">
        <g id="Group_26-3" data-name="Group 26" transform="translate(-17 -3)">
          <path id="Path_47-3" data-name="Path 47" d="M-68.642,1595.991a22.461,22.461,0,0,0,.664-3.029c.489-2.689,1.683-7.6,5.432-8.484,3.6-.845,8.125.272,11.943,3.392a15.555,15.555,0,0,1,3.5,4.194c3.522,6.1,1.625,12.6-1.355,16.8s-10.295,0-10.295,0,.258.519.4.364c.9.8,7.072,6.614,5.285,10.743-1.964,4.538-7.077,7.382-14.358,7.856s-12.123-1.219-14.765-5.96,4.2-13,4.2-13-.092.027-1.517.617c-2.23.858-7.986,2.67-10.538.2-3.319-3.217-3.657-7.958-1.219-13.681s6.129-7.382,10.972-9.211a8.97,8.97,0,0,1,8.669,2.167C-69.217,1591.413-68.642,1595.991-68.642,1595.991Z" transform="translate(68 -231)" fill="none" stroke="#6baf45" stroke-width="3"/>
          <path id="Path_48-3" data-name="Path 48" d="M-71.447,1596.543a8.282,8.282,0,0,0,.943-3.052c.45-2.455,2.077-8.234,5.525-9.038,3.309-.772,7.473.249,10.984,3.1a14.23,14.23,0,0,1,3.218,3.828c3.239,5.564,1.495,11.5-1.246,15.332s-11.125-2.105-11.125-2.105.7,1.644.833,1.5c.824.732,7.7,6.972,6.057,10.741-1.806,4.142-6.509,6.739-13.205,7.172s-11.15-1.113-13.579-5.441,7.173-14.56,7.173-14.56-.2.057-1.507.6c-2.051.784-10.544,5.094-12.891,2.836-3.052-2.937-3.364-7.264-1.121-12.488s5.637-6.739,10.091-8.408a8.3,8.3,0,0,1,7.973,1.978C-71.114,1590.784-71.447,1596.543-71.447,1596.543Z" transform="matrix(1, 0.017, -0.017, 1, 98.375, -227.453)" fill="none" stroke="#89c63d" stroke-width="2"/>
        </g>
      </g>
      <g id="Group_216" data-name="Group 216" transform="matrix(0.07, 0.998, -0.998, 0.07, 4286.7, 7201.762)">
        <ellipse id="Ellipse_100-3" data-name="Ellipse 100" cx="12" cy="15.5" rx="12" ry="15.5" transform="translate(-116 1359)" fill="#78993e"/>
        <circle id="Ellipse_101-3" data-name="Ellipse 101" cx="5" cy="5" r="5" transform="translate(-109 1378)"/>
      </g>
      <g id="Group_217" data-name="Group 217" transform="matrix(0.07, 0.998, -0.998, 0.07, 4241.555, 7136.752)">
        <ellipse id="Ellipse_102-3" data-name="Ellipse 102" cx="14" cy="12" rx="14" ry="12" transform="translate(-84 1361)" fill="#373332"/>
        <circle id="Ellipse_103-3" data-name="Ellipse 103" cx="5" cy="5" r="5" transform="translate(-82 1368)"/>
      </g>
      <g id="Group_218" data-name="Group 218" transform="matrix(0.07, 0.998, -0.998, 0.07, 4208.914, 7257.723)">
        <ellipse id="Ellipse_104-3" data-name="Ellipse 104" cx="12" cy="13.5" rx="12" ry="13.5" transform="translate(-146 1366)" fill="#629948"/>
        <circle id="Ellipse_105-3" data-name="Ellipse 105" cx="5" cy="5" r="5" transform="translate(-139 1368)"/>
      </g>
      <g id="Group_219" data-name="Group 219" transform="matrix(0.07, 0.998, -0.998, 0.07, 4248.537, 7207.926)">
        <ellipse id="Ellipse_106-3" data-name="Ellipse 106" cx="14" cy="12.5" rx="14" ry="12.5" transform="translate(-63 1360)" fill="#504f4d"/>
        <circle id="Ellipse_107-3" data-name="Ellipse 107" cx="5" cy="5" r="5" transform="translate(-49 1373)"/>
      </g>
      <g id="Group_220" data-name="Group 220" transform="matrix(0.07, 0.998, -0.998, 0.07, 4436.685, 6982.346)">
        <g id="Ellipse_116-3" data-name="Ellipse 116" transform="translate(8 1421)" fill="none" stroke="#6a518a" stroke-width="1">
          <circle cx="28.5" cy="28.5" r="28.5" stroke="none"/>
          <circle cx="28.5" cy="28.5" r="28" fill="none"/>
        </g>
        <g id="Path_52-3" data-name="Path 52" transform="translate(9 1422)" fill="none">
          <path d="M27.5,0A27.5,27.5,0,1,1,0,27.5,27.5,27.5,0,0,1,27.5,0Z" stroke="none"/>
          <path d="M 27.5 5 C 24.46031761169434 5 21.51421356201172 5.594200134277344 18.7435188293457 6.766105651855469 C 16.06483459472656 7.899093627929688 13.6580696105957 9.522129058837891 11.59010696411133 11.59010696411133 C 9.522129058837891 13.6580696105957 7.899093627929688 16.06483459472656 6.766105651855469 18.7435188293457 C 5.594200134277344 21.51421356201172 5 24.46031761169434 5 27.5 C 5 30.53968238830566 5.594200134277344 33.48578643798828 6.766105651855469 36.25648498535156 C 7.899093627929688 38.93516540527344 9.522129058837891 41.3419303894043 11.59010696411133 43.40989303588867 C 13.6580696105957 45.47787094116211 16.06483459472656 47.10090637207031 18.7435188293457 48.23389434814453 C 21.51421356201172 49.40579986572266 24.46031761169434 50 27.5 50 C 30.53968238830566 50 33.48578643798828 49.40579986572266 36.25648498535156 48.23389434814453 C 38.93516540527344 47.10090637207031 41.3419303894043 45.47787094116211 43.40989303588867 43.40989303588867 C 45.47787094116211 41.3419303894043 47.10090637207031 38.93516540527344 48.23389434814453 36.25648498535156 C 49.40579986572266 33.48578643798828 50 30.53968238830566 50 27.5 C 50 24.46031761169434 49.40579986572266 21.51421356201172 48.23389434814453 18.7435188293457 C 47.10090637207031 16.06483459472656 45.47787094116211 13.6580696105957 43.40989303588867 11.59010696411133 C 41.3419303894043 9.522129058837891 38.93516540527344 7.899093627929688 36.25648498535156 6.766105651855469 C 33.48578643798828 5.594200134277344 30.53968238830566 5 27.5 5 M 27.5 0 C 42.68782424926758 0 55 12.31217575073242 55 27.5 C 55 42.68782424926758 42.68782424926758 55 27.5 55 C 12.31217575073242 55 0 42.68782424926758 0 27.5 C 0 12.31217575073242 12.31217575073242 0 27.5 0 Z" stroke="none" fill="#f3e9f0"/>
        </g>
      </g>
      <g id="Group_221" data-name="Group 221" transform="translate(1570.551 7448.279) rotate(-99)">
        <g id="Group_26-4" data-name="Group 26" transform="translate(-17 -3)">
          <path id="Path_47-4" data-name="Path 47" d="M-68.642,1595.991a22.461,22.461,0,0,0,.664-3.029c.489-2.689,1.683-7.6,5.432-8.484,3.6-.845,8.125.272,11.943,3.392a15.555,15.555,0,0,1,3.5,4.194c3.522,6.1,1.625,12.6-1.355,16.8s-10.295,0-10.295,0,.258.519.4.364c.9.8,7.072,6.614,5.285,10.743-1.964,4.538-7.077,7.382-14.358,7.856s-12.123-1.219-14.765-5.96,4.2-13,4.2-13-.092.027-1.517.617c-2.23.858-7.986,2.67-10.538.2-3.319-3.217-3.657-7.958-1.219-13.681s6.129-7.382,10.972-9.211a8.97,8.97,0,0,1,8.669,2.167C-69.217,1591.413-68.642,1595.991-68.642,1595.991Z" transform="translate(68 -231)" fill="none" stroke="#6baf45" stroke-width="3"/>
          <path id="Path_48-4" data-name="Path 48" d="M-71.447,1596.543a8.282,8.282,0,0,0,.943-3.052c.45-2.455,2.077-8.234,5.525-9.038,3.309-.772,7.473.249,10.984,3.1a14.23,14.23,0,0,1,3.218,3.828c3.239,5.564,1.495,11.5-1.246,15.332s-11.125-2.105-11.125-2.105.7,1.644.833,1.5c.824.732,7.7,6.972,6.057,10.741-1.806,4.142-6.509,6.739-13.205,7.172s-11.15-1.113-13.579-5.441,7.173-14.56,7.173-14.56-.2.057-1.507.6c-2.051.784-10.544,5.094-12.891,2.836-3.052-2.937-3.364-7.264-1.121-12.488s5.637-6.739,10.091-8.408a8.3,8.3,0,0,1,7.973,1.978C-71.114,1590.784-71.447,1596.543-71.447,1596.543Z" transform="matrix(1, 0.017, -0.017, 1, 98.375, -227.453)" fill="none" stroke="#89c63d" stroke-width="2"/>
        </g>
      </g>
      <g id="Group_222" data-name="Group 222" transform="matrix(-0.891, -0.454, 0.454, -0.891, 2189.378, 8286.117)">
        <ellipse id="Ellipse_100-4" data-name="Ellipse 100" cx="12" cy="15.5" rx="12" ry="15.5" transform="translate(-116 1359)" fill="#78993e"/>
        <circle id="Ellipse_101-4" data-name="Ellipse 101" cx="5" cy="5" r="5" transform="translate(-109 1378)"/>
      </g>
      <g id="Group_223" data-name="Group 223" transform="matrix(-0.891, -0.454, 0.454, -0.891, 2268.353, 8280.902)">
        <ellipse id="Ellipse_102-4" data-name="Ellipse 102" cx="14" cy="12" rx="14" ry="12" transform="translate(-84 1361)" fill="#373332"/>
        <circle id="Ellipse_103-4" data-name="Ellipse 103" cx="5" cy="5" r="5" transform="translate(-82 1368)"/>
      </g>
      <g id="Group_224" data-name="Group 224" transform="matrix(-0.891, -0.454, 0.454, -0.891, 2181.472, 8190.619)">
        <ellipse id="Ellipse_104-4" data-name="Ellipse 104" cx="12" cy="13.5" rx="12" ry="13.5" transform="translate(-146 1366)" fill="#629948"/>
        <circle id="Ellipse_105-4" data-name="Ellipse 105" cx="5" cy="5" r="5" transform="translate(-139 1368)"/>
      </g>
      <g id="Group_225" data-name="Group 225" transform="matrix(-0.891, -0.454, 0.454, -0.891, 2203.75, 8250.229)">
        <ellipse id="Ellipse_106-4" data-name="Ellipse 106" cx="14" cy="12.5" rx="14" ry="12.5" transform="translate(-63 1360)" fill="#504f4d"/>
        <circle id="Ellipse_107-4" data-name="Ellipse 107" cx="5" cy="5" r="5" transform="translate(-49 1373)"/>
      </g>
      <g id="Group_226" data-name="Group 226" transform="matrix(-0.891, -0.454, 0.454, -0.891, 2242.469, 8496.705)">
        <g id="Ellipse_116-4" data-name="Ellipse 116" transform="translate(8 1421)" fill="none" stroke="#6a518a" stroke-width="1">
          <circle cx="28.5" cy="28.5" r="28.5" stroke="none"/>
          <circle cx="28.5" cy="28.5" r="28" fill="none"/>
        </g>
        <g id="Path_52-4" data-name="Path 52" transform="translate(9 1422)" fill="none">
          <path d="M27.5,0A27.5,27.5,0,1,1,0,27.5,27.5,27.5,0,0,1,27.5,0Z" stroke="none"/>
          <path d="M 27.5 5 C 24.46031761169434 5 21.51421356201172 5.594200134277344 18.7435188293457 6.766105651855469 C 16.06483459472656 7.899093627929688 13.6580696105957 9.522129058837891 11.59010696411133 11.59010696411133 C 9.522129058837891 13.6580696105957 7.899093627929688 16.06483459472656 6.766105651855469 18.7435188293457 C 5.594200134277344 21.51421356201172 5 24.46031761169434 5 27.5 C 5 30.53968238830566 5.594200134277344 33.48578643798828 6.766105651855469 36.25648498535156 C 7.899093627929688 38.93516540527344 9.522129058837891 41.3419303894043 11.59010696411133 43.40989303588867 C 13.6580696105957 45.47787094116211 16.06483459472656 47.10090637207031 18.7435188293457 48.23389434814453 C 21.51421356201172 49.40579986572266 24.46031761169434 50 27.5 50 C 30.53968238830566 50 33.48578643798828 49.40579986572266 36.25648498535156 48.23389434814453 C 38.93516540527344 47.10090637207031 41.3419303894043 45.47787094116211 43.40989303588867 43.40989303588867 C 45.47787094116211 41.3419303894043 47.10090637207031 38.93516540527344 48.23389434814453 36.25648498535156 C 49.40579986572266 33.48578643798828 50 30.53968238830566 50 27.5 C 50 24.46031761169434 49.40579986572266 21.51421356201172 48.23389434814453 18.7435188293457 C 47.10090637207031 16.06483459472656 45.47787094116211 13.6580696105957 43.40989303588867 11.59010696411133 C 41.3419303894043 9.522129058837891 38.93516540527344 7.899093627929688 36.25648498535156 6.766105651855469 C 33.48578643798828 5.594200134277344 30.53968238830566 5 27.5 5 M 27.5 0 C 42.68782424926758 0 55 12.31217575073242 55 27.5 C 55 42.68782424926758 42.68782424926758 55 27.5 55 C 12.31217575073242 55 0 42.68782424926758 0 27.5 C 0 12.31217575073242 12.31217575073242 0 27.5 0 Z" stroke="none" fill="#f3e9f0"/>
        </g>
      </g>
      <g id="Group_227" data-name="Group 227" transform="translate(2908.943 7189.691) rotate(-89)">
        <g id="Group_26-5" data-name="Group 26" transform="translate(0 0)">
          <path id="Path_47-5" data-name="Path 47" d="M19.193,9.344a17.8,17.8,0,0,0,.526-2.4C20.107,4.81,21.053.914,24.025.216A11.35,11.35,0,0,1,33.493,2.9a12.332,12.332,0,0,1,2.774,3.325c2.792,4.832,1.289,9.987-1.074,13.316s-8.161,0-8.161,0,.2.411.32.289c.71.636,5.607,5.243,4.19,8.517-1.557,3.6-5.611,5.853-11.383,6.228s-9.611-.966-11.7-4.725,3.329-10.309,3.329-10.309-.073.022-1.2.489c-1.768.68-6.331,2.117-8.355.155C-.4,17.639-.673,13.881,1.26,9.344s4.859-5.852,8.7-7.3A7.111,7.111,0,0,1,16.83,3.76C18.737,5.714,19.193,9.344,19.193,9.344Z" transform="translate(0 0)" fill="none" stroke="#6baf45" stroke-width="3"/>
          <path id="Path_48-5" data-name="Path 48" d="M16.969,9.782a6.565,6.565,0,0,0,.747-2.42C18.073,5.416,19.363.834,22.1.2A10.494,10.494,0,0,1,30.8,2.652a11.281,11.281,0,0,1,2.551,3.035c2.568,4.411,1.185,9.116-.988,12.155s-8.82-1.669-8.82-1.669.554,1.3.66,1.192c.653.581,6.105,5.527,4.8,8.515-1.432,3.284-5.16,5.342-10.469,5.686S9.7,30.682,7.776,27.252s5.686-11.542,5.686-11.542-.156.046-1.2.472c-1.626.621-8.359,4.039-10.22,2.248-2.42-2.328-2.667-5.759-.889-9.9s4.469-5.342,8-6.666a6.576,6.576,0,0,1,6.321,1.568C17.233,5.216,16.969,9.782,16.969,9.782Z" transform="matrix(1, 0.017, -0.017, 1, 2.173, 1.336)" fill="none" stroke="#89c63d" stroke-width="2"/>
        </g>
      </g>
      <g id="Group_228" data-name="Group 228" transform="matrix(-0.799, -0.602, 0.602, -0.799, 2891.396, 7218.612)">
        <g id="Ellipse_116-5" data-name="Ellipse 116" transform="translate(0)" fill="none" stroke="#6a518a" stroke-width="1">
          <ellipse cx="22.594" cy="22.594" rx="22.594" ry="22.594" stroke="none"/>
          <ellipse cx="22.594" cy="22.594" rx="22.094" ry="22.094" fill="none"/>
        </g>
        <g id="Path_52-5" data-name="Path 52" transform="translate(0.793 0.793)" fill="none">
          <path d="M21.8,0A21.8,21.8,0,1,1,0,21.8,21.8,21.8,0,0,1,21.8,0Z" stroke="none"/>
          <path d="M 21.80121612548828 5.000011444091797 C 17.31389236450195 5.000011444091797 13.09487152099609 6.74774169921875 9.92132568359375 9.9212646484375 C 6.747772216796875 13.09479904174805 5.000015258789063 17.3138542175293 5.000015258789063 21.80124282836914 C 5.000015258789063 26.28900909423828 6.747650146484375 30.50817680358887 9.920993804931641 33.68152236938477 C 13.09432601928711 36.85485458374023 17.3134937286377 38.60249710083008 21.80125999450684 38.60249710083008 C 26.28903770446777 38.60249710083008 30.50819396972656 36.85486602783203 33.68152618408203 33.68153381347656 C 36.8548583984375 30.50819778442383 38.60248184204102 26.28904342651367 38.60248184204102 21.80126571655273 C 38.60248184204102 17.3134880065918 36.8548469543457 13.09433174133301 33.68150329589844 9.920986175537109 C 30.50817108154297 6.747653961181641 26.28899383544922 5.000011444091797 21.80121612548828 5.000011444091797 M 21.80121612548828 1.1444091796875e-05 C 21.80195236206055 1.1444091796875e-05 21.80050277709961 1.1444091796875e-05 21.80123710632324 1.1444091796875e-05 C 33.84172821044922 1.9073486328125e-05 43.60248184204102 9.760776519775391 43.60248184204102 21.80126571655273 C 43.60249328613281 33.84175491333008 33.84174728393555 43.60249710083008 21.80125999450684 43.60249710083008 C 9.760768890380859 43.60248947143555 1.52587890625e-05 33.84173202514648 1.52587890625e-05 21.80124282836914 C 3.814697265625e-06 9.761489868164063 9.761741638183594 1.1444091796875e-05 21.80121612548828 1.1444091796875e-05 Z" stroke="none" fill="#f3e9f0"/>
        </g>
      </g>
      <g id="Group_229" data-name="Group 229" transform="matrix(0.848, 0.53, -0.53, 0.848, 2916.765, 7041.538)">
        <g id="Group_26-6" data-name="Group 26" transform="translate(0 0)">
          <path id="Path_47-6" data-name="Path 47" d="M19.193,9.344a17.81,17.81,0,0,0,.526-2.4C20.107,4.81,21.053.914,24.025.216a11.35,11.35,0,0,1,9.468,2.689,12.331,12.331,0,0,1,2.774,3.324c2.792,4.832,1.289,9.987-1.074,13.316s-8.161,0-8.161,0,.2.411.32.289c.71.636,5.607,5.243,4.19,8.517-1.557,3.6-5.611,5.853-11.383,6.228s-9.611-.966-11.7-4.725,3.329-10.309,3.329-10.309-.073.022-1.2.489c-1.768.68-6.331,2.116-8.355.155C-.4,17.639-.673,13.881,1.26,9.344s4.859-5.853,8.7-7.3A7.111,7.111,0,0,1,16.83,3.76C18.737,5.714,19.193,9.344,19.193,9.344Z" fill="none" stroke="#6baf45" stroke-width="3"/>
          <path id="Path_48-6" data-name="Path 48" d="M16.969,9.782a6.566,6.566,0,0,0,.747-2.42C18.073,5.416,19.363.834,22.1.2A10.493,10.493,0,0,1,30.8,2.652a11.281,11.281,0,0,1,2.551,3.035c2.568,4.411,1.185,9.116-.988,12.155s-8.82-1.669-8.82-1.669.554,1.3.66,1.192c.653.581,6.105,5.527,4.8,8.515-1.432,3.284-5.16,5.342-10.469,5.686S9.7,30.682,7.776,27.252s5.686-11.542,5.686-11.542-.156.046-1.2.472c-1.626.621-8.359,4.039-10.22,2.248-2.42-2.328-2.667-5.759-.889-9.9s4.469-5.342,8-6.666a6.576,6.576,0,0,1,6.321,1.568C17.233,5.216,16.969,9.782,16.969,9.782Z" transform="matrix(1, 0.017, -0.017, 1, 2.173, 1.336)" fill="none" stroke="#89c63d" stroke-width="2"/>
        </g>
      </g>
      <g id="Group_230" data-name="Group 230" transform="translate(2923.605 7174.485) rotate(-22)">
        <g id="Ellipse_116-6" data-name="Ellipse 116" fill="none" stroke="#6a518a" stroke-width="1">
          <ellipse cx="22.594" cy="22.594" rx="22.594" ry="22.594" stroke="none"/>
          <ellipse cx="22.594" cy="22.594" rx="22.094" ry="22.094" fill="none"/>
        </g>
        <g id="Path_52-6" data-name="Path 52" transform="translate(0.793 0.793)" fill="none">
          <path d="M21.8,0A21.8,21.8,0,1,1,0,21.8,21.8,21.8,0,0,1,21.8,0Z" stroke="none"/>
          <path d="M 21.80123138427734 4.999996185302734 C 17.3134651184082 4.999996185302734 13.09429740905762 6.747627258300781 9.920963287353516 9.920970916748047 C 6.747631072998047 13.09430503845215 4.999984741210938 17.31347274780273 4.999984741210938 21.80125045776367 C 4.999984741210938 26.28902816772461 6.74761962890625 30.50818252563477 9.920951843261719 33.6815185546875 C 13.09428596496582 36.85486221313477 17.31344223022461 38.60248184204102 21.80120849609375 38.60248184204102 C 26.28897476196289 38.60248184204102 30.50814247131348 36.85485076904297 33.68147659301758 33.6815071105957 C 36.85480880737305 30.50817108154297 38.60245513916016 26.28900527954102 38.60245513916016 21.80122756958008 C 38.60245513916016 17.31344985961914 36.85482025146484 13.09429550170898 33.68148803710938 9.92095947265625 C 30.50815200805664 6.747615814208984 26.28899765014648 4.999996185302734 21.80123138427734 4.999996185302734 M 21.80123138427734 -3.814697265625e-06 C 33.84170913696289 -1.52587890625e-05 43.60245513916016 9.760738372802734 43.60245513916016 21.80122756958008 C 43.60244369506836 33.84172821044922 33.84169769287109 43.60248184204102 21.80120849609375 43.60248184204102 C 9.760730743408203 43.60249328613281 -1.52587890625e-05 33.84173965454102 -1.52587890625e-05 21.80125045776367 C -3.814697265625e-06 9.760749816894531 9.7607421875 -3.814697265625e-06 21.80123138427734 -3.814697265625e-06 Z" stroke="none" fill="#f3e9f0"/>
        </g>
      </g>
      <g id="Group_231" data-name="Group 231" transform="translate(2853.688 7132.634) rotate(-3)">
        <g id="Group_26-7" data-name="Group 26" transform="translate(0)">
          <path id="Path_47-7" data-name="Path 47" d="M19.193,9.344a17.808,17.808,0,0,0,.526-2.4C20.107,4.81,21.053.914,24.025.216a11.349,11.349,0,0,1,9.468,2.689A12.33,12.33,0,0,1,36.267,6.23c2.792,4.832,1.289,9.987-1.074,13.316s-8.161,0-8.161,0,.2.411.32.289c.71.636,5.607,5.243,4.19,8.517-1.557,3.6-5.611,5.853-11.383,6.228s-9.611-.966-11.7-4.725,3.329-10.309,3.329-10.309-.073.022-1.2.489c-1.768.68-6.331,2.117-8.355.155C-.4,17.639-.673,13.881,1.26,9.344s4.859-5.853,8.7-7.3A7.11,7.11,0,0,1,16.83,3.76C18.737,5.714,19.193,9.344,19.193,9.344Z" transform="translate(0 0)" fill="none" stroke="#6baf45" stroke-width="3"/>
          <path id="Path_48-7" data-name="Path 48" d="M16.968,9.782a6.566,6.566,0,0,0,.747-2.42C18.073,5.416,19.363.834,22.1.2A10.494,10.494,0,0,1,30.8,2.652a11.281,11.281,0,0,1,2.551,3.035c2.568,4.411,1.185,9.116-.988,12.155s-8.82-1.669-8.82-1.669.554,1.3.66,1.192c.653.581,6.105,5.527,4.8,8.515-1.432,3.284-5.16,5.342-10.469,5.686S9.7,30.682,7.776,27.252s5.686-11.542,5.686-11.542-.156.046-1.2.472c-1.626.621-8.359,4.039-10.22,2.248-2.42-2.328-2.667-5.759-.889-9.9s4.469-5.342,8-6.666a6.576,6.576,0,0,1,6.321,1.568C17.233,5.216,16.968,9.782,16.968,9.782Z" transform="matrix(1, 0.017, -0.017, 1, 2.173, 1.336)" fill="none" stroke="#89c63d" stroke-width="2"/>
        </g>
      </g>
      <g id="Group_232" data-name="Group 232" transform="translate(2813.118 7124.33) rotate(-57)">
        <g id="Ellipse_116-7" data-name="Ellipse 116" fill="none" stroke="#6a518a" stroke-width="1">
          <ellipse cx="22.594" cy="22.594" rx="22.594" ry="22.594" stroke="none"/>
          <ellipse cx="22.594" cy="22.594" rx="22.094" ry="22.094" fill="none"/>
        </g>
        <g id="Path_52-7" data-name="Path 52" transform="translate(0.793 0.793)" fill="none">
          <path d="M21.8,0A21.8,21.8,0,1,1,0,21.8,21.8,21.8,0,0,1,21.8,0Z" stroke="none"/>
          <path d="M 21.80124473571777 4.999988555908203 C 17.31346702575684 4.999988555908203 13.09429931640625 6.747631072998047 9.920967102050781 9.920967102050781 C 6.747634887695313 13.09429931640625 4.999988555908203 17.31346702575684 4.999988555908203 21.80123329162598 C 4.999988555908203 26.28901100158691 6.747611999511719 30.5081672668457 9.920944213867188 33.68149948120117 C 13.09427833557129 36.85483169555664 17.31344413757324 38.60245513916016 21.80122184753418 38.60245513916016 C 26.28898811340332 38.60245513916016 30.50815582275391 36.85481262207031 33.68149948120117 33.68147659301758 C 36.85483169555664 30.50814437866211 38.60247802734375 26.28897666931152 38.60247802734375 21.80121040344238 C 38.60247802734375 17.31343269348145 36.85485458374023 13.09427833557129 33.68151092529297 9.920944213867188 C 30.5081787109375 6.747611999511719 26.28902244567871 4.999988555908203 21.80124473571777 4.999988555908203 M 21.80124473571777 -1.1444091796875e-05 C 33.84173202514648 -2.288818359375e-05 43.60248947143555 9.760723114013672 43.60247802734375 21.80121040344238 C 43.60246658325195 33.84169769287109 33.84171295166016 43.60244369506836 21.80122184753418 43.60245513916016 C 9.760723114013672 43.60246658325195 -2.288818359375e-05 33.84172058105469 -1.1444091796875e-05 21.80123329162598 C 0 9.7607421875 9.760746002197266 0 21.80124473571777 -1.1444091796875e-05 Z" stroke="none" fill="#f3e9f0"/>
        </g>
      </g>
      <g id="Group_233" data-name="Group 233" transform="translate(2957.264 7120.073) rotate(118)">
        <g id="Group_26-8" data-name="Group 26">
          <path id="Path_47-8" data-name="Path 47" d="M19.193,9.344a17.809,17.809,0,0,0,.526-2.4C20.107,4.81,21.053.914,24.025.216A11.35,11.35,0,0,1,33.493,2.9a12.334,12.334,0,0,1,2.774,3.325c2.792,4.832,1.289,9.987-1.074,13.316s-8.161,0-8.161,0,.2.411.32.289c.71.636,5.607,5.243,4.19,8.517-1.557,3.6-5.611,5.853-11.383,6.228s-9.611-.966-11.7-4.725,3.329-10.309,3.329-10.309-.073.022-1.2.489c-1.768.68-6.331,2.117-8.355.155C-.4,17.639-.673,13.881,1.26,9.344s4.859-5.853,8.7-7.3A7.111,7.111,0,0,1,16.83,3.76C18.737,5.714,19.193,9.344,19.193,9.344Z" fill="none" stroke="#6baf45" stroke-width="3"/>
          <path id="Path_48-8" data-name="Path 48" d="M16.968,9.782a6.566,6.566,0,0,0,.747-2.42C18.073,5.416,19.363.834,22.1.2A10.494,10.494,0,0,1,30.8,2.652a11.283,11.283,0,0,1,2.551,3.035c2.568,4.411,1.185,9.116-.988,12.155s-8.82-1.669-8.82-1.669.554,1.3.66,1.192c.653.58,6.105,5.527,4.8,8.515-1.432,3.283-5.16,5.342-10.469,5.685S9.7,30.682,7.776,27.252s5.686-11.542,5.686-11.542-.156.045-1.2.472c-1.626.621-8.359,4.039-10.22,2.248-2.42-2.328-2.667-5.759-.889-9.9s4.469-5.342,8-6.666a6.576,6.576,0,0,1,6.321,1.568C17.233,5.216,16.968,9.782,16.968,9.782Z" transform="matrix(1, 0.017, -0.017, 1, 2.173, 1.336)" fill="none" stroke="#89c63d" stroke-width="2"/>
        </g>
      </g>
      <g id="Group_234" data-name="Group 234" transform="matrix(0.438, 0.899, -0.899, 0.438, 2959.205, 7084.042)">
        <g id="Ellipse_116-8" data-name="Ellipse 116" transform="translate(0 0)" fill="none" stroke="#6a518a" stroke-width="1">
          <ellipse cx="22.594" cy="22.594" rx="22.594" ry="22.594" stroke="none"/>
          <ellipse cx="22.594" cy="22.594" rx="22.094" ry="22.094" fill="none"/>
        </g>
        <g id="Path_52-8" data-name="Path 52" transform="translate(0.793 0.793)" fill="none">
          <path d="M21.8,0A21.8,21.8,0,1,1,0,21.8,21.8,21.8,0,0,1,21.8,0Z" stroke="none"/>
          <path d="M 21.80124473571777 7.62939453125e-06 L 21.80124473571777 5.000007629394531 C 17.31346702575684 5.000007629394531 13.09431266784668 6.747642517089844 9.920978546142578 9.920974731445313 C 6.747634887695313 13.09430694580078 5.000011444091797 17.31346321105957 5.000011444091797 21.80122947692871 C 5.000011444091797 26.28899574279785 6.747646331787109 30.50816345214844 9.920989990234375 33.68149566650391 C 13.09432220458984 36.85482788085938 17.31348991394043 38.60247421264648 21.80126762390137 38.60247421264648 C 26.2890453338623 38.60247421264648 30.50820159912109 36.85483932495117 33.68153381347656 33.6815071105957 C 36.85487747192383 30.50817489624023 38.60250091552734 26.28901863098145 38.60250091552734 21.8012523651123 C 38.60250091552734 17.31348609924316 36.85486602783203 13.09431838989258 33.68152236938477 9.920986175537109 C 30.5081787109375 6.747650146484375 26.28901100158691 5.000007629394531 21.80124473571777 5.000007629394531 L 21.80124473571777 7.62939453125e-06 M 21.80124473571777 7.62939453125e-06 C 33.84173583984375 1.9073486328125e-05 43.60250091552734 9.760761260986328 43.60250091552734 21.8012523651123 C 43.60251235961914 33.84172821044922 33.84175491333008 43.60247421264648 21.80126762390137 43.60247421264648 C 9.760768890380859 43.60246276855469 1.1444091796875e-05 33.84172058105469 1.1444091796875e-05 21.80122947692871 C 0 9.7607421875 9.760757446289063 7.62939453125e-06 21.80124473571777 7.62939453125e-06 Z" stroke="none" fill="#f3e9f0"/>
        </g>
      </g>
      <g id="Group_237" data-name="Group 237" transform="translate(2174.644 565.322)">
        <rect id="Rectangle_78" data-name="Rectangle 78" width="34" height="53" rx="7" transform="translate(687.275 6560.811) rotate(-19)" fill="#f3dabb"/>
        <rect id="Rectangle_79" data-name="Rectangle 79" width="8.917" height="53" transform="translate(695.784 6557.881) rotate(-19)" fill="#eac89a"/>
        <rect id="Rectangle_80" data-name="Rectangle 80" width="3.917" height="53" transform="translate(707.784 6553.881) rotate(-19)" fill="#eac89a"/>
      </g>
      <g id="Group_238" data-name="Group 238" transform="translate(2105.302 625.157)">
        <rect id="Rectangle_78-2" data-name="Rectangle 78" width="34" height="53" rx="7" transform="translate(687.275 6560.811) rotate(-19)" fill="#f3dabb"/>
        <rect id="Rectangle_79-2" data-name="Rectangle 79" width="3.917" height="53" transform="translate(697.305 6557.253) rotate(-19)" fill="#eac89a"/>
        <rect id="Rectangle_80-2" data-name="Rectangle 80" width="3.917" height="53" transform="translate(707.784 6553.881) rotate(-19)" fill="#eac89a"/>
        <rect id="Rectangle_81" data-name="Rectangle 81" width="3.917" height="52.773" transform="translate(692.631 6559.198) rotate(-19)" fill="#eac89a"/>
      </g>
      <g id="Group_239" data-name="Group 239" transform="matrix(-0.174, 0.985, -0.985, -0.174, 9527.725, 7490.084)">
        <rect id="Rectangle_78-3" data-name="Rectangle 78" width="34" height="53" rx="7" transform="translate(687.275 6560.811) rotate(-19)" fill="#f3dabb"/>
        <rect id="Rectangle_79-3" data-name="Rectangle 79" width="8.917" height="53" transform="translate(695.784 6557.881) rotate(-19)" fill="#eac89a"/>
        <rect id="Rectangle_80-3" data-name="Rectangle 80" width="3.917" height="53" transform="translate(707.784 6553.881) rotate(-19)" fill="#eac89a"/>
      </g>
      <g id="Group_240" data-name="Group 240" transform="matrix(-0.174, 0.985, -0.985, -0.174, 9413.952, 7564.289)">
        <rect id="Rectangle_78-4" data-name="Rectangle 78" width="34" height="53" rx="7" transform="translate(687.275 6560.811) rotate(-19)" fill="#f3dabb"/>
        <rect id="Rectangle_79-4" data-name="Rectangle 79" width="3.917" height="53" transform="translate(697.305 6557.253) rotate(-19)" fill="#eac89a"/>
        <rect id="Rectangle_80-4" data-name="Rectangle 80" width="3.917" height="53" transform="translate(707.784 6553.881) rotate(-19)" fill="#eac89a"/>
        <rect id="Rectangle_81-2" data-name="Rectangle 81" width="3.917" height="52.773" transform="translate(692.631 6559.198) rotate(-19)" fill="#eac89a"/>
      </g>
      <g id="Group_241" data-name="Group 241" transform="translate(6812.986 1692.964) rotate(41)">
        <rect id="Rectangle_78-5" data-name="Rectangle 78" width="34" height="53" rx="7" transform="translate(687.275 6560.811) rotate(-19)" fill="#f3dabb"/>
        <rect id="Rectangle_79-5" data-name="Rectangle 79" width="8.917" height="53" transform="translate(695.784 6557.881) rotate(-19)" fill="#eac89a"/>
        <rect id="Rectangle_80-5" data-name="Rectangle 80" width="3.917" height="53" transform="translate(707.784 6553.881) rotate(-19)" fill="#eac89a"/>
      </g>
      <g id="Group_242" data-name="Group 242" transform="matrix(-0.777, 0.629, -0.629, -0.777, 7662.156, 11896.654)">
        <rect id="Rectangle_78-6" data-name="Rectangle 78" width="34" height="53" rx="7" transform="translate(687.275 6560.811) rotate(-19)" fill="#f3dabb"/>
        <rect id="Rectangle_79-6" data-name="Rectangle 79" width="3.917" height="53" transform="translate(697.305 6557.253) rotate(-19)" fill="#eac89a"/>
        <rect id="Rectangle_80-6" data-name="Rectangle 80" width="3.917" height="53" transform="translate(707.784 6553.881) rotate(-19)" fill="#eac89a"/>
        <rect id="Rectangle_81-3" data-name="Rectangle 81" width="3.917" height="52.773" transform="translate(692.631 6559.198) rotate(-19)" fill="#eac89a"/>
      </g>
      <g id="Group_243" data-name="Group 243" transform="matrix(0.174, -0.985, 0.985, 0.174, -3709.26, 6783.645)">
        <rect id="Rectangle_78-7" data-name="Rectangle 78" width="34" height="53" rx="7" transform="translate(687.275 6560.811) rotate(-19)" fill="#f3dabb"/>
        <rect id="Rectangle_79-7" data-name="Rectangle 79" width="8.917" height="53" transform="translate(695.784 6557.881) rotate(-19)" fill="#eac89a"/>
        <rect id="Rectangle_80-7" data-name="Rectangle 80" width="3.917" height="53" transform="translate(707.784 6553.881) rotate(-19)" fill="#eac89a"/>
      </g>
      <g id="Group_246" data-name="Group 246" transform="translate(4563.629 656.446) rotate(20)">
        <rect id="Rectangle_78-8" data-name="Rectangle 78" width="34" height="53" rx="7" transform="translate(687.275 6560.811) rotate(-19)" fill="#f3dabb"/>
        <rect id="Rectangle_79-8" data-name="Rectangle 79" width="3.917" height="53" transform="translate(697.305 6557.253) rotate(-19)" fill="#eac89a"/>
        <rect id="Rectangle_80-8" data-name="Rectangle 80" width="3.917" height="53" transform="translate(707.784 6553.881) rotate(-19)" fill="#eac89a"/>
        <rect id="Rectangle_81-4" data-name="Rectangle 81" width="3.917" height="52.773" transform="translate(692.631 6559.198) rotate(-19)" fill="#eac89a"/>
      </g>
      <g id="Group_247" data-name="Group 247" transform="translate(-1694.995 2509.821) rotate(-39)">
        <rect id="Rectangle_78-9" data-name="Rectangle 78" width="34" height="53" rx="7" transform="translate(687.275 6560.811) rotate(-19)" fill="#f3dabb"/>
        <rect id="Rectangle_79-9" data-name="Rectangle 79" width="8.917" height="53" transform="translate(695.784 6557.881) rotate(-19)" fill="#eac89a"/>
        <rect id="Rectangle_80-9" data-name="Rectangle 80" width="3.917" height="53" transform="translate(707.784 6553.881) rotate(-19)" fill="#eac89a"/>
      </g>
      <g id="Group_248" data-name="Group 248" transform="matrix(0.485, 0.875, -0.875, 0.485, 8257.433, 3226.87)">
        <rect id="Rectangle_78-10" data-name="Rectangle 78" width="34" height="53" rx="7" transform="translate(687.275 6560.811) rotate(-19)" fill="#f3dabb"/>
        <rect id="Rectangle_79-10" data-name="Rectangle 79" width="3.917" height="53" transform="translate(697.305 6557.253) rotate(-19)" fill="#eac89a"/>
        <rect id="Rectangle_80-10" data-name="Rectangle 80" width="3.917" height="53" transform="translate(707.784 6553.881) rotate(-19)" fill="#eac89a"/>
        <rect id="Rectangle_81-5" data-name="Rectangle 81" width="3.917" height="52.773" transform="translate(692.631 6559.198) rotate(-19)" fill="#eac89a"/>
      </g>
      <g id="Group_251" data-name="Group 251" transform="translate(-3472 -2056)">
        <circle id="Ellipse_273" data-name="Ellipse 273" cx="37.5" cy="37.5" r="37.5" transform="translate(6290 9079)" fill="#a91e23"/>
        <circle id="Ellipse_274" data-name="Ellipse 274" cx="30.5" cy="30.5" r="30.5" transform="translate(6297 9086)" fill="#d12123"/>
        <rect id="Rectangle_82" data-name="Rectangle 82" width="8" height="75" transform="translate(6324 9079)" fill="#a91e23"/>
        <path id="Path_176" data-name="Path 176" d="M6240.946,9101.565c0-.235,2.7-6,2.181-8.784s-2.535-2.785-4.245-2.357-3.11,1.282-2.594,4.067S6240.946,9101.565,6240.946,9101.565Z" transform="matrix(-0.105, 0.995, -0.995, -0.105, 16042.981, 3862.339)" fill="#ea1f23"/>
        <path id="Path_177" data-name="Path 177" d="M6240.946,9101.565c0-.235,2.7-6,2.181-8.784s-2.535-2.785-4.245-2.357-3.11,1.282-2.594,4.067S6240.946,9101.565,6240.946,9101.565Z" transform="translate(16290.492 13892.322) rotate(150)" fill="#ea1f23"/>
        <path id="Path_178" data-name="Path 178" d="M6240.946,9101.565c0-.235,2.7-6,2.181-8.784s-2.535-2.785-4.245-2.357-3.11,1.282-2.594,4.067S6240.946,9101.565,6240.946,9101.565Z" transform="matrix(-0.259, 0.966, -0.966, -0.259, 16745.6, 5454.008)" fill="#ea1f23"/>
        <path id="Path_179" data-name="Path 179" d="M6240.946,9101.565c0-.235,2.7-6,2.181-8.784s-2.535-2.785-4.245-2.357-3.11,1.282-2.594,4.067S6240.946,9101.565,6240.946,9101.565Z" transform="matrix(0.225, 0.974, -0.974, 0.225, 13802.453, 979.999)" fill="#ea1f23"/>
        <path id="Path_180" data-name="Path 180" d="M6240.946,9101.565c0-.235,2.7-6,2.181-8.784s-2.535-2.785-4.245-2.357-3.11,1.282-2.594,4.067S6240.946,9101.565,6240.946,9101.565Z" transform="translate(8357.844 -1746.998) rotate(45)" fill="#ea1f23"/>
        <path id="Path_181" data-name="Path 181" d="M6240.946,9101.565c0-.235,2.7-6,2.181-8.784s-2.535-2.785-4.245-2.357-3.11,1.282-2.594,4.067S6240.946,9101.565,6240.946,9101.565Z" transform="matrix(-0.017, -1, 1, -0.017, -2675.616, 15514.143)" fill="#ea1f23"/>
        <path id="Path_182" data-name="Path 182" d="M6240.946,9101.565c0-.235,2.7-6,2.181-8.784s-2.535-2.785-4.245-2.357-3.11,1.282-2.594,4.067S6240.946,9101.565,6240.946,9101.565Z" transform="matrix(0.799, -0.602, 0.602, 0.799, -4143.629, 5589.085)" fill="#ea1f23"/>
        <path id="Path_183" data-name="Path 183" d="M6240.946,9101.565c0-.235,2.7-6,2.181-8.784s-2.535-2.785-4.245-2.357-3.11,1.282-2.594,4.067S6240.946,9101.565,6240.946,9101.565Z" transform="translate(-3566.973 14019.965) rotate(-82)" fill="#ea1f23"/>
        <path id="Path_184" data-name="Path 184" d="M6240.946,9101.565c0-.235,2.7-6,2.181-8.784s-2.535-2.785-4.245-2.357-3.11,1.282-2.594,4.067S6240.946,9101.565,6240.946,9101.565Z" transform="matrix(-0.342, -0.94, 0.94, -0.342, -100.519, 18101.947)" fill="#ea1f23"/>
        <path id="Path_185" data-name="Path 185" d="M6240.946,9101.565c0-.235,2.7-6,2.181-8.784s-2.535-2.785-4.245-2.357-3.11,1.282-2.594,4.067S6240.946,9101.565,6240.946,9101.565Z" transform="translate(5635.844 20145.086) rotate(-142)" fill="#ea1f23"/>
      </g>
      <g id="Group_252" data-name="Group 252" transform="translate(9343.587 -1941.071) rotate(70)">
        <circle id="Ellipse_273-2" data-name="Ellipse 273" cx="29" cy="29" r="29" transform="translate(6290 9079.098)" fill="#a91e23"/>
        <circle id="Ellipse_274-2" data-name="Ellipse 274" cx="24" cy="24" r="24" transform="translate(6295 9084.098)" fill="#d12123"/>
        <rect id="Rectangle_82-2" data-name="Rectangle 82" width="7" height="58" transform="translate(6316 9079.098)" fill="#a91e23"/>
        <path id="Path_176-2" data-name="Path 176" d="M3.692,8.791c0-.182,2.089-4.647,1.689-6.8S3.418-.171,2.094.16-.315,1.154.084,3.311,3.692,8.791,3.692,8.791Z" transform="matrix(-0.105, 0.995, -0.995, -0.105, 6337.023, 9106.244)" fill="#ea1f23"/>
        <path id="Path_177-2" data-name="Path 177" d="M3.692,8.791c0-.182,2.089-4.647,1.689-6.8S3.418-.171,2.094.16-.315,1.154.084,3.311,3.692,8.791,3.692,8.791Z" transform="translate(6332.368 9124.745) rotate(150)" fill="#ea1f23"/>
        <path id="Path_178-2" data-name="Path 178" d="M3.692,8.791c0-.182,2.089-4.647,1.689-6.8S3.418-.171,2.094.16-.315,1.154.084,3.311,3.692,8.791,3.692,8.791Z" transform="matrix(-0.259, 0.966, -0.966, -0.259, 6337.317, 9114.613)" fill="#ea1f23"/>
        <path id="Path_179-2" data-name="Path 179" d="M3.692,8.791c0-.182,2.089-4.647,1.689-6.8S3.418-.171,2.094.16-.315,1.154.084,3.311,3.692,8.791,3.692,8.791Z" transform="matrix(0.225, 0.974, -0.974, 0.225, 6334.97, 9096.196)" fill="#ea1f23"/>
        <path id="Path_180-2" data-name="Path 180" d="M3.692,8.791c0-.182,2.089-4.647,1.689-6.8S3.418-.171,2.094.16-.315,1.154.084,3.311,3.692,8.791,3.692,8.791Z" transform="translate(6328.527 9087.831) rotate(45)" fill="#ea1f23"/>
        <path id="Path_181-2" data-name="Path 181" d="M3.692,8.791c0-.182,2.089-4.647,1.689-6.8S3.418-.171,2.094.16-.315,1.154.084,3.311,3.692,8.791,3.692,8.791Z" transform="matrix(-0.017, -1, 1, -0.017, 6301.14, 9110.967)" fill="#ea1f23"/>
        <path id="Path_182-2" data-name="Path 182" d="M3.692,8.791c0-.182,2.089-4.647,1.689-6.8S3.418-.171,2.094.16-.315,1.154.084,3.311,3.692,8.791,3.692,8.791Z" transform="matrix(0.799, -0.602, 0.602, 0.799, 6303.505, 9092.036)" fill="#ea1f23"/>
        <path id="Path_183-2" data-name="Path 183" d="M3.692,8.791c0-.182,2.089-4.647,1.689-6.8S3.418-.171,2.094.16-.315,1.154.084,3.311,3.692,8.791,3.692,8.791Z" transform="translate(6299.828 9102.695) rotate(-82)" fill="#ea1f23"/>
        <path id="Path_184-2" data-name="Path 184" d="M3.692,8.791c0-.182,2.089-4.647,1.689-6.8S3.418-.171,2.094.16-.315,1.154.084,3.311,3.692,8.791,3.692,8.791Z" transform="matrix(-0.342, -0.94, 0.94, -0.342, 6304.401, 9120.689)" fill="#ea1f23"/>
        <path id="Path_185-2" data-name="Path 185" d="M3.692,8.791c0-.182,2.089-4.647,1.689-6.8S3.418-.171,2.094.16-.315,1.154.084,3.311,3.692,8.791,3.692,8.791Z" transform="translate(6311.817 9128.207) rotate(-142)" fill="#ea1f23"/>
      </g>
      <g id="Group_253" data-name="Group 253" transform="translate(13817.505 5161.232) rotate(114)">
        <circle id="Ellipse_273-3" data-name="Ellipse 273" cx="18.65" cy="18.65" r="18.65" transform="translate(6290 9079.098)" fill="#a91e23"/>
        <circle id="Ellipse_274-3" data-name="Ellipse 274" cx="15.434" cy="15.434" r="15.434" transform="translate(6293.215 9082.313)" fill="#d12123"/>
        <rect id="Rectangle_82-3" data-name="Rectangle 82" width="4.502" height="37.3" transform="translate(6306.721 9079.098)" fill="#a91e23"/>
        <path id="Path_176-3" data-name="Path 176" d="M2.375,5.653c0-.117,1.343-2.988,1.086-4.376S2.2-.11,1.346.1A1.512,1.512,0,0,0,.054,2.129C.311,3.517,2.375,5.653,2.375,5.653Z" transform="matrix(-0.105, 0.995, -0.995, -0.105, 6320.241, 9096.556)" fill="#ea1f23"/>
        <path id="Path_177-3" data-name="Path 177" d="M2.375,5.653c0-.117,1.343-2.988,1.086-4.376S2.2-.11,1.346.1A1.512,1.512,0,0,0,.054,2.129C.311,3.517,2.375,5.653,2.375,5.653Z" transform="translate(6317.247 9108.453) rotate(150)" fill="#ea1f23"/>
        <path id="Path_178-3" data-name="Path 178" d="M2.375,5.653c0-.117,1.343-2.988,1.086-4.376S2.2-.11,1.346.1A1.512,1.512,0,0,0,.054,2.129C.311,3.517,2.375,5.653,2.375,5.653Z" transform="matrix(-0.259, 0.966, -0.966, -0.259, 6320.43, 9101.938)" fill="#ea1f23"/>
        <path id="Path_179-3" data-name="Path 179" d="M2.375,5.653c0-.117,1.343-2.988,1.086-4.376S2.2-.11,1.346.1A1.512,1.512,0,0,0,.054,2.129C.311,3.517,2.375,5.653,2.375,5.653Z" transform="matrix(0.225, 0.974, -0.974, 0.225, 6318.92, 9090.094)" fill="#ea1f23"/>
        <path id="Path_180-3" data-name="Path 180" d="M2.375,5.653c0-.117,1.343-2.988,1.086-4.376S2.2-.11,1.346.1A1.512,1.512,0,0,0,.054,2.129C.311,3.517,2.375,5.653,2.375,5.653Z" transform="translate(6314.777 9084.714) rotate(45)" fill="#ea1f23"/>
        <path id="Path_181-3" data-name="Path 181" d="M2.375,5.653c0-.117,1.343-2.988,1.086-4.376S2.2-.11,1.346.1A1.512,1.512,0,0,0,.054,2.129C.311,3.517,2.375,5.653,2.375,5.653Z" transform="matrix(-0.017, -1, 1, -0.017, 6297.164, 9099.593)" fill="#ea1f23"/>
        <path id="Path_182-3" data-name="Path 182" d="M2.375,5.653c0-.117,1.343-2.988,1.086-4.376S2.2-.11,1.346.1A1.512,1.512,0,0,0,.054,2.129C.311,3.517,2.375,5.653,2.375,5.653Z" transform="matrix(0.799, -0.602, 0.602, 0.799, 6298.686, 9087.418)" fill="#ea1f23"/>
        <path id="Path_183-3" data-name="Path 183" d="M2.375,5.653c0-.117,1.343-2.988,1.086-4.376S2.2-.11,1.346.1A1.512,1.512,0,0,0,.054,2.129C.311,3.517,2.375,5.653,2.375,5.653Z" transform="translate(6296.32 9094.273) rotate(-82)" fill="#ea1f23"/>
        <path id="Path_184-3" data-name="Path 184" d="M2.375,5.653c0-.117,1.343-2.988,1.086-4.376S2.2-.11,1.346.1A1.512,1.512,0,0,0,.054,2.129C.311,3.517,2.375,5.653,2.375,5.653Z" transform="matrix(-0.342, -0.94, 0.94, -0.342, 6299.262, 9105.846)" fill="#ea1f23"/>
        <path id="Path_185-3" data-name="Path 185" d="M2.375,5.653c0-.117,1.343-2.988,1.086-4.376S2.2-.11,1.346.1A1.512,1.512,0,0,0,.054,2.129C.311,3.517,2.375,5.653,2.375,5.653Z" transform="translate(6304.03 9110.68) rotate(-142)" fill="#ea1f23"/>
      </g>
      <g id="Group_254" data-name="Group 254" transform="translate(13831.328 4979.349) rotate(114)">
        <circle id="Ellipse_273-4" data-name="Ellipse 273" cx="18.65" cy="18.65" r="18.65" transform="translate(6290 9079.098)" fill="#a91e23"/>
        <circle id="Ellipse_274-4" data-name="Ellipse 274" cx="15.434" cy="15.434" r="15.434" transform="translate(6293.215 9082.313)" fill="#d12123"/>
        <rect id="Rectangle_82-4" data-name="Rectangle 82" width="4.502" height="37.3" transform="translate(6306.721 9079.098)" fill="#a91e23"/>
        <path id="Path_176-4" data-name="Path 176" d="M2.375,5.653c0-.117,1.343-2.988,1.086-4.376S2.2-.11,1.346.1A1.512,1.512,0,0,0,.054,2.129C.311,3.517,2.375,5.653,2.375,5.653Z" transform="matrix(-0.105, 0.995, -0.995, -0.105, 6320.241, 9096.556)" fill="#ea1f23"/>
        <path id="Path_177-4" data-name="Path 177" d="M2.375,5.653c0-.117,1.343-2.988,1.086-4.376S2.2-.11,1.346.1A1.512,1.512,0,0,0,.054,2.129C.311,3.517,2.375,5.653,2.375,5.653Z" transform="translate(6317.247 9108.453) rotate(150)" fill="#ea1f23"/>
        <path id="Path_178-4" data-name="Path 178" d="M2.375,5.653c0-.117,1.343-2.988,1.086-4.376S2.2-.11,1.346.1A1.512,1.512,0,0,0,.054,2.129C.311,3.517,2.375,5.653,2.375,5.653Z" transform="matrix(-0.259, 0.966, -0.966, -0.259, 6320.43, 9101.938)" fill="#ea1f23"/>
        <path id="Path_179-4" data-name="Path 179" d="M2.375,5.653c0-.117,1.343-2.988,1.086-4.376S2.2-.11,1.346.1A1.512,1.512,0,0,0,.054,2.129C.311,3.517,2.375,5.653,2.375,5.653Z" transform="matrix(0.225, 0.974, -0.974, 0.225, 6318.92, 9090.094)" fill="#ea1f23"/>
        <path id="Path_180-4" data-name="Path 180" d="M2.375,5.653c0-.117,1.343-2.988,1.086-4.376S2.2-.11,1.346.1A1.512,1.512,0,0,0,.054,2.129C.311,3.517,2.375,5.653,2.375,5.653Z" transform="translate(6314.777 9084.714) rotate(45)" fill="#ea1f23"/>
        <path id="Path_181-4" data-name="Path 181" d="M2.375,5.653c0-.117,1.343-2.988,1.086-4.376S2.2-.11,1.346.1A1.512,1.512,0,0,0,.054,2.129C.311,3.517,2.375,5.653,2.375,5.653Z" transform="matrix(-0.017, -1, 1, -0.017, 6297.164, 9099.593)" fill="#ea1f23"/>
        <path id="Path_182-4" data-name="Path 182" d="M2.375,5.653c0-.117,1.343-2.988,1.086-4.376S2.2-.11,1.346.1A1.512,1.512,0,0,0,.054,2.129C.311,3.517,2.375,5.653,2.375,5.653Z" transform="matrix(0.799, -0.602, 0.602, 0.799, 6298.686, 9087.418)" fill="#ea1f23"/>
        <path id="Path_183-4" data-name="Path 183" d="M2.375,5.653c0-.117,1.343-2.988,1.086-4.376S2.2-.11,1.346.1A1.512,1.512,0,0,0,.054,2.129C.311,3.517,2.375,5.653,2.375,5.653Z" transform="translate(6296.32 9094.273) rotate(-82)" fill="#ea1f23"/>
        <path id="Path_184-4" data-name="Path 184" d="M2.375,5.653c0-.117,1.343-2.988,1.086-4.376S2.2-.11,1.346.1A1.512,1.512,0,0,0,.054,2.129C.311,3.517,2.375,5.653,2.375,5.653Z" transform="matrix(-0.342, -0.94, 0.94, -0.342, 6299.262, 9105.846)" fill="#ea1f23"/>
        <path id="Path_185-4" data-name="Path 185" d="M2.375,5.653c0-.117,1.343-2.988,1.086-4.376S2.2-.11,1.346.1A1.512,1.512,0,0,0,.054,2.129C.311,3.517,2.375,5.653,2.375,5.653Z" transform="translate(6304.03 9110.68) rotate(-142)" fill="#ea1f23"/>
      </g>
      <g id="Group_255" data-name="Group 255" transform="translate(13748.747 5156.359) rotate(114)">
        <circle id="Ellipse_273-5" data-name="Ellipse 273" cx="25.516" cy="25.516" r="25.516" transform="translate(6290 9079.098)" fill="#a91e23"/>
        <circle id="Ellipse_274-5" data-name="Ellipse 274" cx="21.117" cy="21.117" r="21.117" transform="translate(6294.399 9083.497)" fill="#d12123"/>
        <rect id="Rectangle_82-5" data-name="Rectangle 82" width="6.159" height="51.033" transform="translate(6312.877 9079.098)" fill="#a91e23"/>
        <path id="Path_176-5" data-name="Path 176" d="M3.249,7.735c0-.16,1.838-4.089,1.487-5.987S3.007-.15,1.842.141-.278,1.015.074,2.913,3.249,7.735,3.249,7.735Z" transform="matrix(-0.105, 0.995, -0.995, -0.105, 6331.375, 9102.983)" fill="#ea1f23"/>
        <path id="Path_177-5" data-name="Path 177" d="M3.249,7.735c0-.16,1.838-4.089,1.487-5.987S3.007-.15,1.842.141-.278,1.015.074,2.913,3.249,7.735,3.249,7.735Z" transform="translate(6327.279 9119.261) rotate(150)" fill="#ea1f23"/>
        <path id="Path_178-5" data-name="Path 178" d="M3.249,7.735c0-.16,1.838-4.089,1.487-5.987S3.007-.15,1.842.141-.278,1.015.074,2.913,3.249,7.735,3.249,7.735Z" transform="matrix(-0.259, 0.966, -0.966, -0.259, 6331.633, 9110.347)" fill="#ea1f23"/>
        <path id="Path_179-5" data-name="Path 179" d="M3.249,7.735c0-.16,1.838-4.089,1.487-5.987S3.007-.15,1.842.141-.278,1.015.074,2.913,3.249,7.735,3.249,7.735Z" transform="matrix(0.225, 0.974, -0.974, 0.225, 6329.568, 9094.143)" fill="#ea1f23"/>
        <path id="Path_180-5" data-name="Path 180" d="M3.249,7.735c0-.16,1.838-4.089,1.487-5.987S3.007-.15,1.842.141-.278,1.015.074,2.913,3.249,7.735,3.249,7.735Z" transform="translate(6323.899 9086.781) rotate(45)" fill="#ea1f23"/>
        <path id="Path_181-5" data-name="Path 181" d="M3.249,7.735c0-.16,1.838-4.089,1.487-5.987S3.007-.15,1.842.141-.278,1.015.074,2.913,3.249,7.735,3.249,7.735Z" transform="matrix(-0.017, -1, 1, -0.017, 6299.802, 9107.139)" fill="#ea1f23"/>
        <path id="Path_182-5" data-name="Path 182" d="M3.249,7.735c0-.16,1.838-4.089,1.487-5.987S3.007-.15,1.842.141-.278,1.015.074,2.913,3.249,7.735,3.249,7.735Z" transform="matrix(0.799, -0.602, 0.602, 0.799, 6301.883, 9090.481)" fill="#ea1f23"/>
        <path id="Path_183-5" data-name="Path 183" d="M3.249,7.735c0-.16,1.838-4.089,1.487-5.987S3.007-.15,1.842.141-.278,1.015.074,2.913,3.249,7.735,3.249,7.735Z" transform="translate(6298.647 9099.86) rotate(-82)" fill="#ea1f23"/>
        <path id="Path_184-5" data-name="Path 184" d="M3.249,7.735c0-.16,1.838-4.089,1.487-5.987S3.007-.15,1.842.141-.278,1.015.074,2.913,3.249,7.735,3.249,7.735Z" transform="matrix(-0.342, -0.94, 0.94, -0.342, 6302.672, 9115.693)" fill="#ea1f23"/>
        <path id="Path_185-5" data-name="Path 185" d="M3.249,7.735c0-.16,1.838-4.089,1.487-5.987S3.007-.15,1.842.141-.278,1.015.074,2.913,3.249,7.735,3.249,7.735Z" transform="translate(6309.196 9122.308) rotate(-142)" fill="#ea1f23"/>
      </g>
      <g id="Group_256" data-name="Group 256" transform="translate(-102.48 17818.15) rotate(-129)">
        <circle id="Ellipse_273-6" data-name="Ellipse 273" cx="25.516" cy="25.516" r="25.516" transform="translate(6290 9079.098)" fill="#a91e23"/>
        <circle id="Ellipse_274-6" data-name="Ellipse 274" cx="21.117" cy="21.117" r="21.117" transform="translate(6294.399 9083.497)" fill="#d12123"/>
        <rect id="Rectangle_82-6" data-name="Rectangle 82" width="6.159" height="51.033" transform="translate(6312.877 9079.098)" fill="#a91e23"/>
        <path id="Path_176-6" data-name="Path 176" d="M3.249,7.735c0-.16,1.838-4.089,1.487-5.987S3.007-.15,1.842.141-.278,1.015.074,2.913,3.249,7.735,3.249,7.735Z" transform="matrix(-0.105, 0.995, -0.995, -0.105, 6331.375, 9102.983)" fill="#ea1f23"/>
        <path id="Path_177-6" data-name="Path 177" d="M3.249,7.735c0-.16,1.838-4.089,1.487-5.987S3.007-.15,1.842.141-.278,1.015.074,2.913,3.249,7.735,3.249,7.735Z" transform="translate(6327.279 9119.261) rotate(150)" fill="#ea1f23"/>
        <path id="Path_178-6" data-name="Path 178" d="M3.249,7.735c0-.16,1.838-4.089,1.487-5.987S3.007-.15,1.842.141-.278,1.015.074,2.913,3.249,7.735,3.249,7.735Z" transform="matrix(-0.259, 0.966, -0.966, -0.259, 6331.633, 9110.347)" fill="#ea1f23"/>
        <path id="Path_179-6" data-name="Path 179" d="M3.249,7.735c0-.16,1.838-4.089,1.487-5.987S3.007-.15,1.842.141-.278,1.015.074,2.913,3.249,7.735,3.249,7.735Z" transform="matrix(0.225, 0.974, -0.974, 0.225, 6329.568, 9094.143)" fill="#ea1f23"/>
        <path id="Path_180-6" data-name="Path 180" d="M3.249,7.735c0-.16,1.838-4.089,1.487-5.987S3.007-.15,1.842.141-.278,1.015.074,2.913,3.249,7.735,3.249,7.735Z" transform="translate(6323.899 9086.781) rotate(45)" fill="#ea1f23"/>
        <path id="Path_181-6" data-name="Path 181" d="M3.249,7.735c0-.16,1.838-4.089,1.487-5.987S3.007-.15,1.842.141-.278,1.015.074,2.913,3.249,7.735,3.249,7.735Z" transform="matrix(-0.017, -1, 1, -0.017, 6299.802, 9107.139)" fill="#ea1f23"/>
        <path id="Path_182-6" data-name="Path 182" d="M3.249,7.735c0-.16,1.838-4.089,1.487-5.987S3.007-.15,1.842.141-.278,1.015.074,2.913,3.249,7.735,3.249,7.735Z" transform="matrix(0.799, -0.602, 0.602, 0.799, 6301.883, 9090.481)" fill="#ea1f23"/>
        <path id="Path_183-6" data-name="Path 183" d="M3.249,7.735c0-.16,1.838-4.089,1.487-5.987S3.007-.15,1.842.141-.278,1.015.074,2.913,3.249,7.735,3.249,7.735Z" transform="translate(6298.647 9099.86) rotate(-82)" fill="#ea1f23"/>
        <path id="Path_184-6" data-name="Path 184" d="M3.249,7.735c0-.16,1.838-4.089,1.487-5.987S3.007-.15,1.842.141-.278,1.015.074,2.913,3.249,7.735,3.249,7.735Z" transform="matrix(-0.342, -0.94, 0.94, -0.342, 6302.672, 9115.693)" fill="#ea1f23"/>
        <path id="Path_185-6" data-name="Path 185" d="M3.249,7.735c0-.16,1.838-4.089,1.487-5.987S3.007-.15,1.842.141-.278,1.015.074,2.913,3.249,7.735,3.249,7.735Z" transform="translate(6309.196 9122.308) rotate(-142)" fill="#ea1f23"/>
      </g>
      <g id="Group_257" data-name="Group 257" transform="translate(12917.895 11693.175) rotate(149)">
        <circle id="Ellipse_273-7" data-name="Ellipse 273" cx="18.65" cy="18.65" r="18.65" transform="translate(6290 9079.098)" fill="#a91e23"/>
        <circle id="Ellipse_274-7" data-name="Ellipse 274" cx="15.434" cy="15.434" r="15.434" transform="translate(6293.215 9082.313)" fill="#d12123"/>
        <rect id="Rectangle_82-7" data-name="Rectangle 82" width="4.502" height="37.3" transform="translate(6306.721 9079.098)" fill="#a91e23"/>
        <path id="Path_176-7" data-name="Path 176" d="M2.375,5.653c0-.117,1.343-2.988,1.086-4.376S2.2-.11,1.346.1A1.512,1.512,0,0,0,.054,2.129C.311,3.517,2.375,5.653,2.375,5.653Z" transform="matrix(-0.105, 0.995, -0.995, -0.105, 6320.241, 9096.556)" fill="#ea1f23"/>
        <path id="Path_177-7" data-name="Path 177" d="M2.375,5.653c0-.117,1.343-2.988,1.086-4.376S2.2-.11,1.346.1A1.512,1.512,0,0,0,.054,2.129C.311,3.517,2.375,5.653,2.375,5.653Z" transform="translate(6317.247 9108.453) rotate(150)" fill="#ea1f23"/>
        <path id="Path_178-7" data-name="Path 178" d="M2.375,5.653c0-.117,1.343-2.988,1.086-4.376S2.2-.11,1.346.1A1.512,1.512,0,0,0,.054,2.129C.311,3.517,2.375,5.653,2.375,5.653Z" transform="matrix(-0.259, 0.966, -0.966, -0.259, 6320.43, 9101.938)" fill="#ea1f23"/>
        <path id="Path_179-7" data-name="Path 179" d="M2.375,5.653c0-.117,1.343-2.988,1.086-4.376S2.2-.11,1.346.1A1.512,1.512,0,0,0,.054,2.129C.311,3.517,2.375,5.653,2.375,5.653Z" transform="matrix(0.225, 0.974, -0.974, 0.225, 6318.92, 9090.094)" fill="#ea1f23"/>
        <path id="Path_180-7" data-name="Path 180" d="M2.375,5.653c0-.117,1.343-2.988,1.086-4.376S2.2-.11,1.346.1A1.512,1.512,0,0,0,.054,2.129C.311,3.517,2.375,5.653,2.375,5.653Z" transform="translate(6314.777 9084.714) rotate(45)" fill="#ea1f23"/>
        <path id="Path_181-7" data-name="Path 181" d="M2.375,5.653c0-.117,1.343-2.988,1.086-4.376S2.2-.11,1.346.1A1.512,1.512,0,0,0,.054,2.129C.311,3.517,2.375,5.653,2.375,5.653Z" transform="matrix(-0.017, -1, 1, -0.017, 6297.164, 9099.593)" fill="#ea1f23"/>
        <path id="Path_182-7" data-name="Path 182" d="M2.375,5.653c0-.117,1.343-2.988,1.086-4.376S2.2-.11,1.346.1A1.512,1.512,0,0,0,.054,2.129C.311,3.517,2.375,5.653,2.375,5.653Z" transform="matrix(0.799, -0.602, 0.602, 0.799, 6298.686, 9087.418)" fill="#ea1f23"/>
        <path id="Path_183-7" data-name="Path 183" d="M2.375,5.653c0-.117,1.343-2.988,1.086-4.376S2.2-.11,1.346.1A1.512,1.512,0,0,0,.054,2.129C.311,3.517,2.375,5.653,2.375,5.653Z" transform="translate(6296.32 9094.273) rotate(-82)" fill="#ea1f23"/>
        <path id="Path_184-7" data-name="Path 184" d="M2.375,5.653c0-.117,1.343-2.988,1.086-4.376S2.2-.11,1.346.1A1.512,1.512,0,0,0,.054,2.129C.311,3.517,2.375,5.653,2.375,5.653Z" transform="matrix(-0.342, -0.94, 0.94, -0.342, 6299.262, 9105.846)" fill="#ea1f23"/>
        <path id="Path_185-7" data-name="Path 185" d="M2.375,5.653c0-.117,1.343-2.988,1.086-4.376S2.2-.11,1.346.1A1.512,1.512,0,0,0,.054,2.129C.311,3.517,2.375,5.653,2.375,5.653Z" transform="translate(6304.03 9110.68) rotate(-142)" fill="#ea1f23"/>
      </g>
      <g id="Group_258" data-name="Group 258" transform="translate(13758.881 5103.702) rotate(114)">
        <ellipse id="Ellipse_273-8" data-name="Ellipse 273" cx="12.821" cy="12.456" rx="12.821" ry="12.456" transform="translate(6290 9079.098)" fill="#a91e23"/>
        <ellipse id="Ellipse_274-8" data-name="Ellipse 274" cx="9.606" cy="9.24" rx="9.606" ry="9.24" transform="translate(6293.215 9082.313)" fill="#d12123"/>
        <rect id="Rectangle_82-8" data-name="Rectangle 82" width="4.502" height="24.911" transform="translate(6300.778 9079.098)" fill="#a91e23"/>
        <path id="Path_176-8" data-name="Path 176" d="M2.375,5.653c0-.117,1.343-2.988,1.086-4.376S2.2-.11,1.346.1A1.512,1.512,0,0,0,.054,2.129C.311,3.517,2.375,5.653,2.375,5.653Z" transform="matrix(-0.105, 0.995, -0.995, -0.105, 6311.211, 9090.269)" fill="#ea1f23"/>
        <path id="Path_177-8" data-name="Path 177" d="M2.375,5.653c0-.117,1.343-2.988,1.086-4.376S2.2-.11,1.346.1A1.512,1.512,0,0,0,.054,2.129C.311,3.517,2.375,5.653,2.375,5.653Z" transform="translate(6309.316 9098.569) rotate(150)" fill="#ea1f23"/>
        <path id="Path_178-8" data-name="Path 178" d="M2.375,5.653c0-.117,1.343-2.988,1.086-4.376S2.2-.11,1.346.1A1.512,1.512,0,0,0,.054,2.129C.311,3.517,2.375,5.653,2.375,5.653Z" transform="matrix(-0.259, 0.966, -0.966, -0.259, 6311.361, 9093.779)" fill="#ea1f23"/>
        <path id="Path_179-8" data-name="Path 179" d="M2.375,5.653c0-.117,1.343-2.988,1.086-4.376S2.2-.11,1.346.1A1.512,1.512,0,0,0,.054,2.129C.311,3.517,2.375,5.653,2.375,5.653Z" transform="matrix(0.225, 0.974, -0.974, 0.225, 6310.118, 9085.918)" fill="#ea1f23"/>
        <path id="Path_180-8" data-name="Path 180" d="M2.375,5.653c0-.117,1.343-2.988,1.086-4.376S2.2-.11,1.346.1A1.512,1.512,0,0,0,.054,2.129C.311,3.517,2.375,5.653,2.375,5.653Z" transform="translate(6306.92 9082.457) rotate(45)" fill="#ea1f23"/>
        <path id="Path_181-8" data-name="Path 181" d="M2.375,5.653c0-.117,1.343-2.988,1.086-4.376S2.2-.11,1.346.1A1.512,1.512,0,0,0,.054,2.129C.311,3.517,2.375,5.653,2.375,5.653Z" transform="matrix(-0.017, -1, 1, -0.017, 6294.542, 9093.38)" fill="#ea1f23"/>
        <path id="Path_182-8" data-name="Path 182" d="M2.375,5.653c0-.117,1.343-2.988,1.086-4.376S2.2-.11,1.346.1A1.512,1.512,0,0,0,.054,2.129C.311,3.517,2.375,5.653,2.375,5.653Z" transform="matrix(0.799, -0.602, 0.602, 0.799, 6295.431, 9084.907)" fill="#ea1f23"/>
        <path id="Path_183-8" data-name="Path 183" d="M2.375,5.653c0-.117,1.343-2.988,1.086-4.376S2.2-.11,1.346.1A1.512,1.512,0,0,0,.054,2.129C.311,3.517,2.375,5.653,2.375,5.653Z" transform="translate(6293.96 9089.882) rotate(-82)" fill="#ea1f23"/>
        <path id="Path_184-8" data-name="Path 184" d="M2.375,5.653c0-.117,1.343-2.988,1.086-4.376S2.2-.11,1.346.1A1.512,1.512,0,0,0,.054,2.129C.311,3.517,2.375,5.653,2.375,5.653Z" transform="matrix(-0.342, -0.94, 0.94, -0.342, 6296.208, 9097.531)" fill="#ea1f23"/>
        <path id="Path_185-8" data-name="Path 185" d="M2.375,5.653c0-.117,1.343-2.988,1.086-4.376S2.2-.11,1.346.1A1.512,1.512,0,0,0,.054,2.129C.311,3.517,2.375,5.653,2.375,5.653Z" transform="translate(6299.798 9100.599) rotate(-142)" fill="#ea1f23"/>
      </g>
      <g id="Group_259" data-name="Group 259" transform="translate(-77.316 17730.973) rotate(-129)">
        <circle id="Ellipse_273-9" data-name="Ellipse 273" cx="11.489" cy="11.489" r="11.489" transform="translate(6290 9079.098)" fill="#a91e23"/>
        <circle id="Ellipse_274-9" data-name="Ellipse 274" cx="9.508" cy="9.508" r="9.508" transform="translate(6291.98 9081.078)" fill="#d12123"/>
        <rect id="Rectangle_82-9" data-name="Rectangle 82" width="2.773" height="22.977" transform="translate(6300.3 9079.098)" fill="#a91e23"/>
        <path id="Path_176-9" data-name="Path 176" d="M1.463,3.483a7.3,7.3,0,0,0,.669-2.7C1.974-.068,1.354-.068.829.063a.931.931,0,0,0-.8,1.248A6.379,6.379,0,0,0,1.463,3.483Z" transform="matrix(-0.105, 0.995, -0.995, -0.105, 6308.628, 9089.853)" fill="#ea1f23"/>
        <path id="Path_177-9" data-name="Path 177" d="M1.463,3.483a7.3,7.3,0,0,0,.669-2.7C1.974-.068,1.354-.068.829.063a.931.931,0,0,0-.8,1.248A6.379,6.379,0,0,0,1.463,3.483Z" transform="translate(6306.785 9097.181) rotate(150)" fill="#ea1f23"/>
        <path id="Path_178-9" data-name="Path 178" d="M1.463,3.483a7.3,7.3,0,0,0,.669-2.7C1.974-.068,1.354-.068.829.063a.931.931,0,0,0-.8,1.248A6.379,6.379,0,0,0,1.463,3.483Z" transform="matrix(-0.259, 0.966, -0.966, -0.259, 6308.745, 9093.167)" fill="#ea1f23"/>
        <path id="Path_179-9" data-name="Path 179" d="M1.463,3.483a7.3,7.3,0,0,0,.669-2.7C1.974-.068,1.354-.068.829.063a.931.931,0,0,0-.8,1.248A6.379,6.379,0,0,0,1.463,3.483Z" transform="matrix(0.225, 0.974, -0.974, 0.225, 6307.815, 9085.871)" fill="#ea1f23"/>
        <path id="Path_180-9" data-name="Path 180" d="M1.463,3.483a7.3,7.3,0,0,0,.669-2.7C1.974-.068,1.354-.068.829.063a.931.931,0,0,0-.8,1.248A6.379,6.379,0,0,0,1.463,3.483Z" transform="translate(6305.263 9082.558) rotate(45)" fill="#ea1f23"/>
        <path id="Path_181-9" data-name="Path 181" d="M1.463,3.483a7.3,7.3,0,0,0,.669-2.7C1.974-.068,1.354-.068.829.063a.931.931,0,0,0-.8,1.248A6.379,6.379,0,0,0,1.463,3.483Z" transform="matrix(-0.017, -1, 1, -0.017, 6294.413, 9091.723)" fill="#ea1f23"/>
        <path id="Path_182-9" data-name="Path 182" d="M1.463,3.483a7.3,7.3,0,0,0,.669-2.7C1.974-.068,1.354-.068.829.063a.931.931,0,0,0-.8,1.248A6.379,6.379,0,0,0,1.463,3.483Z" transform="matrix(0.799, -0.602, 0.602, 0.799, 6295.351, 9084.223)" fill="#ea1f23"/>
        <path id="Path_183-9" data-name="Path 183" d="M1.463,3.483a7.3,7.3,0,0,0,.669-2.7C1.974-.068,1.354-.068.829.063a.931.931,0,0,0-.8,1.248A6.379,6.379,0,0,0,1.463,3.483Z" transform="translate(6293.894 9088.446) rotate(-82)" fill="#ea1f23"/>
        <path id="Path_184-9" data-name="Path 184" d="M1.463,3.483a7.3,7.3,0,0,0,.669-2.7C1.974-.068,1.354-.068.829.063a.931.931,0,0,0-.8,1.248A6.379,6.379,0,0,0,1.463,3.483Z" transform="matrix(-0.342, -0.94, 0.94, -0.342, 6295.706, 9095.574)" fill="#ea1f23"/>
        <path id="Path_185-9" data-name="Path 185" d="M1.463,3.483a7.3,7.3,0,0,0,.669-2.7C1.974-.068,1.354-.068.829.063a.931.931,0,0,0-.8,1.248A6.379,6.379,0,0,0,1.463,3.483Z" transform="translate(6298.643 9098.553) rotate(-142)" fill="#ea1f23"/>
      </g>
    </g>
  </g>
</svg>
