<svg xmlns="http://www.w3.org/2000/svg" width="107.345" height="104.17" viewBox="0 0 107.345 104.17">
  <g id="Group_306" data-name="Group 306" transform="translate(2.492 2.435)">
    <path id="Path_44" data-name="Path 44" d="M401.751,2979.594c11.1.858,20.374,10.072,20.374,10.072s11.217,6.868,13.964,18.313,4.292,12.591,0,24.036-5.036,15.108-16.024,21.747-16.368,5.494-27.928,4.807-10.3-.458-18.313-7.554-10.645-9.214-13.735-20.832-3.2-14.422,1.374-25.639,6.868-12.991,16.94-19.229S390.648,2978.735,401.751,2979.594Z" transform="translate(-357.879 -2979.248)" fill="none" stroke="#fff" stroke-width="5"/>
    <path id="Path_45" data-name="Path 45" d="M433.341,3001.569s14.078,4.807,20.6,15.338,7.325,14.25,5.494,26.783-4.578,14.937-12.819,23.35-8.813,8.47-20.145,10.3-14.25,2-25.181-2.976-18.542-16.94-18.542-16.94" transform="translate(-357.879 -2979.248)" fill="none" stroke="#fff" stroke-width="5"/>
    <circle id="Ellipse_73" data-name="Ellipse 73" cx="3.5" cy="3.5" r="3.5" transform="translate(21.457 14.752)" fill="#fff"/>
    <circle id="Ellipse_74" data-name="Ellipse 74" cx="4" cy="4" r="4" transform="translate(12.457 22.752)" fill="#fff"/>
    <circle id="Ellipse_75" data-name="Ellipse 75" cx="3.5" cy="3.5" r="3.5" transform="translate(12.457 37.752)" fill="#fff"/>
    <circle id="Ellipse_76" data-name="Ellipse 76" cx="3" cy="3" r="3" transform="translate(16.457 49.752)" fill="#fff"/>
    <circle id="Ellipse_77" data-name="Ellipse 77" cx="3.5" cy="3.5" r="3.5" transform="translate(29.457 32.752)" fill="#fff"/>
    <circle id="Ellipse_78" data-name="Ellipse 78" cx="3.5" cy="3.5" r="3.5" transform="translate(34.457 18.752)" fill="#fff"/>
    <circle id="Ellipse_79" data-name="Ellipse 79" cx="3.5" cy="3.5" r="3.5" transform="translate(46.457 10.752)" fill="#fff"/>
    <circle id="Ellipse_80" data-name="Ellipse 80" cx="3" cy="3" r="3" transform="translate(43.457 30.752)" fill="#fff"/>
    <circle id="Ellipse_81" data-name="Ellipse 81" cx="3.5" cy="3.5" r="3.5" transform="translate(55.457 25.752)" fill="#fff"/>
    <circle id="Ellipse_82" data-name="Ellipse 82" cx="3.5" cy="3.5" r="3.5" transform="translate(33.457 46.752)" fill="#fff"/>
    <circle id="Ellipse_83" data-name="Ellipse 83" cx="3.5" cy="3.5" r="3.5" transform="translate(27.457 61.752)" fill="#fff"/>
    <circle id="Ellipse_84" data-name="Ellipse 84" cx="3" cy="3" r="3" transform="translate(44.457 61.752)" fill="#fff"/>
    <circle id="Ellipse_85" data-name="Ellipse 85" cx="2.5" cy="2.5" r="2.5" transform="translate(50.457 43.752)" fill="#fff"/>
    <circle id="Ellipse_86" data-name="Ellipse 86" cx="3.5" cy="3.5" r="3.5" transform="translate(63.457 39.752)" fill="#fff"/>
    <circle id="Ellipse_87" data-name="Ellipse 87" cx="3.5" cy="3.5" r="3.5" transform="translate(56.457 53.752)" fill="#fff"/>
    <circle id="Ellipse_88" data-name="Ellipse 88" cx="3" cy="3" r="3" transform="translate(50.457 83.752)" fill="#fff"/>
    <circle id="Ellipse_89" data-name="Ellipse 89" cx="3.5" cy="3.5" r="3.5" transform="translate(65.457 84.752)" fill="#fff"/>
    <circle id="Ellipse_90" data-name="Ellipse 90" cx="3" cy="3" r="3" transform="translate(69.457 75.752)" fill="#fff"/>
    <circle id="Ellipse_91" data-name="Ellipse 91" cx="3" cy="3" r="3" transform="translate(79.457 74.752)" fill="#fff"/>
    <circle id="Ellipse_92" data-name="Ellipse 92" cx="2.5" cy="2.5" r="2.5" transform="translate(78.457 63.752)" fill="#fff"/>
    <circle id="Ellipse_93" data-name="Ellipse 93" cx="3" cy="3" r="3" transform="translate(86.457 59.752)" fill="#fff"/>
    <circle id="Ellipse_94" data-name="Ellipse 94" cx="3" cy="3" r="3" transform="translate(86.457 43.752)" fill="#fff"/>
  </g>
</svg>
